<svg width="408" height="258" viewBox="0 0 408 258" fill="none" xmlns="http://www.w3.org/2000/svg">
<g clip-path="url(#clip0_1_235)" filter="url(#filter0_d_1_235)">
<path d="M404 0H4V250H404V0Z" fill="white"/>
<path d="M48.0619 167.852L63.1116 159.162C66.6545 157.117 67.8673 152.589 65.8217 149.046C63.7761 145.503 59.2479 144.29 55.7051 146.336L29.7013 161.349L48.0619 167.852Z" fill="#E43729"/>
<path d="M59.4049 190.186C61.9648 190.186 64.4542 188.857 65.8262 186.481C67.8719 182.939 66.6568 178.41 63.1162 176.365L37.1101 161.349C33.5673 159.304 29.0391 160.519 26.9935 164.059C24.9479 167.602 26.163 172.13 29.7036 174.176L55.7096 189.191C56.8746 189.865 58.1489 190.186 59.4049 190.186Z" fill="#597DBE"/>
<path d="M85.2745 190.186C86.5305 190.186 87.8048 189.865 88.9698 189.192L114.976 174.176L96.8474 167.541L81.5632 176.365C78.0203 178.41 76.8075 182.939 78.8532 186.481C80.2252 188.857 82.7146 190.186 85.2745 190.186Z" fill="#FABE00"/>
<path d="M111.267 175.17C113.827 175.17 116.316 173.844 117.688 171.466C119.734 167.925 118.519 163.395 114.978 161.349L88.9721 146.334C85.4292 144.288 80.9011 145.501 78.8554 149.044C76.8098 152.584 78.0249 157.115 81.5655 159.16L107.572 174.176C108.737 174.849 110.011 175.17 111.267 175.17Z" fill="#00964D"/>
<path d="M148.09 182.643C145.503 181.152 143.446 179.095 141.926 176.476C140.404 173.86 139.644 170.965 139.644 167.8C139.644 164.635 140.404 161.743 141.926 159.124C143.448 156.505 145.503 154.45 148.09 152.957C150.678 151.465 153.511 150.721 156.585 150.721C158.99 150.721 161.249 151.148 163.365 151.999C165.482 152.853 167.225 154.054 168.594 155.608L165.809 158.393C164.774 157.115 163.45 156.134 161.836 155.449C160.223 154.764 158.487 154.423 156.63 154.423C154.316 154.423 152.161 154.978 150.168 156.091C148.175 157.203 146.575 158.771 145.374 160.794C144.17 162.819 143.569 165.156 143.569 167.805C143.569 170.453 144.17 172.79 145.374 174.815C146.575 176.84 148.181 178.408 150.191 179.519C152.2 180.631 154.346 181.187 156.63 181.187C158.821 181.187 160.655 180.843 162.134 180.16C163.611 179.475 164.881 178.57 165.948 177.443C166.74 176.592 167.379 175.564 167.866 174.36C168.353 173.156 168.658 171.825 168.779 170.365H156.676V166.758H172.385C172.538 167.611 172.613 168.403 172.613 169.134C172.613 171.143 172.292 173.1 171.655 175.002C171.016 176.904 169.996 178.572 168.594 180.003C165.579 183.262 161.577 184.889 156.582 184.889C153.508 184.88 150.678 184.136 148.09 182.643Z" fill="#6D6F75"/>
<path d="M177.455 151.451H187.319C190.668 151.451 193.59 152.145 196.086 153.528C198.582 154.914 200.501 156.839 201.841 159.306C203.181 161.772 203.85 164.603 203.85 167.8C203.85 170.997 203.179 173.828 201.841 176.294C200.501 178.761 198.582 180.686 196.086 182.072C193.59 183.457 190.666 184.149 187.319 184.149H177.455V151.451ZM187.319 180.449C191.185 180.449 194.252 179.339 196.521 177.116C198.79 174.895 199.923 171.789 199.923 167.8C199.923 163.811 198.787 160.705 196.521 158.484C194.252 156.261 191.185 155.151 187.319 155.151H181.291V180.452H187.319V180.449Z" fill="#6D6F75"/>
<path d="M215.496 182.643C212.909 181.152 210.852 179.095 209.332 176.476C207.809 173.86 207.047 170.965 207.047 167.8C207.047 164.635 207.807 161.743 209.332 159.124C210.854 156.505 212.909 154.45 215.496 152.957C218.083 151.465 220.916 150.721 223.99 150.721C226.395 150.721 228.655 151.148 230.773 151.999C232.889 152.853 234.632 154.054 236.002 155.608L233.217 158.393C232.182 157.115 230.857 156.134 229.244 155.449C227.631 154.764 225.895 154.423 224.038 154.423C221.724 154.423 219.569 154.978 217.576 156.091C215.582 157.203 213.983 158.771 212.781 160.794C211.578 162.819 210.977 165.156 210.977 167.805C210.977 170.453 211.578 172.79 212.781 174.815C213.983 176.84 215.589 178.408 217.598 179.519C219.608 180.631 221.756 181.187 224.038 181.187C226.229 181.187 228.063 180.843 229.54 180.16C231.017 179.475 232.286 178.57 233.354 177.443C234.145 176.592 234.785 175.564 235.272 174.36C235.759 173.156 236.064 171.825 236.184 170.365H224.081V166.758H239.791C239.943 167.611 240.018 168.403 240.018 169.134C240.018 171.143 239.7 173.1 239.06 175.002C238.421 176.904 237.399 178.572 236 180.003C232.985 183.262 228.982 184.889 223.988 184.889C220.914 184.88 218.083 184.136 215.496 182.643Z" fill="#6D6F75"/>
<path d="M156.051 110.636H102.293C101.743 110.636 101.298 110.191 101.298 109.641C101.298 109.503 101.326 109.368 101.382 109.242L105.504 99.8142C105.642 99.5136 105.921 99.2992 106.248 99.2456C108.846 98.6724 111.311 97.6121 113.513 96.1208C118.344 92.8818 121.378 88.1282 122.51 81.9859C122.536 81.7948 122.571 81.606 122.615 81.4173C122.752 80.886 123.295 80.5668 123.829 80.7066C124.321 80.8347 124.635 81.3124 124.563 81.8134C124.535 82.0022 124.502 82.1816 124.47 82.3494C124.307 83.596 124.162 87.1286 126.958 90.6542C130.083 94.5992 137.673 99.2969 156.049 99.2969C156.599 99.2969 157.044 99.7419 157.044 100.292C157.044 100.842 156.599 101.287 156.049 101.287C140.62 101.287 130.295 98.1108 125.362 91.8426C124.314 90.526 123.514 89.0254 123.006 87.4222C121.312 91.6701 118.36 95.3006 114.548 97.8265C112.283 99.3411 109.769 100.448 107.124 101.1L103.815 108.66H156.051C156.601 108.66 157.046 109.105 157.046 109.655C157.046 110.205 156.601 110.65 156.051 110.65V110.636Z" fill="#00964D"/>
<path d="M123.219 110.636C122.669 110.636 122.224 110.191 122.224 109.641V81.6323C122.224 81.0824 122.669 80.6373 123.219 80.6373C123.768 80.6373 124.214 81.0824 124.214 81.6323V109.637C124.216 110.187 123.773 110.634 123.225 110.636C123.221 110.636 123.219 110.636 123.219 110.636Z" fill="#00964D"/>
<path d="M146.835 110.636C146.285 110.636 145.84 110.191 145.84 109.641V100.265C145.84 99.7146 146.285 99.2695 146.835 99.2695C147.385 99.2695 147.83 99.7146 147.83 100.265V109.641C147.83 110.191 147.385 110.636 146.835 110.636Z" fill="#00964D"/>
<path d="M110.573 110.636C110.023 110.636 109.578 110.191 109.578 109.641V99.6773C109.578 99.1274 110.023 98.6823 110.573 98.6823C111.122 98.6823 111.568 99.1274 111.568 99.6773V109.641C111.568 110.191 111.122 110.636 110.573 110.636Z" fill="#00964D"/>
<path d="M123.438 98.3212C122.888 98.3212 122.443 97.8761 122.443 97.3262C122.443 96.7762 122.888 96.3312 123.438 96.3312H132.814C133.364 96.3312 133.809 96.7762 133.809 97.3262C133.809 97.8761 133.364 98.3212 132.814 98.3212H123.438Z" fill="#00964D"/>
<path d="M114.653 98.3281C114.103 98.3281 113.658 97.8831 113.658 97.3332C113.658 96.7832 114.103 96.3382 114.653 96.3382H124.029C124.579 96.3382 125.024 96.7832 125.024 97.3332C125.024 97.8831 124.579 98.3281 124.029 98.3281H114.653Z" fill="#00964D"/>
<path d="M135.275 110.636C134.725 110.636 134.28 110.191 134.28 109.641V97.3238C134.28 96.7739 134.725 96.3288 135.275 96.3288C135.825 96.3288 136.27 96.7739 136.27 97.3238V109.641C136.268 110.191 135.823 110.636 135.275 110.636Z" fill="#00964D"/>
<path d="M145.875 109.238C145.612 109.24 145.358 109.138 145.171 108.954L135.562 99.3418C135.172 98.9503 135.177 98.3165 135.569 97.9273C135.96 97.5382 136.594 97.5429 136.983 97.9343L146.593 107.546C146.984 107.931 146.991 108.56 146.607 108.954C146.418 109.147 146.159 109.254 145.891 109.252L145.875 109.238Z" fill="#00964D"/>
<path d="M155.044 109.238C154.781 109.24 154.527 109.138 154.341 108.954L146.651 101.264C146.259 100.873 146.259 100.237 146.651 99.8428C147.042 99.4513 147.679 99.4513 148.072 99.8428L155.762 107.532C156.153 107.917 156.16 108.546 155.776 108.94C155.587 109.133 155.329 109.24 155.061 109.238H155.044Z" fill="#00964D"/>
<path d="M133.972 109.238C133.709 109.24 133.457 109.138 133.271 108.954L122.841 98.5122C122.452 98.1207 122.457 97.4869 122.848 97.0978C123.24 96.7086 123.873 96.7133 124.262 97.1048L134.692 107.542C135.084 107.926 135.091 108.555 134.706 108.949C134.518 109.143 134.257 109.25 133.986 109.247L133.972 109.238Z" fill="#00964D"/>
<path d="M124.274 109.238C123.724 109.243 123.277 108.802 123.27 108.252C123.267 107.982 123.375 107.723 123.568 107.532L133.998 97.0955C134.387 96.704 135.019 96.6993 135.412 97.0885C135.806 97.4776 135.809 98.1091 135.419 98.5029L124.978 108.947C124.791 109.136 124.54 109.238 124.274 109.238Z" fill="#00964D"/>
<path d="M110.573 110.249C110.023 110.249 109.575 109.804 109.573 109.254C109.573 108.989 109.678 108.732 109.866 108.546L121.312 97.1002C121.702 96.711 122.331 96.711 122.72 97.1002C123.109 97.4893 123.109 98.1184 122.72 98.5076L111.274 109.958C111.09 110.145 110.838 110.252 110.573 110.249Z" fill="#00964D"/>
<path d="M136.391 109.238C135.841 109.243 135.394 108.802 135.387 108.252C135.384 107.982 135.492 107.723 135.685 107.532L144.251 98.9619C144.642 98.5705 145.278 98.5705 145.672 98.9619C146.064 99.3534 146.064 99.9896 145.672 100.383L137.106 108.949C136.915 109.14 136.659 109.243 136.391 109.238Z" fill="#00964D"/>
<path d="M148.145 109.238C147.595 109.24 147.147 108.798 147.145 108.25C147.143 107.98 147.252 107.723 147.443 107.535L154.921 100.052C155.31 99.6633 155.939 99.6633 156.328 100.052C156.717 100.442 156.717 101.071 156.328 101.46L148.851 108.942C148.664 109.129 148.41 109.236 148.145 109.238Z" fill="#00964D"/>
<path d="M121.692 109.238C121.429 109.24 121.177 109.138 120.991 108.954L111.204 99.1624C110.815 98.7732 110.815 98.1441 111.204 97.7549C111.593 97.3658 112.222 97.3658 112.611 97.7549L122.401 107.542C122.792 107.926 122.799 108.555 122.415 108.949C122.226 109.143 121.965 109.25 121.695 109.247L121.692 109.238Z" fill="#00964D"/>
<path d="M155.429 110.636C154.879 110.636 154.434 110.191 154.434 109.641C154.434 109.091 154.879 108.646 155.429 108.646H207.662L204.358 101.092C201.711 100.442 199.199 99.3371 196.932 97.8271C193.117 95.2989 190.165 91.6661 188.471 87.4135C187.963 89.019 187.164 90.5173 186.115 91.8339C181.184 98.1021 170.859 101.278 155.429 101.278C154.879 101.278 154.434 100.833 154.434 100.283C154.434 99.7332 154.879 99.2882 155.429 99.2882C165.57 99.2882 178.85 97.7875 184.519 90.6455C187.318 87.1176 187.171 83.585 187.008 82.3383C186.973 82.1612 186.942 81.9841 186.914 81.8047C186.835 81.2618 187.21 80.7561 187.753 80.6769C188.254 80.6023 188.732 80.9192 188.86 81.4109C188.904 81.5973 188.939 81.7884 188.965 81.9795C191.708 96.8112 205.09 99.2206 205.227 99.2439C205.558 99.3022 205.838 99.5189 205.975 99.8264L210.095 109.243C210.314 109.746 210.086 110.333 209.583 110.552C209.457 110.608 209.322 110.636 209.184 110.636H155.429Z" fill="#00964D"/>
<path d="M188.257 110.636C187.707 110.636 187.262 110.191 187.262 109.641V81.6323C187.262 81.0824 187.707 80.6373 188.257 80.6373C188.807 80.6373 189.252 81.0824 189.252 81.6323V109.637C189.254 110.187 188.811 110.634 188.264 110.636H188.257Z" fill="#00964D"/>
<path d="M164.649 110.636C164.099 110.636 163.654 110.191 163.654 109.641V100.265C163.654 99.7146 164.099 99.2695 164.649 99.2695C165.199 99.2695 165.644 99.7146 165.644 100.265V109.641C165.642 110.191 165.197 110.636 164.649 110.636Z" fill="#00964D"/>
<path d="M155.627 110.636C155.077 110.636 154.632 110.191 154.632 109.641V100.265C154.632 99.7146 155.077 99.2695 155.627 99.2695C156.177 99.2695 156.622 99.7146 156.622 100.265V109.641C156.622 110.191 156.177 110.636 155.627 110.636Z" fill="#00964D"/>
<path d="M200.903 110.636C200.353 110.636 199.908 110.191 199.908 109.641V99.6773C199.908 99.1274 200.353 98.6823 200.903 98.6823C201.452 98.6823 201.898 99.1274 201.898 99.6773V109.641C201.895 110.191 201.45 110.636 200.903 110.636Z" fill="#00964D"/>
<path d="M188.035 98.3212H178.659C178.109 98.3212 177.664 97.8761 177.664 97.3262C177.664 96.7762 178.109 96.3312 178.659 96.3312H188.035C188.585 96.3312 189.03 96.7762 189.03 97.3262C189.03 97.8761 188.585 98.3212 188.035 98.3212Z" fill="#00964D"/>
<path d="M196.815 98.3281H187.439C186.889 98.3281 186.444 97.8831 186.444 97.3332C186.444 96.7832 186.889 96.3382 187.439 96.3382H196.815C197.365 96.3382 197.81 96.7832 197.81 97.3332C197.81 97.8831 197.365 98.3281 196.815 98.3281Z" fill="#00964D"/>
<path d="M176.202 110.636C175.653 110.636 175.207 110.191 175.207 109.641V97.3238C175.207 96.7739 175.653 96.3288 176.202 96.3288C176.752 96.3288 177.197 96.7739 177.197 97.3238V109.641C177.195 110.191 176.75 110.636 176.202 110.636Z" fill="#00964D"/>
<path d="M165.588 109.238C165.039 109.243 164.591 108.802 164.584 108.252C164.582 107.982 164.689 107.723 164.882 107.532L174.494 97.9204C174.884 97.5312 175.513 97.5312 175.902 97.9204C176.291 98.3095 176.291 98.9387 175.902 99.3278L166.29 108.94C166.106 109.131 165.854 109.238 165.588 109.238Z" fill="#00964D"/>
<path d="M156.431 109.238C155.881 109.24 155.433 108.798 155.431 108.25C155.429 107.98 155.538 107.723 155.729 107.535L163.4 99.8451C163.792 99.4536 164.428 99.4536 164.822 99.8451C165.213 100.237 165.213 100.873 164.822 101.267L157.137 108.956C156.948 109.138 156.694 109.24 156.431 109.238Z" fill="#00964D"/>
<path d="M177.5 109.238C176.95 109.24 176.503 108.798 176.501 108.25C176.498 107.98 176.608 107.723 176.799 107.535L187.229 97.0978C187.618 96.7087 188.247 96.7087 188.636 97.0978C189.026 97.4869 189.026 98.1161 188.636 98.5052L178.206 108.949C178.018 109.136 177.764 109.24 177.5 109.238Z" fill="#00964D"/>
<path d="M187.201 109.238C186.938 109.24 186.684 109.138 186.497 108.954L176.067 98.5169C175.678 98.1277 175.678 97.4986 176.067 97.1095C176.457 96.7203 177.086 96.7203 177.475 97.1095L187.905 107.546C188.296 107.931 188.303 108.56 187.919 108.954C187.73 109.147 187.471 109.254 187.203 109.252V109.238H187.201Z" fill="#00964D"/>
<path d="M200.903 110.249C200.639 110.252 200.385 110.149 200.199 109.965L188.753 98.5192C188.364 98.1277 188.368 97.4939 188.76 97.1048C189.151 96.7156 189.785 96.7203 190.174 97.1118L201.62 108.558C202.009 108.944 202.009 109.571 201.625 109.96L201.62 109.965C201.427 110.154 201.168 110.256 200.903 110.249Z" fill="#00964D"/>
<path d="M175.079 109.238C174.816 109.24 174.564 109.138 174.378 108.954L165.814 100.383C165.423 99.9919 165.423 99.3558 165.814 98.9619C166.206 98.5705 166.842 98.5705 167.236 98.9619L175.799 107.528C176.191 107.912 176.198 108.541 175.813 108.935C175.625 109.129 175.364 109.236 175.093 109.233L175.079 109.238Z" fill="#00964D"/>
<path d="M163.331 109.238C163.067 109.24 162.813 109.138 162.627 108.954L155.149 101.472C154.76 101.082 154.76 100.453 155.149 100.064C155.538 99.675 156.167 99.675 156.557 100.064L164.034 107.546C164.426 107.931 164.433 108.56 164.048 108.954C163.859 109.147 163.601 109.254 163.333 109.252V109.238H163.331Z" fill="#00964D"/>
<path d="M189.781 109.238C189.231 109.24 188.783 108.798 188.781 108.25C188.779 107.98 188.888 107.723 189.079 107.535L198.866 97.7479C199.255 97.3588 199.884 97.3588 200.273 97.7479C200.663 98.1371 200.663 98.7662 200.273 99.1554L190.487 108.942C190.3 109.131 190.046 109.238 189.781 109.238Z" fill="#00964D"/>
<path d="M120.296 126.211C120.306 126.174 120.317 126.137 120.324 126.099L122.669 109.783C122.748 109.24 122.37 108.735 121.825 108.658C121.282 108.579 120.776 108.956 120.7 109.501L118.346 125.817C118.344 125.827 118.344 125.834 118.341 125.843C118.325 125.971 118.334 126.097 118.365 126.214H120.296V126.211Z" fill="#00964D"/>
<path d="M127.152 126.165H129.084C129.107 126.053 129.114 125.934 129.098 125.815L126.749 109.499C126.677 109.01 126.257 108.646 125.763 108.646H123.207C122.657 108.646 122.212 109.091 122.212 109.641C122.212 110.191 122.657 110.636 123.207 110.636H124.913L127.14 126.099C127.14 126.123 127.147 126.144 127.152 126.165Z" fill="#00964D"/>
<path d="M188.252 108.649H185.696C185.202 108.649 184.782 109.012 184.712 109.501L182.364 125.817C182.364 125.824 182.361 125.831 182.361 125.838C182.345 125.96 182.354 126.078 182.38 126.193H184.323C184.33 126.162 184.34 126.134 184.344 126.104L186.563 110.641H188.254C188.804 110.641 189.249 110.196 189.249 109.646C189.249 109.096 188.802 108.649 188.252 108.649Z" fill="#00964D"/>
<path d="M191.169 126.165H193.11C193.134 126.053 193.141 125.934 193.124 125.815L190.769 109.499C190.689 108.956 190.186 108.579 189.643 108.656C189.1 108.735 188.723 109.238 188.8 109.781L191.155 126.097C191.155 126.123 191.165 126.144 191.169 126.165Z" fill="#00964D"/>
<path d="M222.713 126.258H235.494V56.6386L222.713 49.1121V126.258Z" fill="#597DBE"/>
<path d="M221.816 52.3114H217.282V126.26H221.816V52.3114Z" fill="#597DBE"/>
<path d="M216.496 126.165H203.717V51.1161L216.496 43V126.165Z" fill="#597DBE"/>
<path d="M302.376 91.0393C298.095 84.7944 294.551 78.3863 291.762 72.0436L271.887 71.8688C276.394 75.667 280.668 80.1433 284.533 85.2464C290.014 92.484 294.099 100.22 296.767 107.924L309.646 126.304L338.391 123.909C325.98 117.939 312.957 106.477 302.376 91.0393Z" fill="#6B6F74"/>
<path d="M282.012 82.378L225.349 121.74L270.319 122.898L282.012 82.378Z" fill="white" stroke="#6B6F74" stroke-width="0.531646"/>
<path fill-rule="evenodd" clip-rule="evenodd" d="M282.012 82.378L240.169 122.406H256.268L282.012 82.378Z" stroke="#6B6F74" stroke-width="0.531646"/>
<path d="M301.912 107.765V107.672H246.136V107.726C236.347 108.155 228.166 111.202 224.738 115.374H326.365C322.413 111.307 313.108 108.308 301.912 107.765Z" fill="#1D71B8"/>
<path d="M239.136 125.68H311.594C323.559 123.371 331.144 119.938 331.144 116.105C331.144 109.15 306.171 103.51 275.364 103.51C244.556 103.51 219.584 109.15 219.584 116.105C219.584 119.938 227.171 123.371 239.136 125.68Z" fill="white" stroke="#6B6F74" stroke-width="0.531646"/>
<path d="M298.03 107.777H252.603C245.181 109.543 239.101 112.146 235.145 115.271H315.49C311.531 112.146 305.451 109.543 298.03 107.777Z" fill="white" stroke="#6B6F74" stroke-width="0.531646"/>
<path fill-rule="evenodd" clip-rule="evenodd" d="M284.988 107.777H262.795L251.698 115.418L256.529 123.059H292.752L296.084 115.418L284.988 107.777Z" stroke="#6B6F74" stroke-width="0.531646"/>
<path d="M235.452 116.424C235.452 116.084 235.478 115.749 235.522 115.418H219.586C219.737 118.174 221.413 120.616 223.967 122.245H238.057C236.429 120.651 235.452 118.626 235.452 116.424Z" fill="white" stroke="#6B6F74" stroke-width="0.531646"/>
<path d="M315.276 116.424C315.276 116.084 315.25 115.749 315.206 115.418H331.142C330.99 118.174 329.315 120.616 326.761 122.245H312.67C314.299 120.651 315.276 118.626 315.276 116.424Z" fill="white" stroke="#6B6F74" stroke-width="0.531646"/>
<path d="M338.389 122.245H223.964V126.304H338.389V122.245Z" fill="#6B6F74"/>
<path d="M288.69 85.5307H294.332C292.647 83.0025 291.247 80.4159 290.137 77.8527L282.012 77.7805C283.855 79.3604 285.603 81.2199 287.183 83.3427C287.719 84.0604 288.22 84.7897 288.69 85.5307Z" fill="#FABE00"/>
<path d="M106.196 126.363C109.314 122.371 111.174 117.345 111.174 111.888C111.174 98.8897 100.637 88.3526 87.6388 88.3526C74.6409 88.3526 64.1038 98.8897 64.1038 111.888C64.1038 117.347 65.9633 122.371 69.0811 126.363H106.196Z" fill="#E43729"/>
<path d="M87.6388 122.319C101.826 122.319 113.327 121.397 113.327 120.26C113.327 119.123 101.826 118.201 87.6388 118.201C73.4516 118.201 61.9507 119.123 61.9507 120.26C61.9507 121.397 73.4516 122.319 87.6388 122.319Z" fill="#E43729" stroke="white" stroke-width="0.531646"/>
<path d="M74.9998 121.488H71.4625V125.025H74.9998V121.488Z" fill="#6B6F74" stroke="white" stroke-width="0.531646"/>
<path d="M78.7863 121.488H75.2491V125.025H78.7863V121.488Z" fill="#6B6F74" stroke="white" stroke-width="0.531646"/>
<path d="M82.3236 121.488H78.7863V125.025H82.3236V121.488Z" fill="#6B6F74" stroke="white" stroke-width="0.531646"/>
<path d="M85.8608 121.488H82.3236V125.025H85.8608V121.488Z" fill="#6B6F74" stroke="white" stroke-width="0.531646"/>
<path d="M89.398 121.488H85.8608V125.025H89.398V121.488Z" fill="#6B6F74" stroke="white" stroke-width="0.531646"/>
<path d="M92.9353 121.488H89.398V125.025H92.9353V121.488Z" fill="#6B6F74" stroke="white" stroke-width="0.531646"/>
<path d="M96.7498 121.488H93.2126V125.025H96.7498V121.488Z" fill="#6B6F74" stroke="white" stroke-width="0.531646"/>
<path d="M100.287 121.488H96.7498V125.025H100.287V121.488Z" fill="#6B6F74" stroke="white" stroke-width="0.531646"/>
<path d="M103.824 121.488H100.287V125.025H103.824V121.488Z" fill="#6B6F74" stroke="white" stroke-width="0.531646"/>
<path d="M214.688 58.7568H205.523V60.8156H214.688V58.7568Z" fill="white"/>
<path d="M214.688 61.4062H205.523V63.4651H214.688V61.4062Z" fill="white"/>
<path d="M214.688 64.0556H205.523V66.1145H214.688V64.0556Z" fill="white"/>
<path d="M214.688 66.7051H205.523V68.7639H214.688V66.7051Z" fill="white"/>
<path d="M214.688 69.3545H205.523V71.4134H214.688V69.3545Z" fill="white"/>
<path d="M214.688 72.0039H205.523V74.0628H214.688V72.0039Z" fill="white"/>
<path d="M214.688 74.6557H205.523V76.7146H214.688V74.6557Z" fill="white"/>
<path d="M214.688 77.3051H205.523V79.364H214.688V77.3051Z" fill="white"/>
<path d="M214.688 79.9546H205.523V82.0134H214.688V79.9546Z" fill="white"/>
<path d="M214.688 82.604H205.523V84.6629H214.688V82.604Z" fill="white"/>
<path d="M214.688 85.2534H205.523V87.3123H214.688V85.2534Z" fill="white"/>
<path d="M214.688 87.9029H205.523V89.9617H214.688V87.9029Z" fill="white"/>
<path d="M214.688 90.5523H205.523V92.6112H214.688V90.5523Z" fill="white"/>
<path d="M214.688 93.2017H205.523V95.2606H214.688V93.2017Z" fill="white"/>
<path d="M214.688 95.8512H205.523V97.91H214.688V95.8512Z" fill="white"/>
<path d="M233.404 58.7428H224.239V60.8017H233.404V58.7428Z" fill="white"/>
<path d="M233.404 61.3922H224.239V63.4511H233.404V61.3922Z" fill="white"/>
<path d="M233.404 64.044H224.239V66.1029H233.404V64.044Z" fill="white"/>
<path d="M233.404 66.6934H224.239V68.7523H233.404V66.6934Z" fill="white"/>
<path d="M233.404 69.3429H224.239V71.4017H233.404V69.3429Z" fill="white"/>
<path d="M233.404 71.9923H224.239V74.0511H233.404V71.9923Z" fill="white"/>
<path d="M233.404 74.6417H224.239V76.7006H233.404V74.6417Z" fill="white"/>
<path d="M233.404 77.2911H224.239V79.35H233.404V77.2911Z" fill="white"/>
<path d="M233.404 79.9406H224.239V81.9995H233.404V79.9406Z" fill="white"/>
<path d="M233.404 82.59H224.239V84.6489H233.404V82.59Z" fill="white"/>
<path d="M233.404 85.2394H224.239V87.2983H233.404V85.2394Z" fill="white"/>
<path d="M233.404 87.8912H224.239V89.9501H233.404V87.8912Z" fill="white"/>
<path d="M233.404 90.5406H224.239V92.5995H233.404V90.5406Z" fill="white"/>
<path d="M233.404 93.1901H224.239V95.2489H233.404V93.1901Z" fill="white"/>
<path d="M233.404 95.8395H224.239V97.8984H233.404V95.8395Z" fill="white"/>
<path d="M316.746 107.975C306.537 105.419 291.759 103.813 275.315 103.813C258.871 103.813 244.095 105.419 233.884 107.975H316.746Z" fill="#00964D" stroke="#6B6F74" stroke-width="0.531646"/>
<path d="M253.964 158.603H258.098L263.634 172.115H263.852L269.388 158.603H273.522V177.25H270.281V164.439H270.108L264.954 177.195H262.532L257.379 164.412H257.206V177.25H253.964V158.603ZM283.155 177.523C281.789 177.523 280.606 177.223 279.604 176.622C278.603 176.021 277.826 175.18 277.273 174.1C276.727 173.019 276.454 171.757 276.454 170.312C276.454 168.867 276.727 167.602 277.273 166.515C277.826 165.429 278.603 164.585 279.604 163.984C280.606 163.383 281.789 163.082 283.155 163.082C284.521 163.082 285.705 163.383 286.706 163.984C287.708 164.585 288.482 165.429 289.028 166.515C289.58 167.602 289.857 168.867 289.857 170.312C289.857 171.757 289.58 173.019 289.028 174.1C288.482 175.18 287.708 176.021 286.706 176.622C285.705 177.223 284.521 177.523 283.155 177.523ZM283.173 174.883C283.914 174.883 284.533 174.679 285.031 174.273C285.529 173.86 285.899 173.307 286.142 172.615C286.391 171.924 286.515 171.153 286.515 170.303C286.515 169.447 286.391 168.673 286.142 167.981C285.899 167.283 285.529 166.728 285.031 166.315C284.533 165.902 283.914 165.696 283.173 165.696C282.415 165.696 281.783 165.902 281.28 166.315C280.782 166.728 280.409 167.283 280.16 167.981C279.917 168.673 279.795 169.447 279.795 170.303C279.795 171.153 279.917 171.924 280.16 172.615C280.409 173.307 280.782 173.86 281.28 174.273C281.783 174.679 282.415 174.883 283.173 174.883ZM295.95 169.055V177.25H292.654V163.265H295.805V165.641H295.968C296.29 164.858 296.803 164.236 297.507 163.774C298.217 163.313 299.094 163.082 300.139 163.082C301.104 163.082 301.944 163.289 302.661 163.702C303.383 164.114 303.941 164.712 304.336 165.495C304.737 166.278 304.934 167.228 304.928 168.345V177.25H301.632V168.855C301.632 167.92 301.389 167.189 300.903 166.661C300.424 166.133 299.759 165.869 298.909 165.869C298.333 165.869 297.82 165.996 297.371 166.251C296.927 166.5 296.578 166.861 296.323 167.335C296.075 167.808 295.95 168.382 295.95 169.055ZM315.262 163.265V165.814H307.222V163.265H315.262ZM309.207 159.914H312.503V173.043C312.503 173.487 312.57 173.826 312.704 174.063C312.843 174.294 313.025 174.452 313.25 174.537C313.474 174.622 313.723 174.664 313.997 174.664C314.203 174.664 314.391 174.649 314.561 174.619C314.737 174.588 314.871 174.561 314.962 174.537L315.517 177.113C315.341 177.174 315.089 177.241 314.761 177.314C314.44 177.387 314.045 177.429 313.578 177.441C312.752 177.465 312.009 177.341 311.347 177.068C310.685 176.789 310.16 176.358 309.772 175.775C309.389 175.192 309.201 174.464 309.207 173.59V159.914ZM318.019 177.25V163.265H321.215V165.595H321.36C321.615 164.788 322.052 164.166 322.671 163.729C323.297 163.286 324.01 163.064 324.811 163.064C324.993 163.064 325.197 163.073 325.421 163.092C325.652 163.104 325.843 163.125 325.995 163.155V166.187C325.855 166.139 325.634 166.096 325.33 166.06C325.033 166.017 324.744 165.996 324.465 165.996C323.864 165.996 323.324 166.127 322.844 166.388C322.371 166.643 321.998 166.998 321.724 167.453C321.451 167.908 321.315 168.433 321.315 169.028V177.25H318.019ZM333.8 177.523C332.398 177.523 331.187 177.232 330.167 176.649C329.154 176.06 328.373 175.229 327.827 174.154C327.281 173.074 327.008 171.802 327.008 170.339C327.008 168.901 327.281 167.638 327.827 166.551C328.38 165.459 329.15 164.609 330.14 164.002C331.129 163.389 332.292 163.082 333.627 163.082C334.489 163.082 335.302 163.222 336.067 163.501C336.838 163.774 337.518 164.199 338.107 164.776C338.702 165.353 339.169 166.087 339.509 166.979C339.849 167.866 340.019 168.922 340.019 170.148V171.159H328.556V168.937H336.859C336.853 168.306 336.717 167.744 336.45 167.253C336.183 166.755 335.809 166.363 335.33 166.078C334.856 165.793 334.304 165.65 333.673 165.65C332.999 165.65 332.407 165.814 331.897 166.142C331.387 166.463 330.99 166.888 330.704 167.416C330.425 167.939 330.283 168.512 330.276 169.137V171.077C330.276 171.89 330.425 172.588 330.723 173.171C331.02 173.748 331.436 174.191 331.97 174.5C332.504 174.804 333.129 174.956 333.846 174.956C334.325 174.956 334.759 174.889 335.148 174.755C335.536 174.616 335.873 174.412 336.158 174.145C336.444 173.878 336.659 173.547 336.805 173.153L339.882 173.499C339.688 174.312 339.318 175.022 338.772 175.629C338.231 176.23 337.539 176.698 336.696 177.031C335.852 177.359 334.887 177.523 333.8 177.523ZM346.832 177.532C345.946 177.532 345.147 177.374 344.437 177.059C343.733 176.737 343.175 176.264 342.762 175.638C342.355 175.013 342.152 174.242 342.152 173.326C342.152 172.537 342.297 171.884 342.589 171.368C342.88 170.852 343.278 170.439 343.782 170.13C344.285 169.82 344.853 169.587 345.484 169.429C346.122 169.265 346.78 169.146 347.46 169.074C348.28 168.989 348.944 168.913 349.454 168.846C349.964 168.773 350.334 168.664 350.565 168.518C350.802 168.366 350.92 168.133 350.92 167.817V167.762C350.92 167.077 350.717 166.545 350.31 166.169C349.903 165.793 349.318 165.605 348.553 165.605C347.745 165.605 347.105 165.781 346.632 166.133C346.164 166.485 345.848 166.901 345.685 167.38L342.607 166.943C342.85 166.093 343.25 165.383 343.809 164.812C344.367 164.236 345.05 163.805 345.858 163.519C346.665 163.228 347.557 163.082 348.534 163.082C349.208 163.082 349.879 163.161 350.547 163.319C351.214 163.477 351.824 163.738 352.377 164.102C352.929 164.46 353.372 164.949 353.706 165.568C354.046 166.187 354.216 166.961 354.216 167.89V177.25H351.048V175.329H350.938C350.738 175.717 350.456 176.082 350.091 176.421C349.733 176.755 349.281 177.025 348.735 177.232C348.195 177.432 347.56 177.532 346.832 177.532ZM347.688 175.11C348.349 175.11 348.923 174.98 349.409 174.719C349.894 174.452 350.268 174.1 350.529 173.663C350.796 173.226 350.929 172.749 350.929 172.233V170.585C350.826 170.67 350.65 170.749 350.401 170.822C350.158 170.895 349.885 170.958 349.582 171.013C349.278 171.068 348.978 171.116 348.68 171.159C348.383 171.201 348.125 171.238 347.906 171.268C347.415 171.335 346.974 171.444 346.586 171.596C346.198 171.747 345.891 171.96 345.666 172.233C345.442 172.5 345.329 172.846 345.329 173.271C345.329 173.878 345.551 174.336 345.994 174.646C346.437 174.956 347.002 175.11 347.688 175.11ZM360.826 158.603V177.25H357.53V158.603H360.826Z" fill="#6D6F75"/>
</g>
<defs>
<filter id="filter0_d_1_235" x="0" y="0" width="408" height="258" filterUnits="userSpaceOnUse" color-interpolation-filters="sRGB">
<feFlood flood-opacity="0" result="BackgroundImageFix"/>
<feColorMatrix in="SourceAlpha" type="matrix" values="0 0 0 0 0 0 0 0 0 0 0 0 0 0 0 0 0 0 127 0" result="hardAlpha"/>
<feOffset dy="4"/>
<feGaussianBlur stdDeviation="2"/>
<feComposite in2="hardAlpha" operator="out"/>
<feColorMatrix type="matrix" values="0 0 0 0 0 0 0 0 0 0 0 0 0 0 0 0 0 0 0.25 0"/>
<feBlend mode="normal" in2="BackgroundImageFix" result="effect1_dropShadow_1_235"/>
<feBlend mode="normal" in="SourceGraphic" in2="effect1_dropShadow_1_235" result="shape"/>
</filter>
<clipPath id="clip0_1_235">
<rect width="400" height="250" fill="white" transform="translate(4)"/>
</clipPath>
</defs>
</svg>
