<svg xmlns="http://www.w3.org/2000/svg" xmlns:xlink="http://www.w3.org/1999/xlink" width="2572" zoomAndPan="magnify" viewBox="0 0 1928.88 209.999996" height="280" preserveAspectRatio="xMidYMid meet" version="1.0"><defs><g/><clipPath id="937e4c73ac"><path d="M 0 0.0078125 L 259 0.0078125 L 259 209.609375 L 0 209.609375 Z M 0 0.0078125 " clip-rule="nonzero"/></clipPath><clipPath id="a888599523"><path d="M 0 0.0078125 L 259 0.0078125 L 259 209.609375 L 0 209.609375 Z M 0 0.0078125 " clip-rule="nonzero"/></clipPath><clipPath id="517fec3bd7"><path d="M 95 0.0078125 L 450 0.0078125 L 450 209.609375 L 95 209.609375 Z M 95 0.0078125 " clip-rule="nonzero"/></clipPath><clipPath id="72fdd97717"><path d="M 95 0.0078125 L 450 0.0078125 L 450 209.609375 L 95 209.609375 Z M 95 0.0078125 " clip-rule="nonzero"/></clipPath><clipPath id="fad3e0e05e"><path d="M 1439.511719 13.878906 L 1928.761719 13.878906 L 1928.761719 195.484375 L 1439.511719 195.484375 Z M 1439.511719 13.878906 " clip-rule="nonzero"/></clipPath><clipPath id="c20aedc73d"><path d="M 1839.675781 13.878906 C 1888.679688 13.878906 1928.40625 54.535156 1928.40625 104.683594 C 1928.40625 154.832031 1888.679688 195.484375 1839.675781 195.484375 L 1528.238281 195.484375 C 1479.234375 195.484375 1439.511719 154.832031 1439.511719 104.683594 C 1439.511719 54.535156 1479.234375 13.878906 1528.238281 13.878906 Z M 1839.675781 13.878906 " clip-rule="nonzero"/></clipPath><clipPath id="f1b54681a6"><path d="M 1439.511719 13.878906 L 1928.582031 13.878906 L 1928.582031 195.824219 L 1439.511719 195.824219 Z M 1439.511719 13.878906 " clip-rule="nonzero"/></clipPath><clipPath id="2dfb991d6e"><path d="M 1839.671875 13.878906 C 1888.675781 13.878906 1928.398438 54.53125 1928.398438 104.679688 C 1928.398438 154.832031 1888.675781 195.484375 1839.671875 195.484375 L 1528.238281 195.484375 C 1479.234375 195.484375 1439.511719 154.832031 1439.511719 104.679688 C 1439.511719 54.53125 1479.234375 13.878906 1528.238281 13.878906 Z M 1839.671875 13.878906 " clip-rule="nonzero"/></clipPath></defs><path fill="#1e1e1e" d="M 527.296875 18.941406 C 512.550781 10.78125 495.0625 6.777344 474.757812 6.777344 L 409.996094 6.777344 L 409.996094 198.535156 L 474.757812 198.535156 C 495.0625 198.535156 512.625 194.53125 527.296875 186.519531 C 542.042969 178.507812 553.304688 167.230469 561.308594 152.765625 C 569.238281 138.300781 573.238281 121.609375 573.238281 102.691406 C 573.238281 83.777344 569.238281 67.085938 561.308594 52.769531 C 553.378906 38.378906 542.042969 27.175781 527.296875 19.015625 Z M 529.742188 135.035156 C 525 144.308594 517.960938 151.503906 508.476562 156.621094 C 498.992188 161.742188 487.28125 164.265625 473.128906 164.265625 L 446.082031 164.265625 L 446.082031 41.046875 L 473.128906 41.046875 C 487.207031 41.046875 498.992188 43.570312 508.476562 48.6875 C 517.960938 53.808594 525 60.929688 529.742188 70.128906 C 534.484375 79.324219 536.855469 90.15625 536.855469 102.691406 C 536.855469 115.230469 534.484375 125.835938 529.742188 135.109375 Z M 529.742188 135.035156 " fill-opacity="1" fill-rule="nonzero"/><path fill="#1e1e1e" d="M 697.578125 67.011719 C 687.574219 60.78125 675.273438 57.664062 660.675781 57.664062 C 646.078125 57.664062 635.113281 61.003906 624.589844 67.679688 C 614.066406 74.355469 605.769531 83.257812 599.691406 94.3125 C 593.617188 105.363281 590.578125 117.457031 590.578125 130.4375 C 590.578125 143.417969 593.691406 156.769531 599.839844 167.675781 C 605.992188 178.582031 614.4375 187.113281 625.257812 193.417969 C 636.074219 199.648438 648.300781 202.765625 662.011719 202.765625 C 675.71875 202.765625 689.945312 199.5 700.246094 192.972656 C 710.621094 186.445312 718.992188 177.542969 725.367188 166.339844 L 696.984375 152.394531 C 693.800781 157.957031 689.28125 162.558594 683.574219 166.191406 C 677.867188 169.828125 670.828125 171.683594 662.457031 171.683594 C 654.082031 171.683594 648.820312 170.050781 643.039062 166.710938 C 637.261719 163.375 632.667969 158.625 629.257812 152.246094 C 627.109375 148.242188 625.703125 143.566406 624.960938 138.449219 L 727.21875 138.449219 C 727.367188 137.558594 727.589844 136.074219 727.738281 133.996094 C 727.886719 131.921875 728.035156 129.472656 728.035156 126.652344 C 728.035156 113.96875 725.441406 102.394531 720.253906 91.9375 C 715.066406 81.476562 707.507812 73.167969 697.503906 66.863281 Z M 626.367188 113.597656 C 627.109375 111.074219 627.925781 108.703125 629.035156 106.476562 C 632.222656 100.171875 636.667969 95.199219 642.300781 91.640625 C 647.929688 88.078125 654.082031 86.300781 660.898438 86.300781 C 667.714844 86.300781 670.679688 87.113281 674.679688 88.820312 C 678.683594 90.527344 682.089844 92.679688 684.980469 95.347656 C 687.796875 98.019531 690.09375 100.988281 691.652344 104.175781 C 693.28125 107.367188 694.171875 110.480469 694.316406 113.523438 L 626.367188 113.523438 Z M 626.367188 113.597656 " fill-opacity="1" fill-rule="nonzero"/><path fill="#1e1e1e" d="M 805.542969 150.835938 L 803.394531 150.835938 L 768.863281 61.96875 L 729.070312 61.96875 L 786.796875 198.535156 L 821.621094 198.535156 L 879.9375 61.96875 L 840.59375 61.96875 Z M 805.542969 150.835938 " fill-opacity="1" fill-rule="nonzero"/><path fill="#1e1e1e" d="M 897.203125 198.535156 L 933.292969 198.535156 L 933.292969 121.90625 L 1010.058594 121.90625 L 1010.058594 87.632812 L 933.292969 87.632812 L 933.292969 41.046875 L 1018.65625 41.046875 L 1018.65625 6.777344 L 897.203125 6.777344 Z M 897.203125 198.535156 " fill-opacity="1" fill-rule="nonzero"/><path fill="#1e1e1e" d="M 1136.175781 67.011719 C 1126.171875 60.78125 1113.875 57.664062 1099.273438 57.664062 C 1084.675781 57.664062 1073.710938 61.003906 1063.1875 67.679688 C 1052.667969 74.355469 1044.367188 83.257812 1038.289062 94.3125 C 1032.214844 105.363281 1029.175781 117.457031 1029.175781 130.4375 C 1029.175781 143.417969 1032.289062 156.769531 1038.4375 167.675781 C 1044.589844 178.582031 1053.035156 187.113281 1063.855469 193.417969 C 1074.675781 199.648438 1086.902344 202.765625 1100.609375 202.765625 C 1114.316406 202.765625 1128.542969 199.5 1138.84375 192.972656 C 1149.21875 186.445312 1157.59375 177.542969 1163.964844 166.339844 L 1135.585938 152.394531 C 1132.398438 157.957031 1127.878906 162.558594 1122.171875 166.191406 C 1116.464844 169.828125 1109.425781 171.683594 1101.054688 171.683594 C 1092.679688 171.683594 1087.417969 170.050781 1081.640625 166.710938 C 1075.859375 163.375 1071.265625 158.625 1067.855469 152.246094 C 1065.707031 148.242188 1064.300781 143.566406 1063.558594 138.449219 L 1165.816406 138.449219 C 1165.964844 137.558594 1166.1875 136.074219 1166.335938 133.996094 C 1166.484375 131.921875 1166.632812 129.472656 1166.632812 126.652344 C 1166.632812 113.96875 1164.039062 102.394531 1158.851562 91.9375 C 1153.664062 81.476562 1146.105469 73.167969 1136.101562 66.863281 Z M 1065.042969 113.597656 C 1065.78125 111.074219 1066.597656 108.703125 1067.707031 106.476562 C 1070.894531 100.171875 1075.339844 95.199219 1080.972656 91.640625 C 1086.605469 88.078125 1092.753906 86.300781 1099.570312 86.300781 C 1106.390625 86.300781 1109.351562 87.113281 1113.355469 88.820312 C 1117.355469 90.527344 1120.765625 92.679688 1123.652344 95.347656 C 1126.46875 98.019531 1128.765625 100.988281 1130.324219 104.175781 C 1131.953125 107.367188 1132.84375 110.480469 1132.992188 113.523438 L 1065.042969 113.523438 Z M 1065.042969 113.597656 " fill-opacity="1" fill-rule="nonzero"/><path fill="#1e1e1e" d="M 1257.035156 117.085938 L 1236.953125 112.261719 C 1231.988281 111 1227.691406 109.148438 1224.132812 106.625 C 1220.578125 104.101562 1218.800781 101.210938 1218.800781 97.796875 C 1218.800781 94.382812 1220.578125 91.789062 1224.132812 89.488281 C 1227.691406 87.1875 1232.507812 86.003906 1238.582031 86.003906 C 1244.660156 86.003906 1248.585938 87.039062 1253.179688 89.191406 C 1257.703125 91.34375 1261.40625 95.050781 1264.296875 100.46875 L 1294.234375 87.335938 C 1291.046875 80.585938 1286.75 74.949219 1281.414062 70.574219 C 1276.078125 66.195312 1269.707031 62.933594 1262.445312 60.78125 C 1255.109375 58.628906 1246.957031 57.589844 1237.84375 57.589844 C 1228.726562 57.589844 1219.09375 59.296875 1210.945312 62.710938 C 1202.792969 66.121094 1196.421875 70.871094 1191.679688 76.878906 C 1186.9375 82.960938 1184.566406 90.082031 1184.566406 98.316406 C 1184.566406 106.550781 1186.417969 112.113281 1190.046875 117.75 C 1193.679688 123.390625 1198.496094 127.988281 1204.347656 131.699219 C 1210.203125 135.332031 1216.5 137.929688 1223.097656 139.339844 L 1239.175781 142.824219 C 1242.957031 143.566406 1246.585938 144.457031 1250.144531 145.644531 C 1253.699219 146.832031 1256.664062 148.390625 1259.109375 150.464844 C 1261.480469 152.542969 1262.742188 155.363281 1262.742188 158.921875 C 1262.742188 162.484375 1260.441406 167.378906 1255.773438 169.234375 C 1251.105469 171.089844 1245.992188 172.054688 1240.289062 172.054688 C 1234.582031 172.054688 1227.246094 170.421875 1222.132812 167.082031 C 1216.945312 163.746094 1212.871094 158.921875 1209.832031 152.46875 L 1178.5625 166.117188 C 1181.082031 172.71875 1184.859375 178.804688 1190.046875 184.292969 C 1195.234375 189.855469 1201.976562 194.308594 1210.277344 197.71875 C 1218.578125 201.132812 1228.582031 202.839844 1240.363281 202.839844 C 1252.144531 202.839844 1260.8125 200.984375 1269.558594 197.347656 C 1278.300781 193.714844 1285.265625 188.519531 1290.453125 181.84375 C 1295.640625 175.167969 1298.234375 167.304688 1298.234375 158.402344 C 1298.234375 149.5 1294.824219 139.859375 1287.933594 132.664062 C 1281.042969 125.539062 1270.890625 120.347656 1257.332031 117.160156 Z M 1257.035156 117.085938 " fill-opacity="1" fill-rule="nonzero"/><path fill="#1e1e1e" d="M 1392.339844 166.5625 C 1389.820312 167.378906 1387.152344 167.75 1384.339844 167.75 C 1378.261719 167.75 1373.890625 166.191406 1371.222656 163.078125 C 1368.554688 159.960938 1367.222656 155.066406 1367.222656 148.464844 L 1367.222656 91.9375 L 1400.640625 91.9375 L 1400.640625 61.96875 L 1367.222656 61.96875 L 1367.222656 23.394531 L 1332.171875 23.394531 L 1332.171875 61.96875 L 1308.386719 61.96875 L 1308.386719 91.9375 L 1332.171875 91.9375 L 1332.171875 154.84375 C 1332.171875 169.160156 1336.171875 180.359375 1344.175781 188.445312 C 1352.179688 196.605469 1363.292969 200.613281 1377.371094 200.613281 C 1391.453125 200.613281 1385.820312 200.242188 1389.820312 199.425781 C 1393.824219 198.609375 1397.824219 197.496094 1401.753906 196.085938 L 1401.753906 161.816406 C 1397.972656 164.117188 1394.859375 165.671875 1392.414062 166.488281 Z M 1392.339844 166.5625 " fill-opacity="1" fill-rule="nonzero"/><path fill="#ea4335" d="M 21.121094 72.417969 L 99.953125 15.710938 C 100.933594 15.007812 101.945312 14.351562 102.988281 13.746094 C 104.03125 13.140625 105.101562 12.589844 106.199219 12.089844 C 107.296875 11.589844 108.417969 11.144531 109.558594 10.753906 C 110.703125 10.367188 111.859375 10.03125 113.035156 9.757812 C 114.207031 9.480469 115.394531 9.265625 116.589844 9.105469 C 117.785156 8.945312 118.984375 8.847656 120.191406 8.804688 C 121.394531 8.761719 122.601562 8.78125 123.804688 8.859375 C 125.007812 8.9375 126.203125 9.074219 127.394531 9.269531 C 128.585938 9.464844 129.761719 9.714844 130.929688 10.027344 C 132.09375 10.339844 133.242188 10.707031 134.371094 11.128906 C 135.5 11.554688 136.605469 12.03125 137.6875 12.5625 C 138.769531 13.097656 139.824219 13.679688 140.851562 14.316406 C 141.875 14.953125 142.867188 15.640625 143.824219 16.371094 C 144.78125 17.105469 145.703125 17.886719 146.582031 18.710938 C 147.464844 19.535156 148.304688 20.398438 149.101562 21.304688 C 149.898438 22.214844 150.648438 23.15625 151.351562 24.136719 L 151.394531 24.199219 C 152.097656 25.179688 152.75 26.191406 153.355469 27.234375 C 153.960938 28.28125 154.511719 29.351562 155.011719 30.453125 C 155.511719 31.550781 155.957031 32.671875 156.34375 33.816406 C 156.734375 34.957031 157.066406 36.117188 157.339844 37.292969 C 157.617188 38.46875 157.832031 39.65625 157.992188 40.851562 C 158.152344 42.046875 158.25 43.25 158.292969 44.457031 C 158.332031 45.664062 158.316406 46.871094 158.238281 48.074219 C 158.160156 49.28125 158.023438 50.476562 157.832031 51.667969 C 157.636719 52.863281 157.382812 54.039062 157.070312 55.207031 C 156.761719 56.375 156.394531 57.523438 155.972656 58.652344 C 155.546875 59.785156 155.070312 60.890625 154.539062 61.976562 C 154.003906 63.058594 153.421875 64.113281 152.785156 65.140625 C 152.152344 66.164062 151.464844 67.160156 150.734375 68.117188 C 150 69.078125 149.222656 69.996094 148.398438 70.878906 C 147.574219 71.761719 146.710938 72.601562 145.804688 73.398438 C 144.898438 74.195312 143.957031 74.945312 142.976562 75.652344 L 64.148438 132.359375 C 63.167969 133.0625 62.15625 133.71875 61.113281 134.324219 C 60.070312 134.929688 58.996094 135.480469 57.898438 135.980469 C 56.800781 136.480469 55.683594 136.925781 54.539062 137.316406 C 53.398438 137.703125 52.242188 138.039062 51.066406 138.3125 C 49.890625 138.589844 48.707031 138.804688 47.511719 138.964844 C 46.316406 139.125 45.113281 139.226562 43.910156 139.265625 C 42.703125 139.308594 41.5 139.289062 40.296875 139.210938 C 39.09375 139.132812 37.894531 138.996094 36.707031 138.800781 C 35.515625 138.605469 34.335938 138.355469 33.171875 138.042969 C 32.007812 137.730469 30.859375 137.363281 29.730469 136.941406 C 28.601562 136.515625 27.492188 136.039062 26.410156 135.507812 C 25.328125 134.972656 24.273438 134.390625 23.25 133.753906 C 22.226562 133.117188 21.234375 132.429688 20.277344 131.699219 C 19.316406 130.964844 18.398438 130.183594 17.515625 129.359375 C 16.636719 128.535156 15.796875 127.671875 15 126.765625 C 14.203125 125.855469 13.453125 124.914062 12.75 123.933594 L 12.707031 123.871094 C 12.003906 122.890625 11.347656 121.878906 10.742188 120.835938 C 10.140625 119.789062 9.585938 118.71875 9.089844 117.617188 C 8.589844 116.519531 8.144531 115.398438 7.753906 114.253906 C 7.367188 113.113281 7.035156 111.953125 6.757812 110.777344 C 6.484375 109.601562 6.265625 108.414062 6.105469 107.21875 C 5.949219 106.023438 5.847656 104.820312 5.808594 103.613281 C 5.765625 102.40625 5.785156 101.199219 5.863281 99.996094 C 5.9375 98.789062 6.074219 97.59375 6.269531 96.402344 C 6.464844 95.210938 6.71875 94.03125 7.027344 92.863281 C 7.339844 91.695312 7.707031 90.546875 8.128906 89.417969 C 8.550781 88.285156 9.03125 87.179688 9.5625 86.09375 C 10.09375 85.011719 10.679688 83.957031 11.3125 82.929688 C 11.949219 81.90625 12.632812 80.910156 13.367188 79.953125 C 14.101562 78.992188 14.878906 78.074219 15.703125 77.191406 C 16.523438 76.308594 17.390625 75.46875 18.292969 74.671875 C 19.199219 73.875 20.144531 73.125 21.121094 72.417969 Z M 21.121094 72.417969 " fill-opacity="1" fill-rule="nonzero"/><g clip-path="url(#937e4c73ac)"><path stroke-linecap="butt" transform="matrix(0.601755, -0.432879, 0.432405, 0.602415, -27.713642, 61.967533)" fill="none" stroke-linejoin="miter" d="M 45.298593 49.897895 L 176.300806 49.899775 C 177.928435 49.902169 179.553438 49.980488 181.172742 50.139008 C 182.792046 50.297527 184.398297 50.537448 185.994569 50.854494 C 187.590841 51.171539 189.169779 51.56691 190.727102 52.037529 C 192.285634 52.515501 193.817062 53.058292 195.32073 53.684885 C 196.823189 54.304126 198.293608 55.004092 199.729569 55.770078 C 201.16553 56.536064 202.556607 57.373546 203.913227 58.277049 C 205.265565 59.177475 206.57302 60.149398 207.830101 61.182389 C 209.087182 62.21538 210.28961 63.306362 211.441664 64.458413 C 212.593718 65.610463 213.685629 66.810077 214.719813 68.071958 C 215.749716 69.330763 216.719475 70.637132 217.624811 71.987987 C 218.527073 73.343118 219.363704 74.735384 220.131629 76.169061 C 220.896481 77.607014 221.594493 79.074748 222.219518 80.580818 C 222.840263 82.083811 223.386813 83.617786 223.861034 85.171115 C 224.332182 86.728719 224.727927 88.309954 225.042781 89.904389 C 225.361916 91.5019 225.603232 93.108337 225.763657 94.727974 C 225.921008 96.351887 226.002406 97.973096 226.001704 99.600154 L 225.999629 99.702412 C 225.998927 101.32947 225.91799 102.950748 225.761098 104.569321 C 225.601134 106.192171 225.3628 107.797612 225.04423 109.397272 C 224.728733 110.992656 224.334866 112.570631 223.858347 114.128122 C 223.389183 115.684412 222.840439 117.21594 222.21519 118.718431 C 221.594222 120.223998 220.89554 121.693175 220.130779 123.127838 C 219.366017 124.5625 218.526615 125.956497 217.624206 127.311703 C 216.717517 128.663833 215.750894 129.972896 214.718848 131.228464 C 213.683729 132.488308 212.593615 133.689181 211.446639 134.84271 C 210.29231 135.99744 209.08913 137.084646 207.827882 138.117156 C 206.570914 139.152743 205.265096 140.120805 203.914709 141.02442 C 202.556968 141.929234 201.165084 142.764124 199.72863 143.534566 C 198.290969 144.297656 196.823445 144.993898 195.317498 145.617139 C 193.818904 146.23918 192.281887 146.78822 190.728507 147.26066 C 189.167773 147.7343 187.593749 148.127063 185.99601 148.444425 C 184.39827 148.761787 182.791522 149.001348 181.171484 149.160032 C 179.551445 149.318717 177.929752 149.3984 176.299051 149.400282 L 45.301119 149.401478 C 43.67349 149.399084 42.048487 149.320765 40.429183 149.162246 C 38.809878 149.003726 37.199346 148.760729 35.603074 148.443684 C 34.006803 148.126638 32.432146 147.734344 30.870541 147.260648 C 29.31629 146.785753 27.784862 146.242961 26.281195 145.616368 C 24.774454 144.994051 23.308316 144.297162 21.872355 143.531176 C 20.436394 142.76519 19.037963 141.928907 17.688698 141.024205 C 16.332078 140.120702 15.028905 139.151855 13.771823 138.118865 C 12.514742 137.085874 11.308034 135.991815 10.16026 134.842841 C 9.008206 133.69079 7.912015 132.488101 6.882112 131.229295 C 5.852209 129.97049 4.882449 128.664122 3.977114 127.313267 C 3.074851 125.958135 2.23394 124.562793 1.466015 123.129116 C 0.701162 121.691163 0.00315048 120.223429 -0.617594 118.720436 C -1.238339 117.217442 -1.784889 115.683467 -2.25911 114.130139 C -2.734539 112.569458 -3.126003 110.9913 -3.445138 109.393788 C -3.759992 107.799353 -4.001308 106.192917 -4.161732 104.57328 C -4.319084 102.949366 -4.400482 101.328157 -4.399779 99.701099 L -4.397705 99.598841 C -4.397003 97.971783 -4.320347 96.34743 -4.163455 94.728856 C -3.99921 93.109083 -3.765157 91.500566 -3.442306 89.903981 C -3.126809 88.308597 -2.732942 86.730622 -2.260704 85.170056 C -1.787258 83.616842 -1.238515 82.085313 -0.617547 80.579746 C 0.00770228 79.077255 0.702103 77.605002 1.466865 76.17034 C 2.235907 74.738753 3.071028 73.34168 3.977718 71.989551 C 4.880126 70.634345 5.851031 69.328357 6.883076 68.07279 C 7.913914 66.809869 9.004029 65.608996 10.155285 64.458543 C 11.306541 63.308089 12.512794 62.216607 13.769761 61.181021 C 15.03101 60.148511 16.336828 59.180448 17.687215 58.276834 C 19.040675 57.368943 20.43684 56.537129 21.873294 55.766687 C 23.306675 55.000521 24.778479 54.307356 26.280146 53.681038 C 27.78302 53.062073 29.315757 52.509957 30.873418 52.040593 C 32.434151 51.566953 34.008175 51.174191 35.605914 50.856829 C 37.199373 50.53639 38.810403 50.299905 40.42616 50.138145 C 42.046198 49.979461 43.672172 49.902854 45.298593 49.897895 Z M 45.298593 49.897895 " stroke="#1e1e1e" stroke-width="9.6" stroke-opacity="1" stroke-miterlimit="10"/></g><path fill="#4285f4" d="M 12.710938 80.914062 L 12.753906 80.851562 C 13.457031 79.871094 14.207031 78.929688 15.003906 78.023438 C 15.800781 77.113281 16.640625 76.25 17.523438 75.425781 C 18.402344 74.601562 19.324219 73.820312 20.28125 73.089844 C 21.238281 72.355469 22.230469 71.667969 23.253906 71.03125 C 24.28125 70.398438 25.332031 69.8125 26.417969 69.28125 C 27.5 68.746094 28.605469 68.269531 29.734375 67.84375 C 30.863281 67.421875 32.011719 67.054688 33.175781 66.742188 C 34.34375 66.429688 35.519531 66.179688 36.710938 65.984375 C 37.898438 65.789062 39.097656 65.652344 40.300781 65.574219 C 41.503906 65.496094 42.710938 65.480469 43.914062 65.519531 C 45.121094 65.5625 46.320312 65.660156 47.515625 65.820312 C 48.710938 65.980469 49.898438 66.195312 51.070312 66.472656 C 52.246094 66.75 53.402344 67.082031 54.546875 67.472656 C 55.6875 67.859375 56.804688 68.304688 57.90625 68.804688 C 59.003906 69.304688 60.074219 69.855469 61.117188 70.460938 C 62.160156 71.066406 63.171875 71.722656 64.152344 72.425781 L 142.980469 129.132812 C 143.960938 129.839844 144.902344 130.589844 145.808594 131.386719 C 146.714844 132.183594 147.582031 133.023438 148.402344 133.90625 C 149.226562 134.789062 150.003906 135.710938 150.738281 136.667969 C 151.472656 137.628906 152.15625 138.621094 152.792969 139.644531 C 153.425781 140.671875 154.011719 141.726562 154.542969 142.8125 C 155.074219 143.894531 155.550781 145 155.976562 146.132812 C 156.398438 147.261719 156.765625 148.410156 157.078125 149.578125 C 157.386719 150.746094 157.640625 151.925781 157.835938 153.117188 C 158.03125 154.308594 158.167969 155.507812 158.242188 156.710938 C 158.320312 157.917969 158.339844 159.121094 158.296875 160.328125 C 158.257812 161.535156 158.15625 162.738281 157.996094 163.933594 C 157.839844 165.132812 157.621094 166.316406 157.347656 167.492188 C 157.070312 168.667969 156.738281 169.828125 156.347656 170.972656 C 155.960938 172.113281 155.515625 173.234375 155.015625 174.332031 C 154.515625 175.433594 153.964844 176.503906 153.359375 177.550781 C 152.757812 178.59375 152.101562 179.609375 151.398438 180.589844 L 151.355469 180.648438 C 150.652344 181.628906 149.902344 182.574219 149.105469 183.480469 C 148.308594 184.386719 147.46875 185.25 146.589844 186.074219 C 145.707031 186.902344 144.785156 187.679688 143.828125 188.414062 C 142.871094 189.148438 141.878906 189.832031 140.855469 190.46875 C 139.828125 191.105469 138.777344 191.6875 137.695312 192.222656 C 136.609375 192.753906 135.503906 193.234375 134.375 193.65625 C 133.246094 194.082031 132.097656 194.449219 130.933594 194.757812 C 129.769531 195.070312 128.589844 195.324219 127.398438 195.519531 C 126.210938 195.714844 125.011719 195.847656 123.808594 195.925781 C 122.605469 196.003906 121.402344 196.023438 120.195312 195.980469 C 118.988281 195.941406 117.789062 195.839844 116.59375 195.679688 C 115.398438 195.523438 114.210938 195.304688 113.039062 195.027344 C 111.863281 194.753906 110.707031 194.421875 109.566406 194.03125 C 108.421875 193.640625 107.304688 193.195312 106.207031 192.695312 C 105.105469 192.195312 104.035156 191.644531 102.992188 191.039062 C 101.949219 190.433594 100.9375 189.777344 99.957031 189.074219 L 21.128906 132.367188 C 20.148438 131.664062 19.207031 130.910156 18.300781 130.113281 C 17.394531 129.316406 16.53125 128.476562 15.707031 127.59375 C 14.882812 126.710938 14.105469 125.792969 13.371094 124.832031 C 12.636719 123.875 11.953125 122.882812 11.320312 121.855469 C 10.683594 120.828125 10.097656 119.773438 9.566406 118.691406 C 9.035156 117.605469 8.558594 116.5 8.132812 115.367188 C 7.710938 114.238281 7.34375 113.089844 7.03125 111.921875 C 6.722656 110.757812 6.46875 109.578125 6.273438 108.386719 C 6.078125 107.195312 5.945312 105.996094 5.867188 104.789062 C 5.789062 103.585938 5.769531 102.378906 5.8125 101.171875 C 5.851562 99.964844 5.953125 98.765625 6.113281 97.566406 C 6.269531 96.371094 6.488281 95.183594 6.761719 94.007812 C 7.039062 92.832031 7.371094 91.671875 7.761719 90.53125 C 8.148438 89.386719 8.59375 88.265625 9.09375 87.167969 C 9.59375 86.066406 10.144531 84.996094 10.75 83.953125 C 11.351562 82.90625 12.007812 81.894531 12.710938 80.914062 Z M 12.710938 80.914062 " fill-opacity="1" fill-rule="nonzero"/><g clip-path="url(#a888599523)"><path stroke-linecap="butt" transform="matrix(0.432405, -0.602415, 0.601755, 0.432879, -71.802997, 121.238175)" fill="none" stroke-linejoin="miter" d="M 110.698874 60.90057 L 110.801132 60.898495 C 112.42819 60.897793 114.049399 60.979191 115.669036 61.139615 C 117.29295 61.296967 118.899386 61.538283 120.496897 61.857418 C 122.091333 62.172272 123.672567 62.568017 125.225895 63.042238 C 126.7835 63.513386 128.317475 64.059936 129.820468 64.680681 C 131.322261 65.308779 132.791196 65.999437 134.227949 66.771643 C 135.665902 67.536495 137.058168 68.373126 138.413299 69.275388 C 139.764155 70.180724 141.070523 71.150483 142.329328 72.180386 C 143.59121 73.21457 144.790823 74.306481 145.942874 75.458535 C 147.091848 76.606308 148.185907 77.813016 149.218897 79.070098 C 150.251888 80.327179 151.219535 81.637707 152.124238 82.986972 C 153.02774 84.343592 153.865223 85.734669 154.631209 87.17063 C 155.397194 88.606591 156.09716 90.07701 156.716401 91.579469 C 157.338718 93.08621 157.885786 94.614565 158.359481 96.17617 C 158.834377 97.73042 159.226671 99.305077 159.546793 100.90563 C 159.863838 102.501902 160.103759 104.108153 160.262279 105.727457 C 160.420798 107.346761 160.499117 108.971764 160.501511 110.599393 L 160.500315 241.597325 C 160.498433 243.228027 160.418749 244.84972 160.260065 246.469758 C 160.101381 248.089796 159.864896 249.700826 159.544458 251.294284 C 159.227096 252.892024 158.830057 254.46912 158.360693 256.026781 C 157.887053 257.587515 157.339213 259.117179 156.720248 260.620053 C 156.093931 262.12172 155.400765 263.593524 154.630323 265.029978 C 153.864157 266.463359 153.029267 267.855243 152.124453 269.212984 C 151.220838 270.563371 150.252776 271.869189 149.220265 273.130438 C 148.184679 274.387405 147.093197 275.593657 145.942743 276.744914 C 144.79229 277.89617 143.587141 278.989358 142.328497 280.017123 C 141.068652 281.052241 139.766942 282.020072 138.411736 282.922481 C 137.059606 283.829171 135.662533 284.664292 134.227871 285.429053 C 132.792008 286.201168 131.324031 286.892497 129.82154 287.517746 C 128.315973 288.138714 126.784444 288.687457 125.223878 289.159695 C 123.670664 289.633141 122.092689 290.027008 120.497305 290.342505 C 118.897644 290.661074 117.292204 290.899409 115.669354 291.059373 C 114.053857 291.220545 112.425227 291.300275 110.798169 291.300977 L 110.700187 291.299978 C 109.073129 291.30068 107.447644 291.222356 105.828006 291.061931 C 104.208369 290.901507 102.601933 290.660191 101.007498 290.345337 C 99.40571 290.029275 97.828752 289.630457 96.271147 289.159309 C 94.713543 288.688161 93.183844 288.138538 91.680851 287.517793 C 90.174781 286.892767 88.710123 286.199037 87.27217 285.434184 C 85.835417 284.661978 84.438875 283.828421 83.08802 282.923085 C 81.732888 282.020823 80.42652 281.051063 79.171991 280.018087 C 77.913186 278.988184 76.70622 277.895065 75.554169 276.743011 C 74.405195 275.595238 73.315413 274.385457 72.282422 273.128376 C 71.249431 271.871294 70.280584 270.568121 69.377081 269.211501 C 68.469303 267.857954 67.636096 266.463805 66.870111 265.027844 C 66.099848 263.594955 65.404159 262.121464 64.784918 260.619004 C 64.158325 259.115336 63.611257 257.586981 63.140638 256.029658 C 62.666942 254.468053 62.274648 252.893396 61.957603 251.297125 C 61.637481 249.696572 61.39756 248.09032 61.23904 246.471016 C 61.080521 244.851712 61.002202 243.226709 60.999808 241.59908 L 61.001004 110.601148 C 60.99861 108.973519 61.08257 107.348754 61.241254 105.728715 C 61.399938 104.108677 61.639499 102.501929 61.956861 100.904189 C 62.274224 99.306449 62.666986 97.732426 63.140626 96.171692 C 63.60999 94.614031 64.15783 93.084368 64.784147 91.582701 C 65.407388 90.076754 66.100554 88.604949 66.86672 87.171569 C 67.637162 85.735115 68.472052 84.343231 69.376867 82.98549 C 70.280481 81.635102 71.248543 80.329285 72.281054 79.068036 C 73.312364 77.814141 74.403846 76.607889 75.5543 75.456633 C 76.704753 74.305376 77.912978 73.21647 79.172822 72.181351 C 80.42839 71.149305 81.734377 70.178401 83.089583 69.275992 C 84.441713 68.369303 85.83451 67.537254 87.273449 66.76942 C 88.705035 66.000378 90.177288 65.305977 91.679779 64.680728 C 93.185346 64.05976 94.716875 63.511016 96.273165 63.041851 C 97.830655 62.565333 99.40863 62.171466 101.004014 61.855969 C 102.603675 61.537399 104.209115 61.299065 105.827689 61.142173 C 107.447462 60.977928 109.071816 60.901272 110.698874 60.90057 Z M 110.698874 60.90057 " stroke="#1e1e1e" stroke-width="9.6" stroke-opacity="1" stroke-miterlimit="10"/></g><path fill="#f9ab00" d="M 211.429688 129.085938 L 290.261719 72.378906 C 291.242188 71.675781 292.253906 71.019531 293.296875 70.414062 C 294.339844 69.808594 295.410156 69.257812 296.507812 68.757812 C 297.605469 68.257812 298.726562 67.8125 299.867188 67.421875 C 301.007812 67.03125 302.167969 66.699219 303.339844 66.425781 C 304.515625 66.148438 305.699219 65.929688 306.898438 65.773438 C 308.09375 65.613281 309.292969 65.511719 310.5 65.472656 C 311.703125 65.429688 312.910156 65.449219 314.113281 65.527344 C 315.316406 65.605469 316.511719 65.738281 317.703125 65.933594 C 318.894531 66.128906 320.070312 66.382812 321.238281 66.695312 C 322.402344 67.003906 323.550781 67.371094 324.679688 67.796875 C 325.808594 68.21875 326.914062 68.699219 327.996094 69.230469 C 329.078125 69.765625 330.132812 70.347656 331.15625 70.984375 C 332.183594 71.621094 333.175781 72.304688 334.132812 73.039062 C 335.089844 73.773438 336.011719 74.550781 336.890625 75.375 C 337.773438 76.199219 338.613281 77.066406 339.40625 77.972656 C 340.203125 78.878906 340.953125 79.824219 341.660156 80.804688 L 341.703125 80.863281 C 342.40625 81.84375 343.058594 82.859375 343.664062 83.902344 C 344.269531 84.949219 344.820312 86.019531 345.320312 87.117188 C 345.820312 88.21875 346.261719 89.339844 346.652344 90.480469 C 347.042969 91.625 347.375 92.785156 347.648438 93.960938 C 347.925781 95.136719 348.140625 96.320312 348.300781 97.519531 C 348.460938 98.714844 348.558594 99.917969 348.601562 101.125 C 348.640625 102.332031 348.625 103.535156 348.546875 104.742188 C 348.46875 105.945312 348.332031 107.144531 348.136719 108.335938 C 347.945312 109.527344 347.691406 110.707031 347.378906 111.875 C 347.070312 113.042969 346.703125 114.191406 346.277344 115.320312 C 345.855469 116.449219 345.378906 117.558594 344.84375 118.640625 C 344.3125 119.726562 343.730469 120.78125 343.09375 121.808594 C 342.457031 122.832031 341.773438 123.824219 341.042969 124.785156 C 340.308594 125.742188 339.53125 126.664062 338.707031 127.546875 C 337.882812 128.429688 337.019531 129.269531 336.113281 130.066406 C 335.207031 130.863281 334.265625 131.613281 333.285156 132.320312 L 254.457031 189.027344 C 253.476562 189.730469 252.464844 190.386719 251.421875 190.992188 C 250.375 191.597656 249.304688 192.148438 248.207031 192.648438 C 247.109375 193.148438 245.988281 193.59375 244.847656 193.980469 C 243.707031 194.371094 242.546875 194.703125 241.375 194.980469 C 240.199219 195.253906 239.015625 195.472656 237.820312 195.632812 C 236.625 195.792969 235.421875 195.890625 234.21875 195.933594 C 233.011719 195.972656 231.808594 195.957031 230.605469 195.878906 C 229.402344 195.800781 228.203125 195.664062 227.011719 195.46875 C 225.824219 195.273438 224.644531 195.019531 223.480469 194.710938 C 222.3125 194.398438 221.167969 194.03125 220.039062 193.609375 C 218.90625 193.183594 217.800781 192.707031 216.71875 192.171875 C 215.636719 191.640625 214.582031 191.054688 213.558594 190.421875 C 212.53125 189.785156 211.542969 189.097656 210.582031 188.363281 C 209.625 187.632812 208.707031 186.851562 207.824219 186.027344 C 206.945312 185.203125 206.105469 184.339844 205.308594 183.429688 C 204.511719 182.523438 203.761719 181.582031 203.058594 180.601562 L 203.015625 180.539062 C 202.308594 179.558594 201.65625 178.546875 201.050781 177.5 C 200.449219 176.457031 199.894531 175.382812 199.394531 174.285156 C 198.898438 173.1875 198.453125 172.066406 198.0625 170.921875 C 197.675781 169.78125 197.34375 168.621094 197.066406 167.445312 C 196.792969 166.269531 196.574219 165.082031 196.414062 163.886719 C 196.257812 162.6875 196.15625 161.488281 196.113281 160.28125 C 196.074219 159.074219 196.09375 157.867188 196.167969 156.664062 C 196.246094 155.457031 196.382812 154.257812 196.578125 153.066406 C 196.773438 151.875 197.027344 150.695312 197.335938 149.53125 C 197.648438 148.363281 198.015625 147.214844 198.4375 146.085938 C 198.859375 144.953125 199.339844 143.847656 199.871094 142.761719 C 200.402344 141.679688 200.984375 140.625 201.621094 139.597656 C 202.257812 138.570312 202.941406 137.578125 203.675781 136.621094 C 204.40625 135.660156 205.1875 134.742188 206.007812 133.859375 C 206.832031 132.976562 207.695312 132.136719 208.601562 131.339844 C 209.507812 130.542969 210.453125 129.789062 211.429688 129.085938 Z M 211.429688 129.085938 " fill-opacity="1" fill-rule="nonzero"/><g clip-path="url(#517fec3bd7)"><path stroke-linecap="butt" transform="matrix(0.601755, -0.432879, 0.432405, 0.602415, -24.971867, 183.773493)" fill="none" stroke-linejoin="miter" d="M 302.098371 126.299236 L 433.100584 126.301117 C 434.728213 126.303511 436.353216 126.381829 437.97252 126.540349 C 439.591824 126.698868 441.198075 126.938789 442.794347 127.255835 C 444.390619 127.57288 445.969557 127.968251 447.52688 128.43887 C 449.084204 128.909489 450.61684 129.459634 452.116227 130.083151 C 453.622967 130.705467 455.092178 131.398081 456.529347 132.171419 C 457.965308 132.937405 459.359458 133.770611 460.713005 134.67839 C 462.065343 135.578816 463.372798 136.550739 464.629879 137.58373 C 465.886961 138.616721 467.092461 139.703427 468.244515 140.855478 C 469.396569 142.007528 470.485407 143.211418 471.519591 144.473299 C 472.552566 145.727828 473.522326 147.034197 474.424589 148.389328 C 475.329924 149.740183 476.163482 151.136726 476.931407 152.570402 C 477.696259 154.008355 478.394271 155.47609 479.015015 156.979083 C 479.640041 158.485152 480.189664 160.014851 480.660812 161.572456 C 481.13196 163.130061 481.530778 164.707019 481.845632 166.301454 C 482.164767 167.898965 482.40301 169.509678 482.559154 171.126239 C 482.719578 172.745876 482.797903 174.371361 482.801482 176.001495 L 482.80248 176.099477 C 482.801778 177.726535 482.717768 179.352089 482.560877 180.970662 C 482.400912 182.593512 482.162578 184.198953 481.847081 185.794337 C 481.528511 187.393998 481.130363 188.968897 480.661198 190.525187 C 480.188961 192.085753 479.640217 193.617281 479.014968 195.119772 C 478.394 196.625339 477.698391 198.09024 476.930557 199.529179 C 476.165795 200.963842 475.326393 202.357838 474.423984 203.713044 C 473.517295 205.065174 472.553745 206.369961 471.518626 207.629805 C 470.48658 208.885373 469.393393 210.090522 468.242136 211.240976 C 467.095161 212.394505 465.888908 213.485987 464.62766 214.518498 C 463.370692 215.554084 462.064875 216.522147 460.710206 217.422685 C 459.359819 218.326299 457.964862 219.165466 456.5272 219.928555 C 455.090747 220.698998 453.623223 221.395239 452.117276 222.01848 C 450.614401 222.637445 449.084737 223.185285 447.528285 223.662001 C 445.970624 224.131365 444.393528 224.528404 442.795788 224.845766 C 441.198048 225.163128 439.5913 225.402689 437.971262 225.561374 C 436.351223 225.720058 434.72953 225.799741 433.098829 225.801624 L 302.100897 225.802819 C 300.473268 225.800425 298.848265 225.722107 297.228961 225.563587 C 295.605376 225.401991 293.999124 225.162071 292.402852 224.845025 C 290.806581 224.527979 289.227643 224.132609 287.673392 223.657713 C 286.116068 223.187094 284.583432 222.63695 283.080973 222.017709 C 281.577305 221.391116 280.108094 220.698503 278.672133 219.932517 C 277.236172 219.166531 275.840814 218.325973 274.488476 217.425546 C 273.134929 216.517767 271.828683 215.553197 270.571601 214.520206 C 269.31452 213.487215 268.107812 212.393156 266.955758 211.241106 C 265.807984 210.092132 264.714865 208.885166 263.68189 207.630637 C 262.647706 206.368755 261.682227 205.065463 260.776892 203.714608 C 259.870348 202.3564 259.033718 200.964134 258.268865 199.526181 C 257.50094 198.092505 256.806001 196.620494 256.182184 195.121777 C 255.557158 193.615708 255.014889 192.084809 254.53946 190.524128 C 254.065239 188.970799 253.673775 187.392641 253.35464 185.79513 C 253.039786 184.200694 252.79847 182.594258 252.641119 180.970345 C 252.480694 179.350708 252.399296 177.729498 252.399999 176.102441 L 252.402073 176.000182 C 252.398494 174.370048 252.479431 172.748771 252.639396 171.125921 C 252.800568 169.510424 253.037694 167.897631 253.353191 166.302246 C 253.672969 164.709938 254.066836 163.131963 254.539074 161.571397 C 255.01252 160.018183 255.561263 158.486655 256.182231 156.981088 C 256.80748 155.478597 257.501881 154.006344 258.266643 152.571681 C 259.038758 151.135818 259.870806 149.743022 260.773215 148.387816 C 261.679905 147.035686 262.650809 145.729699 263.678573 144.471055 C 264.713692 143.21121 265.80688 142.006062 266.958136 140.855608 C 268.109392 139.705154 269.315645 138.613672 270.569539 137.582362 C 271.830788 136.549852 273.136606 135.581789 274.486993 134.678175 C 275.840453 133.770284 277.236618 132.93847 278.673072 132.168028 C 280.106453 131.401862 281.573976 130.705621 283.079924 130.08238 C 284.585871 129.459139 286.115535 128.911298 287.673196 128.441935 C 289.229648 127.965219 290.807953 127.575532 292.401412 127.255094 C 293.999151 126.937732 295.6059 126.69817 297.225938 126.539486 C 298.845976 126.380802 300.475023 126.299919 302.098371 126.299236 Z M 302.098371 126.299236 " stroke="#1e1e1e" stroke-width="9.6" stroke-opacity="1" stroke-miterlimit="10"/></g><path fill="#34a853" d="M 203.007812 24.21875 L 203.050781 24.160156 C 203.753906 23.179688 204.503906 22.234375 205.300781 21.328125 C 206.097656 20.421875 206.9375 19.554688 207.816406 18.730469 C 208.699219 17.90625 209.621094 17.128906 210.578125 16.394531 C 211.535156 15.660156 212.527344 14.976562 213.550781 14.339844 C 214.578125 13.703125 215.628906 13.117188 216.714844 12.585938 C 217.796875 12.054688 218.902344 11.574219 220.03125 11.152344 C 221.160156 10.726562 222.308594 10.359375 223.472656 10.046875 C 224.636719 9.738281 225.816406 9.484375 227.007812 9.289062 C 228.195312 9.09375 229.394531 8.957031 230.597656 8.878906 C 231.800781 8.804688 233.007812 8.785156 234.210938 8.828125 C 235.417969 8.867188 236.617188 8.96875 237.8125 9.125 C 239.007812 9.285156 240.195312 9.503906 241.367188 9.777344 C 242.542969 10.054688 243.699219 10.386719 244.84375 10.777344 C 245.984375 11.167969 247.101562 11.613281 248.203125 12.109375 C 249.300781 12.609375 250.371094 13.164062 251.414062 13.769531 C 252.457031 14.375 253.46875 15.027344 254.449219 15.734375 L 333.277344 72.441406 C 334.257812 73.144531 335.199219 73.894531 336.105469 74.691406 C 337.011719 75.492188 337.878906 76.332031 338.699219 77.210938 C 339.523438 78.09375 340.300781 79.015625 341.035156 79.976562 C 341.769531 80.933594 342.453125 81.925781 343.085938 82.953125 C 343.722656 83.980469 344.308594 85.035156 344.839844 86.117188 C 345.371094 87.199219 345.847656 88.308594 346.273438 89.4375 C 346.695312 90.570312 347.0625 91.71875 347.375 92.886719 C 347.683594 94.050781 347.9375 95.230469 348.132812 96.421875 C 348.328125 97.613281 348.464844 98.8125 348.539062 100.015625 C 348.617188 101.222656 348.636719 102.429688 348.59375 103.636719 C 348.554688 104.839844 348.453125 106.042969 348.292969 107.242188 C 348.136719 108.4375 347.917969 109.625 347.644531 110.800781 C 347.367188 111.976562 347.035156 113.132812 346.644531 114.277344 C 346.257812 115.417969 345.8125 116.539062 345.3125 117.640625 C 344.8125 118.738281 344.261719 119.8125 343.65625 120.855469 C 343.054688 121.902344 342.398438 122.914062 341.695312 123.894531 L 341.652344 123.953125 C 340.949219 124.933594 340.199219 125.878906 339.402344 126.785156 C 338.605469 127.691406 337.765625 128.558594 336.886719 129.382812 C 336.003906 130.207031 335.082031 130.984375 334.125 131.71875 C 333.167969 132.453125 332.175781 133.136719 331.152344 133.773438 C 330.125 134.410156 329.074219 134.996094 327.988281 135.527344 C 326.90625 136.0625 325.800781 136.539062 324.671875 136.960938 C 323.542969 137.386719 322.394531 137.753906 321.230469 138.066406 C 320.066406 138.375 318.886719 138.628906 317.695312 138.824219 C 316.507812 139.019531 315.308594 139.15625 314.105469 139.234375 C 312.902344 139.308594 311.695312 139.328125 310.492188 139.289062 C 309.285156 139.246094 308.085938 139.144531 306.890625 138.988281 C 305.695312 138.828125 304.507812 138.609375 303.335938 138.335938 C 302.160156 138.058594 301.003906 137.726562 299.863281 137.335938 C 298.71875 136.945312 297.601562 136.503906 296.503906 136.003906 C 295.402344 135.503906 294.332031 134.949219 293.289062 134.34375 C 292.246094 133.738281 291.234375 133.085938 290.253906 132.378906 L 211.425781 75.671875 C 210.445312 74.96875 209.503906 74.21875 208.597656 73.421875 C 207.691406 72.625 206.828125 71.785156 206.003906 70.902344 C 205.179688 70.019531 204.402344 69.097656 203.667969 68.140625 C 202.933594 67.179688 202.25 66.1875 201.617188 65.160156 C 200.980469 64.136719 200.394531 63.082031 199.863281 61.996094 C 199.332031 60.914062 198.855469 59.804688 198.429688 58.675781 C 198.007812 57.542969 197.640625 56.394531 197.328125 55.230469 C 197.019531 54.0625 196.765625 52.882812 196.570312 51.691406 C 196.375 50.5 196.242188 49.300781 196.164062 48.097656 C 196.085938 46.890625 196.066406 45.6875 196.109375 44.480469 C 196.148438 43.273438 196.25 42.070312 196.410156 40.875 C 196.566406 39.675781 196.785156 38.488281 197.058594 37.316406 C 197.335938 36.140625 197.667969 34.980469 198.058594 33.835938 C 198.445312 32.695312 198.890625 31.574219 199.390625 30.472656 C 199.890625 29.375 200.441406 28.300781 201.046875 27.257812 C 201.648438 26.210938 202.304688 25.199219 203.007812 24.21875 Z M 203.007812 24.21875 " fill-opacity="1" fill-rule="nonzero"/><g clip-path="url(#72fdd97717)"><path stroke-linecap="butt" transform="matrix(0.432405, -0.602415, 0.601755, 0.432879, 53.426326, 252.316663)" fill="none" stroke-linejoin="miter" d="M 367.500594 -15.500536 L 367.598576 -15.499538 C 369.225634 -15.50024 370.851119 -15.421915 372.470756 -15.26149 C 374.090393 -15.101066 375.701106 -14.862823 377.295541 -14.547969 C 378.893052 -14.228834 380.47001 -13.830016 382.027615 -13.358868 C 383.58522 -12.88772 385.114919 -12.338097 386.617912 -11.717352 C 388.123981 -11.092327 389.592916 -10.401669 391.029669 -9.629463 C 392.463345 -8.861538 393.859888 -8.02798 395.210743 -7.122645 C 396.565874 -6.220382 397.872243 -5.250622 399.131048 -4.220719 C 400.385577 -3.187744 401.592543 -2.094625 402.744593 -0.942571 C 403.893568 0.205203 404.987626 1.411911 406.020617 2.668992 C 407.049332 3.929146 408.021255 5.236601 408.921681 6.58894 C 409.82946 7.942486 410.662666 9.336636 411.432928 10.769524 C 412.198914 12.205485 412.894604 13.678977 413.518121 15.178364 C 414.140437 16.685104 414.687505 18.213459 415.161201 19.775064 C 415.63182 21.332387 416.024114 22.907045 416.348512 24.504524 C 416.665558 26.100796 416.901203 27.71012 417.059722 29.329424 C 417.218242 30.948728 417.300837 32.570659 417.298954 34.20136 L 417.297759 165.199292 C 417.300152 166.826921 417.220469 168.448614 417.061785 170.068653 C 416.898824 171.691763 416.662339 173.302793 416.346177 174.893179 C 416.028815 176.490918 415.631776 178.068015 415.158137 179.628748 C 414.688773 181.186409 414.140933 182.716073 413.514615 184.21774 C 412.891374 185.723687 412.198209 187.195491 411.432043 188.628872 C 410.665877 190.062253 409.82671 191.45721 408.926172 192.811878 C 408.018282 194.165338 407.050219 195.471156 406.017709 196.732405 C 404.986399 197.986299 403.894917 199.192552 402.744463 200.343808 C 401.59401 201.495065 400.388861 202.588252 399.130216 203.616017 C 397.870372 204.651135 396.564385 205.62204 395.209179 206.524448 C 393.861326 207.428065 392.464253 208.263186 391.025314 209.03102 C 389.593727 209.800063 388.121474 210.494464 386.618983 211.119713 C 385.113416 211.740681 383.586164 212.286352 382.025598 212.758589 C 380.472384 213.232035 378.894409 213.625902 377.294748 213.944472 C 375.699364 214.259969 374.089647 214.501376 372.471074 214.658268 C 370.8513 214.822513 369.226946 214.899169 367.599889 214.899871 L 367.501907 214.898873 C 365.874849 214.899575 364.249363 214.82125 362.629726 214.660826 C 361.010089 214.500401 359.399377 214.262158 357.804941 213.947304 C 356.20743 213.628169 354.630472 213.229351 353.072867 212.758203 C 351.515262 212.287055 349.985564 211.737432 348.48257 211.116687 C 346.976501 210.491662 345.507566 209.801004 344.070813 209.028798 C 342.632861 208.263945 341.240595 207.427315 339.889739 206.52198 C 338.534608 205.619717 337.22824 204.649957 335.969434 203.620054 C 334.714905 202.587079 333.507939 201.49396 332.355889 200.341906 C 331.206915 199.194133 330.112856 197.987424 329.079865 196.730343 C 328.051151 195.470189 327.079228 194.162734 326.174525 192.813468 C 325.271022 191.456849 324.437816 190.062699 323.667554 188.629811 C 322.901568 187.19385 322.205879 185.720358 321.582362 184.220971 C 320.960045 182.714231 320.412977 181.185876 319.942358 179.628552 C 319.468662 178.066948 319.072092 176.495363 318.755046 174.899092 C 318.434924 173.298539 318.19928 171.689215 318.04076 170.069911 C 317.882241 168.450607 317.799646 166.828677 317.801528 165.197975 L 317.802724 34.200043 C 317.80033 32.572414 317.880013 30.950721 318.038697 29.330683 C 318.197382 27.710644 318.436943 26.103896 318.754305 24.506156 C 319.071667 22.908417 319.468706 21.33132 319.93807 19.773659 C 320.411709 18.212926 320.95955 16.683262 321.585867 15.181596 C 322.204832 13.678721 322.897997 12.206916 323.66844 10.770463 C 324.434605 9.337082 325.273772 7.942125 326.17431 6.587457 C 327.082201 5.233997 328.050263 3.928179 329.078497 2.670003 C 330.114084 1.413036 331.205566 0.206783 332.356019 -0.944473 C 333.506473 -2.095729 334.714698 -3.184636 335.970266 -4.216682 C 337.23011 -5.2518 338.531821 -6.219632 339.887027 -7.12204 C 341.239157 -8.02873 342.636229 -8.863851 344.070892 -9.628613 C 345.506755 -10.400728 346.979008 -11.095129 348.477223 -11.717305 C 349.98279 -12.338273 351.514318 -12.887017 353.074884 -13.359254 C 354.628098 -13.8327 356.206073 -14.226567 357.805734 -14.545137 C 359.401118 -14.860634 361.010835 -15.102041 362.629409 -15.258932 C 364.249182 -15.423178 365.873536 -15.499834 367.500594 -15.500536 Z M 367.500594 -15.500536 " stroke="#1e1e1e" stroke-width="9.6" stroke-opacity="1" stroke-miterlimit="10"/></g><g clip-path="url(#fad3e0e05e)"><g clip-path="url(#c20aedc73d)"><path fill="#ffffff" d="M 1439.511719 13.878906 L 1928.285156 13.878906 L 1928.285156 195.484375 L 1439.511719 195.484375 Z M 1439.511719 13.878906 " fill-opacity="1" fill-rule="nonzero"/></g></g><g clip-path="url(#f1b54681a6)"><g clip-path="url(#2dfb991d6e)"><path stroke-linecap="butt" transform="matrix(0.727783, 0, 0, 0.727783, 1439.511241, 13.879664)" fill="none" stroke-linejoin="miter" d="M 549.835338 -0.00104055 C 617.168497 -0.00104055 671.748878 55.856766 671.748878 124.762552 C 671.748878 193.673705 617.168497 249.531512 549.835338 249.531512 L 121.914197 249.531512 C 54.581038 249.531512 0.00065678 193.673705 0.00065678 124.762552 C 0.00065678 55.856766 54.581038 -0.00104055 121.914197 -0.00104055 Z M 549.835338 -0.00104055 " stroke="#000000" stroke-width="14.426486" stroke-opacity="1" stroke-miterlimit="4"/></g></g><g fill="#000000" fill-opacity="1"><g transform="translate(1502.829584, 136.107223)"><g><path d="M 33.953125 0 L 15.375 -51.234375 L 15.046875 -51.234375 C 15.128906 -50.117188 15.21875 -48.6875 15.3125 -46.9375 C 15.40625 -45.1875 15.484375 -43.285156 15.546875 -41.234375 C 15.617188 -39.179688 15.65625 -37.160156 15.65625 -35.171875 L 15.65625 0 L 7.984375 0 L 7.984375 -59.59375 L 20.015625 -59.59375 L 37.671875 -11.046875 L 37.953125 -11.046875 L 56.046875 -59.59375 L 68 -59.59375 L 68 0 L 59.921875 0 L 59.921875 -35.671875 C 59.921875 -37.460938 59.945312 -39.328125 60 -41.265625 C 60.050781 -43.210938 60.125 -45.0625 60.21875 -46.8125 C 60.320312 -48.570312 60.414062 -50.019531 60.5 -51.15625 L 60.125 -51.15625 L 41.09375 0 Z M 33.953125 0 "/></g></g></g><g fill="#000000" fill-opacity="1"><g transform="translate(1578.813564, 136.107223)"><g><path d="M 46.21875 -22.546875 C 46.21875 -18.847656 45.734375 -15.550781 44.765625 -12.65625 C 43.804688 -9.757812 42.410156 -7.3125 40.578125 -5.3125 C 38.742188 -3.320312 36.535156 -1.800781 33.953125 -0.75 C 31.367188 0.289062 28.445312 0.8125 25.1875 0.8125 C 22.144531 0.8125 19.351562 0.289062 16.8125 -0.75 C 14.269531 -1.800781 12.070312 -3.320312 10.21875 -5.3125 C 8.375 -7.3125 6.945312 -9.757812 5.9375 -12.65625 C 4.9375 -15.550781 4.4375 -18.847656 4.4375 -22.546875 C 4.4375 -27.460938 5.28125 -31.648438 6.96875 -35.109375 C 8.65625 -38.578125 11.066406 -41.210938 14.203125 -43.015625 C 17.347656 -44.828125 21.09375 -45.734375 25.4375 -45.734375 C 29.5625 -45.734375 33.1875 -44.820312 36.3125 -43 C 39.445312 -41.1875 41.878906 -38.550781 43.609375 -35.09375 C 45.347656 -31.644531 46.21875 -27.460938 46.21875 -22.546875 Z M 12.84375 -22.546875 C 12.84375 -19.085938 13.28125 -16.113281 14.15625 -13.625 C 15.039062 -11.144531 16.398438 -9.238281 18.234375 -7.90625 C 20.078125 -6.570312 22.453125 -5.90625 25.359375 -5.90625 C 28.210938 -5.90625 30.5625 -6.570312 32.40625 -7.90625 C 34.25 -9.238281 35.601562 -11.144531 36.46875 -13.625 C 37.34375 -16.113281 37.78125 -19.085938 37.78125 -22.546875 C 37.78125 -25.960938 37.34375 -28.894531 36.46875 -31.34375 C 35.601562 -33.789062 34.253906 -35.664062 32.421875 -36.96875 C 30.585938 -38.269531 28.207031 -38.921875 25.28125 -38.921875 C 20.976562 -38.921875 17.828125 -37.488281 15.828125 -34.625 C 13.835938 -31.757812 12.84375 -27.734375 12.84375 -22.546875 Z M 12.84375 -22.546875 "/></g></g></g><g fill="#000000" fill-opacity="1"><g transform="translate(1629.401617, 136.107223)"><g><path d="M 29.3125 -45.734375 C 34.5 -45.734375 38.484375 -44.425781 41.265625 -41.8125 C 44.054688 -39.207031 45.453125 -35.023438 45.453125 -29.265625 L 45.453125 0 L 37.34375 0 L 37.34375 -28.171875 C 37.34375 -31.753906 36.550781 -34.445312 34.96875 -36.25 C 33.394531 -38.0625 30.976562 -38.96875 27.71875 -38.96875 C 23.070312 -38.96875 19.816406 -37.59375 17.953125 -34.84375 C 16.097656 -32.101562 15.171875 -28.125 15.171875 -22.90625 L 15.171875 0 L 6.96875 0 L 6.96875 -44.921875 L 13.453125 -44.921875 L 14.640625 -38.609375 L 15.078125 -38.609375 C 16.035156 -40.179688 17.242188 -41.492188 18.703125 -42.546875 C 20.171875 -43.609375 21.804688 -44.40625 23.609375 -44.9375 C 25.421875 -45.46875 27.320312 -45.734375 29.3125 -45.734375 Z M 29.3125 -45.734375 "/></g></g></g><g fill="#000000" fill-opacity="1"><g transform="translate(1681.538699, 136.107223)"><g><path d="M 22.625 -5.828125 C 23.789062 -5.828125 24.972656 -5.925781 26.171875 -6.125 C 27.367188 -6.332031 28.398438 -6.601562 29.265625 -6.9375 L 29.265625 -0.65625 C 28.335938 -0.25 27.109375 0.09375 25.578125 0.375 C 24.046875 0.664062 22.476562 0.8125 20.875 0.8125 C 18.425781 0.8125 16.207031 0.390625 14.21875 -0.453125 C 12.238281 -1.296875 10.65625 -2.734375 9.46875 -4.765625 C 8.289062 -6.804688 7.703125 -9.632812 7.703125 -13.25 L 7.703125 -38.609375 L 1.46875 -38.609375 L 1.46875 -42.390625 L 7.984375 -45.40625 L 10.890625 -55.109375 L 15.9375 -55.109375 L 15.9375 -44.921875 L 28.9375 -44.921875 L 28.9375 -38.609375 L 15.9375 -38.609375 L 15.9375 -13.375 C 15.9375 -10.84375 16.539062 -8.953125 17.75 -7.703125 C 18.957031 -6.453125 20.582031 -5.828125 22.625 -5.828125 Z M 22.625 -5.828125 "/></g></g></g><g fill="#000000" fill-opacity="1"><g transform="translate(1712.926931, 136.107223)"><g><path d="M 28.578125 -45.734375 C 29.390625 -45.734375 30.269531 -45.6875 31.21875 -45.59375 C 32.175781 -45.5 32.992188 -45.382812 33.671875 -45.25 L 32.8125 -37.625 C 32.164062 -37.789062 31.410156 -37.925781 30.546875 -38.03125 C 29.691406 -38.144531 28.898438 -38.203125 28.171875 -38.203125 C 26.429688 -38.203125 24.769531 -37.875 23.1875 -37.21875 C 21.613281 -36.5625 20.226562 -35.613281 19.03125 -34.375 C 17.84375 -33.144531 16.90625 -31.640625 16.21875 -29.859375 C 15.539062 -28.078125 15.203125 -26.046875 15.203125 -23.765625 L 15.203125 0 L 6.96875 0 L 6.96875 -44.921875 L 13.578125 -44.921875 L 14.546875 -36.8125 L 14.921875 -36.8125 C 15.847656 -38.4375 16.96875 -39.925781 18.28125 -41.28125 C 19.601562 -42.644531 21.125 -43.726562 22.84375 -44.53125 C 24.570312 -45.332031 26.484375 -45.734375 28.578125 -45.734375 Z M 28.578125 -45.734375 "/></g></g></g><g fill="#000000" fill-opacity="1"><g transform="translate(1747.983917, 136.107223)"><g><path d="M 24.578125 -45.734375 C 28.492188 -45.734375 31.847656 -44.894531 34.640625 -43.21875 C 37.441406 -41.550781 39.585938 -39.195312 41.078125 -36.15625 C 42.578125 -33.113281 43.328125 -29.523438 43.328125 -25.390625 L 43.328125 -20.75 L 12.84375 -20.75 C 12.925781 -15.9375 14.160156 -12.242188 16.546875 -9.671875 C 18.941406 -7.109375 22.300781 -5.828125 26.625 -5.828125 C 29.476562 -5.828125 32.015625 -6.097656 34.234375 -6.640625 C 36.460938 -7.179688 38.773438 -7.984375 41.171875 -9.046875 L 41.171875 -2.15625 C 38.910156 -1.125 36.644531 -0.375 34.375 0.09375 C 32.113281 0.570312 29.40625 0.8125 26.25 0.8125 C 21.90625 0.8125 18.09375 -0.0546875 14.8125 -1.796875 C 11.539062 -3.535156 8.992188 -6.109375 7.171875 -9.515625 C 5.347656 -12.929688 4.4375 -17.140625 4.4375 -22.140625 C 4.4375 -27.078125 5.265625 -31.304688 6.921875 -34.828125 C 8.585938 -38.347656 10.925781 -41.046875 13.9375 -42.921875 C 16.957031 -44.796875 20.503906 -45.734375 24.578125 -45.734375 Z M 24.546875 -39.375 C 21.222656 -39.375 18.554688 -38.289062 16.546875 -36.125 C 14.535156 -33.96875 13.351562 -30.878906 13 -26.859375 L 35.09375 -26.859375 C 35.070312 -29.335938 34.679688 -31.515625 33.921875 -33.390625 C 33.160156 -35.265625 32.007812 -36.726562 30.46875 -37.78125 C 28.9375 -38.84375 26.960938 -39.375 24.546875 -39.375 Z M 24.546875 -39.375 "/></g></g></g><g fill="#000000" fill-opacity="1"><g transform="translate(1795.473923, 136.107223)"><g><path d="M 24.171875 -45.703125 C 29.710938 -45.703125 33.851562 -44.46875 36.59375 -42 C 39.34375 -39.539062 40.71875 -35.664062 40.71875 -30.375 L 40.71875 0 L 34.859375 0 L 33.265625 -6.515625 L 32.9375 -6.515625 C 31.6875 -4.890625 30.378906 -3.53125 29.015625 -2.4375 C 27.660156 -1.351562 26.09375 -0.539062 24.3125 0 C 22.53125 0.539062 20.363281 0.8125 17.8125 0.8125 C 15.09375 0.8125 12.671875 0.320312 10.546875 -0.65625 C 8.429688 -1.632812 6.769531 -3.109375 5.5625 -5.078125 C 4.351562 -7.046875 3.75 -9.550781 3.75 -12.59375 C 3.75 -17.15625 5.5 -20.617188 9 -22.984375 C 12.507812 -25.347656 17.828125 -26.640625 24.953125 -26.859375 L 32.6875 -27.1875 L 32.6875 -29.71875 C 32.6875 -33.21875 31.90625 -35.6875 30.34375 -37.125 C 28.78125 -38.570312 26.601562 -39.296875 23.8125 -39.296875 C 21.5 -39.296875 19.28125 -38.960938 17.15625 -38.296875 C 15.039062 -37.628906 13.003906 -36.832031 11.046875 -35.90625 L 8.4375 -41.859375 C 10.5625 -42.953125 12.972656 -43.863281 15.671875 -44.59375 C 18.378906 -45.332031 21.210938 -45.703125 24.171875 -45.703125 Z M 32.609375 -21.8125 L 26.328125 -21.515625 C 21.140625 -21.328125 17.492188 -20.460938 15.390625 -18.921875 C 13.285156 -17.390625 12.234375 -15.253906 12.234375 -12.515625 C 12.234375 -10.117188 12.953125 -8.363281 14.390625 -7.25 C 15.828125 -6.132812 17.726562 -5.578125 20.09375 -5.578125 C 23.738281 -5.578125 26.734375 -6.601562 29.078125 -8.65625 C 31.429688 -10.707031 32.609375 -13.742188 32.609375 -17.765625 Z M 32.609375 -21.8125 "/></g></g></g><g fill="#000000" fill-opacity="1"><g transform="translate(1842.882388, 136.107223)"><g><path d="M 15.203125 0 L 6.96875 0 L 6.96875 -63.421875 L 15.203125 -63.421875 Z M 15.203125 0 "/></g></g></g></svg>