<?xml version="1.0" encoding="UTF-8"?>
<svg xmlns="http://www.w3.org/2000/svg" xmlns:xlink="http://www.w3.org/1999/xlink" width="400px" height="250px"
     viewBox="0 0 400 250" version="1.1">
    <title>Background</title>
    <g id="Page-1" stroke="none" stroke-width="1" fill="none" fill-rule="evenodd">
        <g id="composables_on_light" transform="translate(89.000000, 106.000000)" fill-rule="nonzero">
            <path d="M56.9517547,27.127 C55.5825177,27.127 54.2950137,26.8564272 53.0898043,26.315 C51.884314,25.764 50.8234713,25.0052136 49.9075571,24.0385 C49.0009116,23.0718427 48.2875041,21.9553427 47.7667727,20.689 C47.2555909,19.413 47,18.05 47,16.6 C47,15.1403427 47.2555909,13.7773427 47.7667727,12.511 C48.2875041,11.235 49.0009116,10.1185 49.9075571,9.1615 C50.8234713,8.19484272 51.884314,7.44084272 53.0898043,6.8995 C54.2950137,6.3485 55.5825177,6.073 56.9517547,6.073 C58.5911878,6.073 60.1002976,6.45484272 61.4793649,7.2185 C62.8581515,7.9725 64.0010079,8.98265728 64.9073726,10.249 L61.7540549,11.9455 C61.1850141,11.2398427 60.4763813,10.6743427 59.6278757,10.249 C58.7889196,9.82365728 57.8968793,9.611 56.9517547,9.611 C56.0644892,9.611 55.2305887,9.79465728 54.4494917,10.162 C53.6683947,10.5196573 52.9836358,11.0223427 52.3954958,11.67 C51.807075,12.308 51.3489775,13.0523427 51.0212032,13.903 C50.6934289,14.744 50.5294014,15.643 50.5294014,16.6 C50.5294014,17.5666573 50.6934289,18.4705 51.0212032,19.3115 C51.3588079,20.1525 51.8216802,20.8968427 52.4098201,21.5445 C52.9979601,22.1825 53.6779442,22.6851573 54.4494917,23.0525 C55.2305887,23.4101573 56.0644892,23.589 56.9517547,23.589 C57.9159784,23.589 58.8127935,23.3763427 59.6422,22.951 C60.4811561,22.516 61.1850141,21.9456573 61.7540549,21.24 L64.9073726,22.951 C64.0010079,24.2076573 62.8581515,25.2177864 61.4793649,25.9813592 C60.1002976,26.7452136 58.5911878,27.127 56.9517547,27.127 Z M73.2387933,27.127 C71.9080354,27.127 70.6929956,26.7837864 69.5936739,26.0973592 C68.5041825,25.4112136 67.6312413,24.4927864 66.9756928,23.3425 C66.3294129,22.1825 66.0064134,20.9016573 66.0064134,19.5 C66.0064134,18.4366573 66.1945958,17.4458427 66.5706795,16.5275 C66.9467633,15.5995 67.4627198,14.7875 68.1182684,14.0915 C68.7836473,13.3858427 69.5551948,12.8348427 70.4326299,12.4385 C71.3103459,12.0421573 72.2456401,11.844 73.2387933,11.844 C74.5695512,11.844 75.7798163,12.1871573 76.8695885,12.8735 C77.9689102,13.5598427 78.8415706,14.483 79.4875695,15.643 C80.1433989,16.803 80.4711732,18.0886573 80.4711732,19.5 C80.4711732,20.5536573 80.2832718,21.5396573 79.907188,22.458 C79.5311042,23.3763427 79.0103729,24.1883427 78.3449939,24.894 C77.6891646,25.59 76.9226727,26.1362136 76.0449567,26.5323592 C75.1770711,26.9287864 74.241777,27.127 73.2387933,27.127 Z M73.2387933,23.589 C73.9429322,23.589 74.574326,23.4005 75.1338173,23.0235 C75.6930277,22.6465 76.1317453,22.1486573 76.44997,21.53 C76.7780251,20.9113427 76.9417718,20.2346573 76.9417718,19.5 C76.9417718,18.746 76.7729695,18.0596573 76.4356457,17.441 C76.1075905,16.8126573 75.6593234,16.3148427 75.0902826,15.9475 C74.5310721,15.5705 73.9140027,15.382 73.2387933,15.382 C72.5444849,15.382 71.9178658,15.5705 71.3583746,15.9475 C70.7991641,16.3245 70.3556718,16.8271573 70.0276167,17.4555 C69.6998424,18.0838427 69.5358148,18.7653427 69.5358148,19.5 C69.5358148,20.2636573 69.7046172,20.9548427 70.0422219,21.5735 C70.3795457,22.1921573 70.8280937,22.6851573 71.3873041,23.0525 C71.9563449,23.4101573 72.5734144,23.589 73.2387933,23.589 Z M82.7234627,26.75 L82.7234627,12.25 L86.2528641,12.25 L86.2528641,13.5405 C86.7446659,13.0185 87.3328058,12.6076573 88.0175648,12.308 C88.7023237,11.9986573 89.439886,11.844 90.2305326,11.844 C91.2335162,11.844 92.154486,12.0808427 92.9934421,12.5545 C93.8419477,13.0281573 94.5171571,13.6613427 95.0185085,14.454 C95.5296903,13.6613427 96.2046188,13.0281573 97.0435748,12.5545 C97.8825309,12.0808427 98.8035008,11.844 99.8062035,11.844 C100.867046,11.844 101.826495,12.105 102.684831,12.627 C103.552717,13.1393427 104.24225,13.8305 104.753151,14.7005 C105.273883,15.5608427 105.534248,16.5226573 105.534248,17.586 L105.534248,26.75 L102.004847,26.75 L102.004847,18.5285 C102.004847,17.9678427 101.865255,17.4555 101.585509,16.9915 C101.315594,16.5178427 100.94906,16.1408427 100.486188,15.8605 C100.032865,15.5705 99.521964,15.4255 98.9529231,15.4255 C98.3838823,15.4255 97.8679257,15.5656573 97.4050534,15.846 C96.9520115,16.1166573 96.5854773,16.484 96.3057317,16.948 C96.0262669,17.412 95.8863941,17.9388427 95.8863941,18.5285 L95.8863941,26.75 L92.3569927,26.75 L92.3569927,18.5285 C92.3569927,17.9388427 92.2218946,17.412 91.9519794,16.948 C91.6820642,16.484 91.31553,16.1166573 90.8526577,15.846 C90.3897854,15.5656573 89.8738288,15.4255 89.3047879,15.4255 C88.7455775,15.4255 88.2343957,15.5705 87.7715234,15.8605 C87.3086511,16.1408427 86.937623,16.5178427 86.6578773,16.9915 C86.3879621,17.4555 86.2528641,17.9678427 86.2528641,18.5285 L86.2528641,26.75 L82.7234627,26.75 Z M111.961657,34 L108.432256,34 L108.432256,12.25 L111.961657,12.25 L111.961657,14.0915 C112.434079,13.4341573 113.01267,12.9025 113.697429,12.4965 C114.391737,12.0808427 115.201764,11.873 116.127508,11.873 C117.188351,11.873 118.176729,12.0711573 119.092924,12.4675 C120.008839,12.8638427 120.81409,13.4148427 121.508399,14.1205 C122.212257,14.8165 122.757143,15.6236573 123.143057,16.542 C123.53824,17.4603427 123.735972,18.4463427 123.735972,19.5 C123.735972,20.5536573 123.53824,21.5445 123.143057,22.4725 C122.757143,23.4005 122.212257,24.2174272 121.508399,24.923 C120.81409,25.619 120.008839,26.1652136 119.092924,26.5613592 C118.176729,26.9577864 117.188351,27.156 116.127508,27.156 C115.201764,27.156 114.391737,26.953 113.697429,26.547 C113.01267,26.1314272 112.434079,25.5947864 111.961657,24.9373592 L111.961657,34 Z M116.084254,15.2805 C115.351186,15.2805 114.695637,15.4738427 114.117047,15.8605 C113.538457,16.2375 113.085134,16.745 112.75736,17.383 C112.429304,18.021 112.265558,18.7266573 112.265558,19.5 C112.265558,20.2733427 112.429304,20.9838427 112.75736,21.6315 C113.085134,22.2695 113.538457,22.7818427 114.117047,23.1685 C114.695637,23.5455 115.351186,23.734 116.084254,23.734 C116.826591,23.734 117.506576,23.5455 118.123645,23.1685 C118.740714,22.7915 119.232516,22.284 119.599051,21.646 C119.965585,20.9983427 120.148711,20.283 120.148711,19.5 C120.148711,18.7266573 119.965585,18.021 119.599051,17.383 C119.232516,16.745 118.740714,16.2375 118.123645,15.8605 C117.516125,15.4738427 116.836422,15.2805 116.084254,15.2805 Z M132.425782,27.127 C131.095024,27.127 129.879984,26.7837864 128.780662,26.0973592 C127.69089,25.4112136 126.81823,24.4927864 126.1624,23.3425 C125.516401,22.1825 125.193402,20.9016573 125.193402,19.5 C125.193402,18.4366573 125.381303,17.4458427 125.757387,16.5275 C126.133471,15.5995 126.649427,14.7875 127.305257,14.0915 C127.970636,13.3858427 128.741902,12.8348427 129.619618,12.4385 C130.497053,12.0421573 131.432347,11.844 132.425782,11.844 C133.756539,11.844 134.966804,12.1871573 136.056296,12.8735 C137.155618,13.5598427 138.028278,14.483 138.674558,15.643 C139.330106,16.803 139.658161,18.0886573 139.658161,19.5 C139.658161,20.5536573 139.469979,21.5396573 139.093895,22.458 C138.717812,23.3763427 138.19708,24.1883427 137.531701,24.894 C136.876153,25.59 136.10938,26.1362136 135.231945,26.5323592 C134.364059,26.9287864 133.428484,27.127 132.425782,27.127 Z M132.425782,23.589 C133.12964,23.589 133.761314,23.4005 134.320525,23.0235 C134.880016,22.6465 135.318733,22.1486573 135.636958,21.53 C135.964732,20.9113427 136.12876,20.2346573 136.12876,19.5 C136.12876,18.746 135.959958,18.0596573 135.622353,17.441 C135.294579,16.8126573 134.846031,16.3148427 134.277271,15.9475 C133.717779,15.5705 133.10071,15.382 132.425782,15.382 C131.731473,15.382 131.104573,15.5705 130.545363,15.9475 C129.985871,16.3245 129.542379,16.8271573 129.214605,17.4555 C128.88655,18.0838427 128.722803,18.7653427 128.722803,19.5 C128.722803,20.2636573 128.891605,20.9548427 129.228929,21.5735 C129.566534,22.1921573 130.014801,22.6851573 130.574292,23.0525 C131.143052,23.4101573 131.760403,23.589 132.425782,23.589 Z M146.290324,27.011 C145.538156,26.9625728 144.810144,26.8127864 144.106286,26.5613592 C143.411977,26.3003592 142.794627,25.9475728 142.254796,25.503 C141.714685,25.0584272 141.300122,24.5265728 141.010827,23.908 L143.990568,22.632 C144.106286,22.8253427 144.294187,23.0331573 144.554553,23.2555 C144.814918,23.4681573 145.123594,23.647 145.480297,23.792 C145.846832,23.937 146.24707,24.0095 146.681013,24.0095 C147.047266,24.0095 147.39442,23.9611573 147.722476,23.8645 C148.059799,23.7581573 148.329996,23.5986573 148.532502,23.386 C148.744558,23.1733427 148.850727,22.8978427 148.850727,22.5595 C148.850727,22.2018427 148.725178,21.9263427 148.474643,21.733 C148.233377,21.53 147.924982,21.3801573 147.548899,21.2835 C147.182364,21.1771573 146.825661,21.0805 146.478506,20.9935 C145.562311,20.8098427 144.709031,20.5246573 143.918103,20.138 C143.137006,19.7513427 142.505332,19.2535 142.02336,18.6445 C141.550658,18.0258427 141.314447,17.2815 141.314447,16.4115 C141.314447,15.4545 141.565263,14.628 142.066614,13.932 C142.577796,13.236 143.2384,12.6995 144.048427,12.3225 C144.868003,11.9455 145.750494,11.757 146.695337,11.757 C147.842968,11.757 148.893981,11.9986573 149.848655,12.482 C150.813159,12.9556573 151.574876,13.6275 152.134087,14.4975 L149.342529,16.1505 C149.207431,15.9185 149.019529,15.7058427 148.778263,15.5125 C148.537277,15.3095 148.262306,15.1451573 147.953912,15.0195 C147.645237,14.8841573 147.322237,14.8068427 146.984632,14.7875 C146.55069,14.7681573 146.155507,14.8068427 145.798522,14.9035 C145.441818,15.0001573 145.152523,15.1645 144.930637,15.3965 C144.71858,15.6285 144.612412,15.9378427 144.612412,16.3245 C144.612412,16.6918427 144.757059,16.9673427 145.046355,17.151 C145.33565,17.325 145.682804,17.4603427 146.087817,17.557 C146.502661,17.6536573 146.897844,17.76 147.273928,17.876 C148.122714,18.1563427 148.918135,18.4995 149.660753,18.9055 C150.412921,19.3115 151.015666,19.8093427 151.468708,20.399 C151.922031,20.9886573 152.138862,21.6943427 152.119763,22.516 C152.119763,23.4536573 151.840017,24.2754272 151.280807,24.981 C150.721315,25.677 149.998077,26.2085728 149.111093,26.576 C148.233377,26.9434272 147.293308,27.0884272 146.290324,27.011 Z M165.275672,12.25 L168.805074,12.25 L168.805074,26.75 L165.275672,26.75 L165.116419,24.952 C164.721237,25.5995728 164.19573,26.1263592 163.539901,26.5323592 C162.893902,26.9287864 162.127129,27.127 161.239864,27.127 C160.169472,27.127 159.166769,26.924 158.231194,26.518 C157.2959,26.112 156.471549,25.5514272 155.75786,24.836 C155.054002,24.1206573 154.499286,23.2941573 154.094273,22.3565 C153.69909,21.4188427 153.501358,20.4135 153.501358,19.3405 C153.501358,18.3061573 153.689259,17.3346573 154.065343,16.426 C154.451257,15.5173427 154.986313,14.7198427 155.671072,14.0335 C156.355831,13.3471573 157.146477,12.8106573 158.043292,12.424 C158.940107,12.0373427 159.904331,11.844 160.936244,11.844 C161.890918,11.844 162.744199,12.0566573 163.496366,12.482 C164.258364,12.9073427 164.904363,13.4486573 165.434644,14.106 L165.275672,12.25 Z M161.153075,23.7195 C161.905243,23.7195 162.570622,23.531 163.149212,23.154 C163.727803,22.777 164.181125,22.2695 164.5089,21.6315 C164.836955,20.9838427 165.000701,20.2733427 165.000701,19.5 C165.000701,18.717 164.836955,18.0065 164.5089,17.3685 C164.181125,16.7208427 163.723028,16.2085 163.134888,15.8315 C162.556297,15.4545 161.895693,15.266 161.153075,15.266 C160.410738,15.266 159.730754,15.4593427 159.113685,15.846 C158.506165,16.223 158.019138,16.7305 157.652603,17.3685 C157.2959,18.0065 157.117548,18.717 157.117548,19.5 C157.117548,20.283 157.300674,20.9935 157.667209,21.6315 C158.033743,22.2695 158.520489,22.777 159.128009,23.154 C159.745359,23.531 160.420288,23.7195 161.153075,23.7195 Z M179.467427,11.844 C180.875143,11.844 182.157873,12.1871573 183.315053,12.8735 C184.472234,13.5598427 185.393204,14.483 186.077682,15.643 C186.762441,16.7933427 187.10482,18.0693427 187.10482,19.471 C187.10482,20.5246573 186.907088,21.5155 186.511625,22.4435 C186.116442,23.3715 185.566781,24.1883427 184.862642,24.894 C184.168334,25.59 183.358307,26.1362136 182.432563,26.5323592 C181.516648,26.9287864 180.527989,27.127 179.467427,27.127 C178.560782,27.127 177.755811,26.924 177.051672,26.518 C176.357363,26.1024272 175.773998,25.5657864 175.301576,24.9083592 L175.301576,26.75 L171.772175,26.75 L171.772175,5 L175.301576,5 L175.301576,14.0625 C175.773998,13.4051573 176.357363,12.8735 177.051672,12.4675 C177.755811,12.0518427 178.560782,11.844 179.467427,11.844 Z M179.423892,23.705 C180.17606,23.705 180.856044,23.5165 181.463564,23.1395 C182.080634,22.7528427 182.572435,22.2405 182.93897,21.6025 C183.305223,20.9645 183.48863,20.254 183.48863,19.471 C183.48863,18.6976573 183.305223,17.992 182.93897,17.354 C182.572435,16.7063427 182.080634,16.194 181.463564,15.817 C180.846214,15.44 180.16651,15.2515 179.423892,15.2515 C178.691105,15.2515 178.035276,15.4448427 177.456685,15.8315 C176.878095,16.2085 176.425053,16.7208427 176.096998,17.3685 C175.769223,18.0065 175.605196,18.7073427 175.605196,19.471 C175.605196,20.254 175.769223,20.9693427 176.096998,21.617 C176.425053,22.255 176.878095,22.7625 177.456685,23.1395 C178.035276,23.5165 178.691105,23.705 179.423892,23.705 Z M189.146739,26.75 L189.146739,5 L192.67614,5 L192.67614,26.75 L189.146739,26.75 Z M202.291695,27.127 C200.960937,27.127 199.745897,26.7837864 198.646575,26.0973592 C197.556803,25.4112136 196.684143,24.488 196.028313,23.328 C195.382314,22.168 195.059315,20.8871573 195.059315,19.4855 C195.059315,18.4318427 195.247216,17.4458427 195.6233,16.5275 C195.999384,15.5995 196.51534,14.7875 197.17117,14.0915 C197.836549,13.3858427 198.607815,12.8348427 199.485531,12.4385 C200.362966,12.0421573 201.298261,11.844 202.291695,11.844 C203.419946,11.844 204.451578,12.0856573 205.387153,12.569 C206.331997,13.0426573 207.132474,13.6951573 207.788303,14.5265 C208.443852,15.3578427 208.921329,16.3051573 209.220174,17.3685 C209.5193,18.4318427 209.586708,19.5435 209.422681,20.7035 L198.849082,20.7035 C198.983899,21.2448427 199.205786,21.733 199.514461,22.168 C199.822855,22.5933427 200.213544,22.9365 200.685966,23.1975 C201.158669,23.4488427 201.693724,23.5793427 202.291695,23.589 C202.908764,23.5986573 203.467975,23.4536573 203.969607,23.154 C204.480508,22.8446573 204.904901,22.429 205.242506,21.907 L208.84409,22.748 C208.25595,24.0336573 207.378515,25.0874272 206.211504,25.909 C205.044774,26.721 203.738171,27.127 202.291695,27.127 Z M198.733364,18.05 L205.850026,18.05 C205.743857,17.47 205.517196,16.948 205.170041,16.484 C204.832718,16.0103427 204.413099,15.6333427 203.911748,15.353 C203.410115,15.0726573 202.870285,14.9325 202.291695,14.9325 C201.713104,14.9325 201.177768,15.0726573 200.685966,15.353 C200.194164,15.6236573 199.774826,15.9958427 199.427672,16.4695 C199.090068,16.9335 198.858631,17.4603427 198.733364,18.05 Z M216.156237,27.011 C215.40407,26.9625728 214.676057,26.8127864 213.972199,26.5613592 C213.27789,26.3003592 212.66054,25.9475728 212.12071,25.503 C211.580598,25.0584272 211.166035,24.5265728 210.87674,23.908 L213.856481,22.632 C213.972199,22.8253427 214.1601,23.0331573 214.420466,23.2555 C214.680832,23.4681573 214.989507,23.647 215.346211,23.792 C215.712745,23.937 216.112983,24.0095 216.546926,24.0095 C216.913179,24.0095 217.260334,23.9611573 217.588389,23.8645 C217.925713,23.7581573 218.195909,23.5986573 218.398415,23.386 C218.610471,23.1733427 218.71664,22.8978427 218.71664,22.5595 C218.71664,22.2018427 218.591091,21.9263427 218.340556,21.733 C218.09929,21.53 217.790895,21.3801573 217.414812,21.2835 C217.048277,21.1771573 216.691574,21.0805 216.344419,20.9935 C215.428224,20.8098427 214.574944,20.5246573 213.784016,20.138 C213.002919,19.7513427 212.371245,19.2535 211.889273,18.6445 C211.416571,18.0258427 211.18036,17.2815 211.18036,16.4115 C211.18036,15.4545 211.431176,14.628 211.932527,13.932 C212.443709,13.236 213.104313,12.6995 213.91434,12.3225 C214.733916,11.9455 215.616407,11.757 216.56125,11.757 C217.708882,11.757 218.759894,11.9986573 219.714568,12.482 C220.679073,12.9556573 221.44079,13.6275 222,14.4975 L219.208442,16.1505 C219.073344,15.9185 218.885442,15.7058427 218.644176,15.5125 C218.40319,15.3095 218.128219,15.1451573 217.819825,15.0195 C217.51115,14.8841573 217.18815,14.8068427 216.850546,14.7875 C216.416603,14.7681573 216.02142,14.8068427 215.664435,14.9035 C215.307731,15.0001573 215.018436,15.1645 214.79655,15.3965 C214.584493,15.6285 214.478325,15.9378427 214.478325,16.3245 C214.478325,16.6918427 214.622973,16.9673427 214.912268,17.151 C215.201563,17.325 215.548717,17.4603427 215.95373,17.557 C216.368574,17.6536573 216.763757,17.76 217.139841,17.876 C217.988627,18.1563427 218.784049,18.4995 219.526667,18.9055 C220.278834,19.3115 220.881579,19.8093427 221.334621,20.399 C221.787944,20.9886573 222.004775,21.6943427 221.985676,22.516 C221.985676,23.4536573 221.70593,24.2754272 221.14672,24.981 C220.587228,25.677 219.86399,26.2085728 218.977006,26.576 C218.09929,26.9434272 217.159221,27.0884272 216.156237,27.011 Z"
                  id="Shape" fill="#000000"></path>
            <path d="M19.3861235,0.492569065 C18.219455,-0.164189688 16.7805731,-0.164189688 15.6139046,0.492569065 L2.00276225,8.00654605 L11.8611114,13.4344057 C13.2805675,11.9663682 15.2833579,11.0391925 17.5000281,11.0391925 C19.7166983,11.0391925 21.7194606,11.9663682 23.1387761,13.4344057 L32.9972659,7.9872485 L19.3861235,0.492569065 Z M13.6111142,18.7656659 C13.6111142,16.6408696 15.361117,14.9024152 17.5000281,14.9024152 C19.6389111,14.9024152 21.3889139,16.6408696 21.3889139,18.7656659 C21.3889139,20.8904342 19.6389111,22.6288886 17.5000281,22.6288886 C15.361117,22.6288886 13.6111142,20.8904342 13.6111142,18.7656659 Z M0,11.3096094 L9.97501602,16.8147151 C9.80001574,17.4328508 9.72222847,18.0895816 9.72222847,18.7656659 C9.72222847,22.3584716 12.1916863,25.3910343 15.5555712,26.2411315 L15.5555712,37 L2.00276225,29.5247857 C0.758334552,28.8486735 0,27.5545373 0,26.1445042 L0,11.3096094 Z M19.4444569,37 L19.4444569,26.2411315 C22.8084543,25.3910343 25.2778559,22.3584716 25.2778559,18.7656659 C25.2778559,18.0895816 25.1999843,17.4328508 25.0251245,16.8147151 L35,11.3096094 L35,26.1445042 C35,27.5545373 34.241806,28.8486735 32.9972659,29.5247857 L19.4444569,37 Z"
                  id="Shape" fill="#E91E63"></path>
        </g>
    </g>
</svg>
