<?xml version="1.0" encoding="UTF-8"?>
<svg xmlns="http://www.w3.org/2000/svg" xmlns:xlink="http://www.w3.org/1999/xlink" width="400px" height="250px"
     viewBox="0 0 400 250" version="1.1">
    <title>Background</title>
    <defs>
        <linearGradient x1="25.1768046%" y1="43.0302306%" x2="99.1720575%" y2="68.1605519%" id="linearGradient-1">
            <stop stop-color="#FE2857" offset="21%"></stop>
            <stop stop-color="#293896" offset="100%"></stop>
        </linearGradient>
        <linearGradient x1="2.27834696%" y1="78.062014%" x2="90.6955004%" y2="23.2226734%" id="linearGradient-2">
            <stop stop-color="#FE2857" offset="0%"></stop>
            <stop stop-color="#FE2857" offset="1%"></stop>
            <stop stop-color="#FF318C" offset="86%"></stop>
        </linearGradient>
        <linearGradient x1="6.29867254%" y1="14.3131247%" x2="94.6438712%" y2="87.2812772%" id="linearGradient-3">
            <stop stop-color="#FF318C" offset="2%"></stop>
            <stop stop-color="#FE2857" offset="21%"></stop>
            <stop stop-color="#FDB60D" offset="86%"></stop>
        </linearGradient>
        <linearGradient x1="91.0869055%" y1="27.9605705%" x2="1.96658946%" y2="68.4211463%" id="linearGradient-4">
            <stop stop-color="#FDB60D" offset="1%"></stop>
            <stop stop-color="#FCF84A" offset="86%"></stop>
        </linearGradient>
    </defs>
    <g id="Page-1" stroke="none" stroke-width="1" fill="none" fill-rule="evenodd">
        <g id="jb_beam" transform="translate(124.000000, 49.000000)">
            <path d="M68.5100292,70.0576868 L33.7198614,40.0026345 C29.8342247,36.6839314 24.3806793,36.0586701 19.8704507,38.4147684 C15.360222,40.7708666 12.6678001,45.6514995 13.0329799,50.8092539 C13.3981598,55.9670084 16.7501364,60.4018454 21.545406,62.07163 L21.6716098,62.07163 L21.9997395,62.1746759 L65.8849911,75.8196697 C66.2034346,75.9370996 66.5392077,75.9980886 66.877794,76 C68.2798021,75.9925557 69.5068915,75.0368763 69.88405,73.6586735 C70.2612086,72.2804706 69.6969284,70.81413 68.5016156,70.066274 L68.5100292,70.0576868 Z"
                  id="Path" fill="url(#linearGradient-1)" fill-rule="nonzero"></path>
            <path d="M75,21.3120829 C75.0201015,17.9031998 73.1957169,14.758899 70.2512753,13.1280122 C67.3068338,11.4971253 63.7189709,11.6436544 60.9126893,13.5094022 L18.6930603,39.5693359 C14.7810645,42.1616117 12.6097609,46.7490002 13.0581148,51.4744809 C13.5064686,56.1999616 16.5002159,60.2808195 20.8274578,62.0650825 C25.1546998,63.8493456 30.0986845,63.0414737 33.6580377,59.9685013 L71.505218,28.6132842 L71.8061896,28.3582946 C73.8306106,26.5955152 74.997058,24.0219542 75,21.3120829 L75,21.3120829 Z"
                  id="Path" fill="url(#linearGradient-2)" fill-rule="nonzero"></path>
            <path d="M137.148951,77.430602 L72.682197,15.6856246 C70.3049301,13.3129427 66.8120483,12.425507 63.5817678,13.3734806 C60.3514874,14.3214542 57.9026073,16.9525879 57.2014031,20.2286928 C56.5001988,23.5047977 57.6592873,26.8997152 60.2213171,29.0738837 L60.3391107,29.1742957 L128.827674,86.5597212 C130.67267,88.0988581 133.247554,88.4346866 135.429221,87.420726 C137.610888,86.4067653 139.003641,84.2269213 139,81.8319922 C139,80.1776832 138.333119,78.5924239 137.148951,77.430602 Z"
                  id="Path" fill="url(#linearGradient-3)" fill-rule="nonzero"></path>
            <path d="M139,81.2102872 C139.016925,78.883887 137.715888,76.746025 135.635648,75.6822625 C133.555408,74.6184999 131.050255,74.8100089 129.157893,76.1774611 L50.9705512,114.175298 C46.7203313,116.299406 44.0273298,120.615276 44,125.346143 C43.9730837,130.077009 46.6164242,134.423145 50.8420126,136.595323 C55.067601,138.767501 60.1611239,138.398527 64.0256699,135.640301 L136.326402,86.2850535 C138.001658,85.1330232 139.001034,83.2359867 139,81.2102872 L139,81.2102872 Z"
                  id="Path" fill="url(#linearGradient-4)" fill-rule="nonzero"></path>
            <polygon id="Path" fill="#000000" fill-rule="nonzero" points="51 51 102 51 102 102 51 102"></polygon>
            <g id="Group" transform="translate(55.000000, 56.000000)" fill="#FFFFFF" fill-rule="nonzero">
                <polygon id="Path"
                         points="1.2852 35.3967391 20.1852 35.3967391 20.1852 38.576087 1.2852 38.576087"></polygon>
                <path d="M0.4956,7.18108696 L1.8984,5.84152174 C2.16918528,6.27282375 2.62830467,6.54707906 3.1332,6.57913043 C3.6708,6.57913043 4.0236,6.1976087 4.0236,5.46 L4.0236,0.440869565 L6.1908,0.440869565 L6.1908,5.47695652 C6.25630396,6.29696054 5.97564637,7.10675017 5.418,7.70673913 C4.84259628,8.27393369 4.06309606,8.58006701 3.2592,8.55456522 C2.16692611,8.59897382 1.12669714,8.08199167 0.4956,7.18108696 L0.4956,7.18108696 Z"
                      id="Path"></path>
                <polygon id="Path"
                         points="7.1652 0.440869565 13.4904 0.440869565 13.4904 2.2976087 9.2904 2.2976087 9.2904 3.51 13.062 3.51 13.062 5.20565217 9.324 5.20565217 9.324 6.46891304 13.524 6.46891304 13.524 8.33413043 7.14 8.33413043"></polygon>
                <polygon id="Path"
                         points="16.5732 2.36543478 14.2212 2.36543478 14.2212 0.440869565 21.1176 0.440869565 21.1176 2.36543478 18.7572 2.36543478 18.7572 8.37652174 16.5732 8.37652174"></polygon>
                <path d="M1.3692,11.5134783 L5.082,11.5134783 C5.86058044,11.4488477 6.6322794,11.7023683 7.224,12.2171739 C7.56139308,12.5584892 7.74641915,13.0238333 7.7364,13.5058696 C7.74929218,14.2991584 7.25912718,15.0122545 6.5184,15.2778261 C7.44167327,15.4486418 8.10445297,16.2722473 8.0808,17.2193478 C8.0808,18.6521739 6.9804,19.5 5.0988,19.5 L1.3692,19.5 L1.3692,11.5134783 Z M5.5692,13.9636957 C5.5692,13.5228261 5.2164,13.2854348 4.578,13.2854348 L3.4944,13.2854348 L3.4944,14.6758696 L4.5444,14.6758696 C5.1996,14.6758696 5.586,14.4469565 5.586,13.9891304 L5.5692,13.9636957 Z M4.8132,16.218913 L3.4944,16.218913 L3.4944,17.6856522 L4.8552,17.6856522 C5.5272,17.6856522 5.8968,17.4228261 5.8968,16.9565217 C5.88,16.5071739 5.5608,16.218913 4.83,16.218913 L4.8132,16.218913 Z"
                      id="Shape"></path>
                <path d="M8.778,11.5134783 L12.264,11.5134783 C13.1962114,11.4368546 14.1197059,11.7424607 14.826,12.3613043 C15.3027064,12.8528773 15.5552903,13.5224713 15.5232,14.2095652 C15.5542293,15.2912283 14.903787,16.2742811 13.902,16.6597826 L15.7836,19.5 L13.2636,19.5 L11.676,17.0921739 L10.9452,17.0921739 L10.9452,19.5 L8.7612,19.5 L8.778,11.5134783 Z M12.138,15.3286957 C12.8688,15.3286957 13.314,14.9641304 13.314,14.3791304 C13.314,13.7432609 12.852,13.421087 12.1296,13.421087 L10.962,13.421087 L10.962,15.3456522 L12.138,15.3286957 Z"
                      id="Shape"></path>
                <path d="M18.5556,11.4541304 L20.6556,11.4541304 L24.0156,19.4576087 L21.672,19.4576087 L21.1092,18.0247826 L18.06,18.0247826 L17.4972,19.5 L15.2208,19.5 L18.5556,11.4541304 Z M20.4708,16.3121739 L19.5888,14.0654348 L18.6984,16.3121739 L20.4708,16.3121739 Z"
                      id="Shape"></path>
                <polygon id="Path"
                         points="24.36 11.4880435 26.544 11.4880435 26.544 19.4321739 24.36 19.4321739"></polygon>
                <polygon id="Path"
                         points="27.3504 11.4880435 29.4 11.4880435 32.2308 15.7271739 32.2308 11.4880435 34.3896 11.4880435 34.3896 19.4321739 32.4828 19.4321739 29.5176 15.0743478 29.5176 19.4321739 27.3504 19.4321739"></polygon>
                <path d="M34.7508,18.2536957 L35.9604,16.7869565 C36.6688678,17.3847831 37.5572211,17.7225137 38.4804,17.745 C39.0768,17.745 39.3876,17.5330435 39.3876,17.193913 C39.3876,16.8463043 39.1356,16.6767391 38.052,16.4223913 C36.372,16.0323913 35.0868,15.5745652 35.0868,13.9382609 C35.0868,12.4630435 36.246,11.3947826 38.136,11.3947826 C39.3042945,11.3505986 40.4502417,11.7261258 41.37,12.4545652 L40.32,13.9636957 C39.68458,13.4790904 38.9153013,13.2064453 38.1192,13.1836957 C37.59,13.1836957 37.3296,13.3956522 37.3296,13.6923913 C37.3296,14.0569565 37.5984,14.2180435 38.6988,14.463913 C40.5048,14.8623913 41.622,15.4558696 41.622,16.9395652 C41.622,18.558913 40.3536,19.4830435 38.4468,19.4830435 C37.1076689,19.5405923 35.7936659,19.1035342 34.7508,18.2536957 L34.7508,18.2536957 Z"
                      id="Path"></path>
            </g>
            <polygon id="Path" points="0 0 151 0 151 151 0 151"></polygon>
        </g>
    </g>
</svg>
