<?xml version="1.0" encoding="UTF-8"?>
<svg xmlns="http://www.w3.org/2000/svg" xmlns:xlink="http://www.w3.org/1999/xlink" width="400px" height="250px"
     viewBox="0 0 400 250" version="1.1">
    <title>Background</title>
    <g id="Page-1" stroke="none" stroke-width="1" fill="none" fill-rule="evenodd">
        <g id="McG_FAC-ENGINEERING_cmyk_red_ver_bi" transform="translate(52.000000, 65.000000)">
            <g id="g10"
               transform="translate(147.500000, 60.453892) scale(-1, 1) rotate(-180.000000) translate(-147.500000, -60.453892) translate(0.000000, 0.953892)">
                <path d="M71.4895092,104.467682 C71.176609,108.724632 69.8509344,107.436171 66.6027548,108.724632 C63.9847329,109.234317 63.7658088,111.125967 66.3506211,111.221592 C71.0206888,110.874305 73.3548984,110.812243 77.2322935,111.410722 C78.9987605,111.125967 79.755986,110.40148 80.4184112,108.698959 C83.6697704,101.820219 88.3993092,91.5025207 91.6465466,84.6326127 C92.2155845,83.4006786 92.5297801,83.1472494 93.2570935,84.7245867 L102.844299,109.234317 C103.917486,111.312742 105.079939,111.817362 108.428454,111.501283 C114.197029,111.410722 115.618917,111.566642 118.458101,111.882722 C120.917023,111.785566 120.760396,109.894504 118.332093,109.234317 C114.60732,109.201225 112.65137,107.940321 112.085983,105.166025 L112.622871,77.0253813 C113.219466,72.8359104 115.395871,72.7075471 119.309538,71.7006609 C121.07365,70.9084593 120.697981,69.6788805 119.179997,69.2708266 C111.015975,70.2170641 108.176792,70.1545312 100.068473,69.3637428 C97.7329676,69.1424633 97.575281,71.166128 100.099327,71.7006609 C103.096315,72.3612018 103.852127,72.8966768 104.515494,74.4736608 L103.917486,101.598115 C103.821744,102.671303 103.157081,102.671303 102.750912,101.409928 L91.2987881,72.8014054 C90.2283091,70.3739264 89.7539538,70.3739264 88.587379,72.265106 L75.0577726,101.56679 C74.6465391,102.577445 74.1414472,102.26372 74.0784433,101.631207 L74.2039802,75.7671857 C74.583064,72.7711399 76.666553,72.5788305 80.8918243,71.2566888 C82.0892534,70.8763096 82.1522574,69.8664793 81.1746946,69.2418566 C72.9099842,69.9332517 71.5879603,69.9332517 63.9231421,68.9538047 C62.7252419,68.9538047 62.1566751,70.7202717 64.0192379,70.9724054 C68.0849384,72.1376848 69.1893336,72.2011599 69.7887547,74.542553 L71.4895092,104.467682 L71.4895092,104.467682 Z M118.04828,83.7162873 C119.275386,96.0810854 129.526783,98.9833907 134.792033,99.0131851 C141.040615,98.8218179 143.023769,96.7738938 143.087362,94.6913469 C143.154487,92.6084468 141.670655,91.5025207 140.06317,91.9501434 C136.624448,92.828313 137.283929,96.4611114 132.71349,96.740802 C127.540097,95.9849896 124.415805,90.18085 125.300216,83.2433452 C126.179917,76.3026608 132.901913,71.1324473 141.10303,75.3568943 C143.087362,75.8007486 143.247521,74.1548724 141.640036,73.0209183 C126.563829,63.7515593 117.416239,76.9677945 118.04828,83.7162873 L118.04828,83.7162873 Z M146.401254,91.3480137 C147.789697,106.201882 157.313309,112.418197 170.714906,113.522592 C184.84782,113.426496 186.86748,112.480259 186.674347,104.594161 C186.774446,101.758157 184.880794,101.093494 183.555944,104.315413 C182.04267,107.213478 180.77788,108.8875 177.186063,110.368742 C165.009217,113.113243 155.988459,105.287912 155.451453,91.9786424 C154.607082,73.2164074 175.60802,67.7278766 179.960594,74.7239103 C180.874447,76.5556188 180.874447,81.412461 180.749616,85.4192793 C179.992391,88.0670956 177.469876,87.815904 175.013309,87.9130597 C172.356543,87.7202792 171.412072,90.7213889 174.979157,90.6919478 C178.415524,90.6919478 185.039776,90.3676245 193.552969,91.1571175 C196.080195,91.0627881 196.272151,88.7622593 193.179656,88.414383 C191.854806,88.1655467 189.048478,88.1935746 188.666921,85.9859619 C188.348957,74.5711698 190.998658,73.4666568 182.388895,70.3394214 C171.412072,67.7550801 159.587341,68.9538047 152.899497,75.4194273 C149.904747,78.0672436 146.145705,84.1588462 146.401254,91.3480137 L146.401254,91.3480137 Z M201.122869,88.1300996 C200.970953,89.8330916 200.748378,91.1571175 198.791133,91.7265087 C197.403867,91.854872 196.742031,93.1153051 198.728718,93.8702931 C202.700913,95.1628759 203.274426,95.3841553 206.329236,97.8451972 C207.276063,98.35076 208.381871,97.9414107 207.84722,96.2393609 C207.621113,94.9466603 207.650554,94.3426463 207.558697,92.9571474 L207.590494,75.543551 C207.749476,72.7075471 209.956382,72.2333096 211.376621,71.6679224 C212.793328,71.0966469 212.924047,69.4291021 211.248258,69.3945971 C205.069157,70.2483895 203.711332,70.3394214 197.751273,69.1424633 C195.759875,69.1103136 195.319436,70.6241759 197.781891,71.5069383 C200.243169,72.3925271 201.061632,72.8014054 201.18764,74.9156309 L201.122869,88.1300996 L201.122869,88.1300996 Z M219.011292,74.9763973 C218.847599,73.39906 218.124525,72.3612018 215.160394,71.5442697 C212.82748,70.7805671 213.108937,69.5532258 215.473647,69.4593675 C221.845883,70.3739264 223.833747,70.2170641 229.541791,69.583609 C231.785204,69.618114 231.403647,71.0681479 230.016381,71.730102 C226.671871,73.0209183 226.13722,73.0554233 225.474206,76.3647226 L225.223368,109.799233 C225.223368,111.723504 225.951152,113.967035 223.899695,113.46053 C220.078238,111.946197 219.764985,111.817362 216.295643,110.621347 C214.467939,109.8315 215.160394,108.947325 216.484066,108.505237 C218.344745,107.749424 218.501372,106.61547 218.596761,105.259766 L219.011292,74.9763973 Z M238.629675,74.7873854 C238.473048,73.2164074 237.744086,72.1693635 234.774066,71.3524313 C232.441152,70.5961479 232.73203,69.3637428 235.094385,69.2708266 C241.466621,70.1835012 243.454485,70.0284054 249.163706,69.3945971 C251.402409,69.4291021 251.024385,70.8763096 249.635942,71.5442697 C246.294964,72.8359104 245.75678,72.8691199 245.097299,76.1757107 L244.839395,109.60975 C244.839395,111.534492 245.564824,113.777905 243.518078,113.271989 C239.697798,111.758009 239.381012,111.628704 235.910493,110.43045 C234.082789,109.642842 234.774066,108.761021 236.104804,108.321289 C237.964305,107.559941 238.123287,106.426458 238.216321,105.068045 L238.629675,74.7873854 L238.629675,74.7873854 Z M204.532151,112.955909 C206.484685,112.955909 208.1275,111.343949 208.1275,109.359029 C208.1275,107.369399 206.484685,105.73365 204.532151,105.73365 C202.573727,105.73365 200.970953,107.369399 200.970953,109.359029 C200.970953,111.343949 202.573727,112.955909 204.532151,112.955909 L204.532151,112.955909"
                      id="path12" fill="#ED192E"></path>
                <path d="M1.24159079,90.9315985 C-0.879092912,98.4961991 0.359273484,105.493528 0.359273484,113.962442 C7.93300319,117.724428 15.4280874,118.065945 23.5487719,118.065945 C30.5746,118.065945 40.5362964,117.160454 46.5326276,113.974808 C47.1490068,105.992614 47.5032423,98.9649017 45.4539051,89.9008061 C43.4053921,80.832 37.4413284,68.3103396 23.849189,59.0584097 C9.0117375,68.7818685 4.16131347,80.5357046 1.24159079,90.9315985 L1.24159079,90.9315985"
                      id="path14" fill="#ED192E"></path>
                <path d="M8.33275468,102.025836 L1.02399856,94.0726124 C2.6616654,86.4570198 7.21169583,70.4815631 23.7958417,59.7079985 C40.2281068,71.0197467 44.6332045,86.5191994 45.6267833,94.2516144 L38.5213463,102.047975 L30.6509114,94.070846 L23.405688,101.97296 L16.1810734,94.169297 L8.33275468,102.025836 L8.33275468,102.025836"
                      id="path16" fill="#FFFFFF"></path>
                <path d="M6.19597729,108.168077 L5.63797391,107.374109 L6.8864657,107.493169 L6.19597729,108.168077 L6.19597729,108.168077 Z M8.27295388,109.047189 L9.17459398,107.517075 L7.41363834,107.517075 L8.27295388,109.047189 Z M5.60945136,106.233207 C5.83899786,106.233207 6.0239234,106.04549 6.0239234,105.807724 C6.0239234,105.57773 5.83899786,105.390955 5.60945136,105.390955 C5.37760845,105.390955 5.19360147,105.57773 5.19360147,105.807724 C5.19360147,106.04549 5.37760845,106.233207 5.60945136,106.233207 Z M6.93522019,106.507834 C7.17581299,106.507834 7.37178485,106.311874 7.37178485,106.070339 C7.37178485,105.818794 7.17581299,105.635199 6.93522019,105.635199 C6.71855712,105.635199 6.50694614,105.818794 6.50694614,106.070339 C6.50694614,106.311874 6.71855712,106.507834 6.93522019,106.507834 Z M8.28031416,106.581436 C8.51169779,106.581436 8.71135567,106.388185 8.71135567,106.149005 C8.71135567,105.911239 8.51169779,105.713866 8.28031416,105.713866 C8.05306407,105.713866 7.8524994,105.911239 7.8524994,106.149005 C7.8524994,106.388185 8.05306407,106.581436 8.28031416,106.581436 Z M8.28583732,104.175508 C6.62885592,104.168678 5.39554398,104.331075 5.39554398,104.535279 C5.39554398,104.743251 6.62149564,104.950634 8.28583732,104.95664 C9.95063827,104.95664 11.1738225,104.745488 11.1738225,104.543522 C11.1738225,104.336139 9.94144087,104.178806 8.28583732,104.175508 L8.28583732,104.175508 Z M10.9980943,106.233207 C10.7722339,106.233207 10.5785584,106.04549 10.5785584,105.807724 C10.5785584,105.57773 10.7722339,105.390955 10.9980943,105.390955 C11.2267223,105.390955 11.4130374,105.57773 11.4130374,105.807724 C11.4130374,106.04549 11.2267223,106.233207 10.9980943,106.233207 Z M9.67324407,106.507834 C9.42851773,106.507834 9.23300516,106.311874 9.23300516,106.070339 C9.23300516,105.818794 9.42851773,105.635199 9.67324407,105.635199 C9.89543029,105.635199 10.0978439,105.818794 10.0978439,106.070339 C10.0978439,106.311874 9.89543029,106.507834 9.67324407,106.507834 Z M10.4134173,108.168077 L10.9691125,107.374109 L9.71971393,107.493169 L10.4134173,108.168077 Z M8.28445947,105.298039 C9.14422253,105.302161 10.4971361,105.214309 11.3099935,104.960762 C11.5082618,105.379886 11.8615905,106.089181 12.0566085,106.376291 C11.3578295,106.78988 9.22151135,106.916359 8.28721516,106.909411 C7.35062257,106.909411 5.21245556,106.787995 4.51737434,106.371698 C4.71011944,106.087886 5.0670871,105.37388 5.25615795,104.95664 C6.07360823,105.205947 7.42284752,105.295684 8.28445947,105.298039 L8.28445947,105.298039 Z M8.28445947,107.284844 C9.46761553,107.289907 11.7184831,107.110434 12.2530396,106.725933 C12.4412272,107.019874 13.8069418,109.581722 13.9367182,110.314452 C13.446347,110.497576 12.9917761,109.851285 12.7935785,109.80571 C12.4480576,110.343893 12.105834,110.343893 11.9360177,110.319045 C11.6430432,110.232606 11.800353,110.130504 11.9190596,110.094586 C13.7572452,108.542097 11.0358143,107.001031 10.5638379,108.563648 C8.22511796,108.370396 8.83187583,110.25239 9.4317327,110.487919 C9.83241452,110.604271 9.50810296,110.66645 9.38389677,110.709199 C9.23485406,110.739111 8.94457642,110.762075 8.90456006,110.637834 C8.94457642,111.558398 8.83187583,112.278293 8.27847704,112.586482 C7.72368863,112.2737 7.62341218,111.554277 7.66434711,110.631474 C7.62341218,110.753361 7.33544273,110.736756 7.18546968,110.704606 C7.06357168,110.661858 6.74155652,110.599207 7.13579663,110.477792 C7.74071737,110.243205 8.34655668,108.361682 6.00690644,108.554933 C5.53401144,106.997734 2.81484165,108.537387 4.6489408,110.090464 C4.7685424,110.126854 4.92954998,110.228013 4.63559809,110.314452 C4.46401526,110.339301 4.1281981,110.339301 3.77628254,109.799233 C3.57663644,109.848458 3.12167697,110.492512 2.63130572,110.30986 C2.76838356,109.571594 4.13280269,107.019874 4.31312364,106.72087 C4.84950547,107.107255 7.10037308,107.284844 8.28445947,107.284844 L8.28445947,107.284844"
                      id="path18" fill="#FFFFFF"></path>
                <path d="M36.4200749,108.168077 L35.8616358,107.374109 L37.1114701,107.493169 L36.4200749,108.168077 Z M38.4983823,109.047189 L39.3996337,107.517075 L37.6363464,107.517075 L38.4983823,109.047189 L38.4983823,109.047189 Z M35.8303105,106.233207 C36.0639552,106.233207 36.2497875,106.04549 36.2497875,105.807724 C36.2497875,105.57773 36.0639552,105.390955 35.8303105,105.390955 C35.6030251,105.390955 35.4181348,105.57773 35.4181348,105.807724 C35.4181348,106.04549 35.6030251,106.233207 35.8303105,106.233207 Z M37.157045,106.507834 C37.4012885,106.507834 37.5977196,106.311874 37.5977196,106.070339 C37.5977196,105.818794 37.4012885,105.635199 37.157045,105.635199 C36.9421248,105.635199 36.7328574,105.818794 36.7328574,106.070339 C36.7328574,106.311874 36.9421248,106.507834 37.157045,106.507834 Z M38.5058014,106.581436 C38.738504,106.581436 38.933993,106.388185 38.933993,106.149005 C38.933993,105.911239 38.738504,105.713866 38.5058014,105.713866 C38.2775739,105.713866 38.0733703,105.911239 38.0733703,106.149005 C38.0733703,106.388185 38.2775739,106.581436 38.5058014,106.581436 Z M38.5099232,104.175508 C36.8556857,104.168678 35.6218674,104.331075 35.6218674,104.535279 C35.6218674,104.743251 36.845558,104.950634 38.5099232,104.95664 C40.1747595,104.95664 41.3969191,104.745488 41.3969191,104.543522 C41.3969191,104.336139 40.1659271,104.178806 38.5099232,104.175508 L38.5099232,104.175508 Z M41.2235698,106.233207 C40.9972265,106.233207 40.8053882,106.04549 40.8053882,105.807724 C40.8053882,105.57773 40.9972265,105.390955 41.2235698,105.390955 C41.4503842,105.390955 41.6371586,105.57773 41.6371586,105.807724 C41.6371586,106.04549 41.4503842,106.233207 41.2235698,106.233207 Z M39.8987196,106.507834 C39.6525918,106.507834 39.4534521,106.311874 39.4534521,106.070339 C39.4534521,105.818794 39.6525918,105.635199 39.8987196,105.635199 C40.119999,105.635199 40.3223184,105.818794 40.3223184,106.070339 C40.3223184,106.311874 40.119999,106.507834 39.8987196,106.507834 Z M40.6383982,108.168077 L41.1927155,107.374109 L39.9442944,107.493169 L40.6383982,108.168077 Z M38.5066258,105.298039 C39.3705459,105.302161 40.7230708,105.214309 41.5354101,104.960762 C41.7308992,105.379886 42.0841926,106.089181 42.2793283,106.376291 C41.5836936,106.78988 39.4441487,106.916359 38.5099232,106.909411 C37.5733424,106.909411 35.4369772,106.787995 34.7436977,106.371698 C34.9332985,106.087886 35.2897716,105.37388 35.4857316,104.95664 C36.2977177,105.205947 37.6482406,105.295684 38.5066258,105.298039 Z M38.5075679,107.284844 C39.6921607,107.289907 41.9425219,107.110434 42.4811766,106.725933 C42.6657135,107.019874 44.0296616,109.581722 44.1612045,110.314452 C43.6694201,110.497576 43.2205019,109.851285 43.0180648,109.80571 C42.6725438,110.343893 42.3285538,110.343893 42.1623882,110.319045 C41.8684481,110.232606 42.0230728,110.130504 42.1430748,110.094586 C43.979965,108.542097 41.2607834,107.001031 40.7892545,108.563648 C38.4464481,108.370396 39.0563503,110.25239 39.6598932,110.487919 C40.056995,110.604271 39.7322006,110.66645 39.6093723,110.709199 C39.4588693,110.739111 39.1690509,110.762075 39.1332505,110.637834 C39.1690509,111.558398 39.0563503,112.278293 38.5029751,112.586482 C37.9491288,112.2737 37.8474981,111.554277 37.8865959,110.631474 C37.8474981,110.753361 37.5613304,110.736756 37.4127116,110.704606 C37.2908254,110.661858 36.9656777,110.599207 37.3588933,110.477792 C37.9666757,110.243205 38.5678633,108.361682 36.2309452,108.554933 C35.7552945,106.997734 33.0407058,108.537387 34.8739452,110.090464 C34.9958315,110.126854 35.1526937,110.228013 34.8601668,110.314452 C34.6848155,110.339301 34.3536618,110.339301 33.9994263,109.799233 C33.8007576,109.848458 33.3498375,110.492512 32.8548734,110.30986 C32.9911269,109.571594 34.3582546,107.019874 34.5399652,106.72087 C35.0740271,107.107255 37.3272146,107.284844 38.5075679,107.284844 L38.5075679,107.284844"
                      id="path20" fill="#FFFFFF"></path>
                <path d="M9.13917043,90.8649438 C9.27670755,90.8649438 9.3857339,90.7591913 9.3857339,90.618345 C9.3857339,90.4868021 9.27670755,90.3726884 9.13917043,90.3726884 C9.00391794,90.3726884 8.89351375,90.4868021 8.89351375,90.618345 C8.89351375,90.7591913 9.00391794,90.8649438 9.13917043,90.8649438 Z M7.37178485,87.3177603 C7.48034013,87.5615327 7.74071737,88.3081595 7.85525509,88.5501655 C7.74071737,88.8105427 7.48034013,89.0520776 7.25907247,89.0520776 C7.37178485,89.2958501 7.79315789,89.6132253 7.71219482,89.8284988 C7.63031318,90.0451854 7.43663774,90.025872 7.00423016,90.2526864 C7.15787747,90.560876 7.47297985,90.7259818 7.7057531,90.7664927 C7.93484032,90.8092412 7.94036347,91.1492273 8.34426027,91.3695646 C8.74722673,91.5867223 9.11478141,91.6424249 9.70453409,91.6101574 C10.2947343,91.5793031 12.2291334,91.0461834 11.7281398,88.8105427 C12.8445705,86.5743132 16.7234966,89.5584648 18.1021652,89.5584648 C17.841788,89.0520776 17.4687101,88.5501655 17.2244666,88.064387 C17.599782,87.8011834 18.1021652,88.064387 18.4724167,88.064387 C18.1021652,86.8375168 17.3569517,86.3351336 16.7234966,85.8290997 C17.3569517,83.835936 19.6538298,84.6036426 21.7160034,84.8405847 C21.4616322,84.1601416 20.5977121,84.0966666 20.2236921,83.5961676 C20.9266282,82.8560179 21.7160034,81.8578463 22.2188577,80.8568483 C21.2924047,81.4686347 19.350233,82.1025608 18.7134806,82.3431536 C17.4687101,82.8537804 14.9717501,82.8537804 13.7214448,82.3431536 C13.9826464,81.8578463 14.4684248,81.5992355 14.8566942,81.3586427 C14.2274787,80.1083373 12.9775266,80.8568483 12.2291334,81.1001497 C11.597963,80.612487 10.4322714,80.5762156 10.1084191,80.8568483 C10.1084191,80.8568483 10.1084191,81.1640958 10.4810377,81.4368383 C10.7349732,81.7910738 9.73489377,81.8578463 9.47359797,82.3431536 C9.48095825,82.8026706 9.95753927,82.3509261 10.239067,82.8537804 C9.60516443,84.0966666 6.99732917,84.3382015 7.37178485,87.3177603 L7.37178485,87.3177603"
                      id="path22" fill="#ED192E"></path>
                <path d="M26.7448995,90.5084708 C26.8852748,90.5084708 26.995149,90.3924728 26.995149,90.2572792 C26.995149,90.1123111 26.8852748,90.0019658 26.7448995,90.0019658 C26.6055842,90.0019658 26.4928836,90.1123111 26.4928836,90.2572792 C26.4928836,90.3924728 26.6055842,90.5084708 26.7448995,90.5084708 Z M25.0083447,86.9603451 C25.1238716,87.2018801 25.3823646,87.9470936 25.4950652,88.1889818 C25.3823646,88.4493591 25.1238716,88.6899519 24.8998836,88.6899519 C25.0083447,88.9346664 25.4315902,89.2516884 25.350686,89.4655487 C25.2710772,89.6882413 25.0760593,89.6661016 24.6431571,89.8915027 C24.7976641,90.1993391 25.114686,90.3625606 25.3432668,90.4067223 C25.574674,90.4518261 25.5787958,90.7886325 25.9849654,91.0084987 C26.3874844,91.2233011 26.7564404,91.2807702 27.3425542,91.2522712 C27.9340851,91.216353 29.8716639,90.6809957 29.3698695,88.4493591 C30.4867477,86.2151316 34.3619053,89.1904509 35.7388075,89.1904509 C35.4789013,88.6899519 35.1085321,88.1889818 34.8642885,87.7046166 C35.2373664,87.4420018 35.7388075,87.7046166 36.1118853,87.7046166 C35.7388075,86.4759799 34.9977157,85.9745388 34.3619053,85.469918 C34.9977157,83.4747524 37.2927096,84.2421057 39.35453,84.47893 C39.1001587,83.7981336 38.2384761,83.7351296 37.8668114,83.2286247 C38.5659791,82.4967185 39.35453,81.5021976 39.8577375,80.4956647 C38.9312845,81.1098064 36.9872286,81.7437325 36.3551867,81.9838542 C35.1085321,82.4875329 32.6120431,82.4875329 31.3617377,81.9838542 C31.6224683,81.5021976 32.1074224,81.2391117 32.5006379,80.9943972 C31.8649453,79.7463293 30.61464,80.4956647 29.8716639,80.734491 C29.239151,80.2537764 28.0706919,80.2169162 27.7455442,80.4956647 C27.7455442,80.4956647 27.7455442,80.8080938 28.1194464,81.0813074 C28.3761729,81.4300079 27.3737618,81.5021976 27.1152688,81.9838542 C27.1189195,82.4443133 27.5983386,81.9925688 27.8752029,82.4875329 C27.2450452,83.7351296 24.6376221,83.9771356 25.0083447,86.9603451 L25.0083447,86.9603451"
                      id="path24" fill="#ED192E"></path>
                <path d="M18.3183808,78.0199022 C18.4443888,78.0199022 18.5455484,77.9127366 18.5455484,77.788024 C18.5455484,77.6606028 18.4443888,77.5556747 18.3183808,77.5556747 C18.1868379,77.5556747 18.0833229,77.6606028 18.0833229,77.788024 C18.0833229,77.9127366 18.1868379,78.0199022 18.3183808,78.0199022 Z M16.5579197,74.4689502 C16.6706203,74.7091897 16.9332351,75.458054 17.0436982,75.7022975 C16.9332351,75.9612616 16.6706203,76.200559 16.4474567,76.200559 C16.5579197,76.4443314 16.9838738,76.7599402 16.9028519,76.9793354 C16.8178259,77.1996727 16.6310515,77.1794172 16.1926144,77.4021098 C16.3490056,77.7163054 16.6646144,77.8763474 16.8955505,77.9186248 C17.1269577,77.9627865 17.1328459,78.3041857 17.5335984,78.5240519 C17.9370594,78.7375589 18.3087241,78.7964411 18.8956622,78.7627605 C19.4844845,78.732024 21.4225344,78.1974911 20.9210933,75.9612616 C22.0371472,73.7283295 25.9113626,76.7074172 27.2900313,76.7074172 C27.0324804,76.200559 26.6579894,75.7022975 26.414688,75.2151059 C26.7909454,74.9561418 27.2900313,75.2151059 27.6673486,75.2151059 C27.2900313,73.9869403 26.547644,73.4869123 25.9113626,72.9826449 C26.547644,70.9866549 28.8431091,71.7576589 30.9066958,71.9927168 C30.6509114,71.3087407 29.7861669,71.2470322 29.4157977,70.74512 C30.1159074,70.0073256 30.9066958,69.0126869 31.4090791,68.0053296 C30.4848635,68.6217089 28.5395123,69.2551639 27.9074704,69.4994074 C26.6579894,70.0017907 24.1619715,70.0017907 22.911195,69.4994074 C23.175223,69.0126869 23.6559375,68.7532518 24.0492709,68.507124 C23.417229,67.2637668 22.1677479,68.0053296 21.4225344,68.2454514 C20.7877839,67.7623815 19.6234466,67.7297608 19.2995943,68.0053296 C19.2995943,68.0053296 19.2995943,68.317641 19.6698458,68.5908546 C19.9256302,68.9460322 18.9265165,69.0126869 18.6670814,69.4994074 C18.6721452,69.9562158 19.1523887,69.5035292 19.429253,70.0017907 C18.796269,71.2470322 16.1856663,71.4908046 16.5579197,74.4689502 L16.5579197,74.4689502"
                      id="path26" fill="#ED192E"></path>
                <path d="M18.3869197,114.820356 C18.3869197,114.820356 19.4886063,114.366728 20.4868957,114.801985 C21.5743328,115.270688 22.5550753,115.432143 23.3371491,115.086269 L23.3371491,105.534864 C22.6618877,105.856949 21.9152609,105.73365 20.8626821,105.476924 C19.8056282,105.221139 19.1835963,105.23586 18.4002271,105.364694 L18.3869197,114.820356 Z M18.0671892,114.742161 L17.2396583,113.962442 L17.2396583,104.487938 L18.0671892,105.269069 L18.0671892,114.742161 L18.0671892,114.742161 Z M17.4899077,104.300692 L18.3565365,105.061097 C19.0015325,104.80072 20.3990434,105.092776 21.0637061,105.216075 C22.1746961,105.42864 22.6319755,105.56348 23.3619974,105.23586 C22.9659555,105.003157 22.715235,104.685664 22.7359615,104.289622 L17.4899077,104.300692 L17.4899077,104.300692 Z M29.6168216,104.307993 L28.7465422,105.06569 C28.099662,104.805313 26.7045063,105.095131 26.0392548,105.221139 C24.9293247,105.433704 24.4711032,105.569369 23.7419056,105.242808 C24.1390074,105.013756 24.3883148,104.690257 24.3690014,104.300692 L29.6168216,104.307993 Z M28.9833665,114.818943 L29.8110152,114.038283 L29.8110152,104.564249 L28.9833665,105.340788 L28.9833665,114.818943 Z M28.6595143,114.820356 C28.6595143,114.820356 27.5725482,114.366728 26.5770852,114.801985 C25.4890592,115.270688 24.5056082,115.432143 23.7225922,115.086269 L23.7225922,105.534864 C24.3989136,105.856949 25.1468357,105.73365 26.1998856,105.476924 C27.255173,105.221139 27.8752029,105.23586 28.6595143,105.364694 L28.6595143,114.820356 Z M23.5358178,105.032598 C23.1825244,104.71381 23.0450932,104.594161 23.1291771,104.279965 L24.015708,104.279965 C24.0593986,104.627724 23.9259715,104.762093 23.5358178,105.032598 L23.5358178,105.032598"
                      id="path28" fill="#FFFFFF"></path>
                <path d="M21.4934286,107.868602 C21.4934286,107.636724 21.5743328,107.410852 21.8480174,107.410852 C22.0675304,107.410852 22.1819974,107.584319 22.1819974,107.811486 C22.1819974,107.949035 22.1567959,108.22743 21.8480174,108.22743 C21.7128238,108.22743 21.5251072,108.1795 21.4934286,107.868602 L21.4934286,107.868602 Z M21.2398817,107.775215 C21.2142091,108.124858 21.4340753,108.485923 21.8480174,108.471203 C22.1705743,108.471203 22.467223,108.247686 22.4364865,107.80183 C22.4235324,107.514838 22.27774,107.184979 21.8332969,107.174852 C21.3862629,107.184979 21.2504805,107.546045 21.2398817,107.775215 L21.2398817,107.775215 Z M19.9444726,107.079698 L19.9444726,108.328119 L20.2030833,108.328119 L20.7154765,107.483041 L20.7154765,108.328119 L20.9740873,108.328119 L20.9740873,107.079698 L20.7154765,107.079698 L20.2136821,107.926071 L20.2136821,107.079698 L19.9444726,107.079698 L19.9444726,107.079698 Z M19.3860334,106.928253 L19.3860334,108.17267 L19.6538298,108.17267 L19.6538298,106.928253 L19.3860334,106.928253 Z M21.4690514,109.927596 L21.4690514,111.178372 L21.8480174,111.178372 L22.0781292,110.232606 L22.3076521,111.178372 L22.6774326,111.178372 L22.6774326,109.927596 L22.4235324,109.927596 L22.4235324,110.925414 L22.209201,109.927596 L21.9401092,109.927596 L21.7243647,110.925414 L21.7243647,109.927596 L21.4690514,109.927596 Z M20.2825743,110.546331 C20.2825743,110.314452 20.3626542,110.08858 20.6368099,110.08858 C20.8553807,110.08858 20.9740873,110.260163 20.9740873,110.487919 C20.9740873,110.628648 20.9482969,110.906572 20.6368099,110.906572 C20.5002031,110.906572 20.3129576,110.854991 20.2825743,110.546331 Z M20.0286741,110.449764 C20.0038258,110.802115 20.2195704,111.166478 20.6368099,111.147165 C20.9601911,111.147165 21.2574286,110.925414 21.2275164,110.475436 C21.2142091,110.193508 21.0637061,109.860941 20.6244446,109.851285 C20.1745843,109.860941 20.0424526,110.223891 20.0286741,110.449764 L20.0286741,110.449764 Z M19.0764307,109.851285 L19.3299776,109.851285 C19.6722011,109.851285 19.6975205,110.661858 19.3184366,110.661858 L19.0764307,110.661858 L19.0764307,109.851285 L19.0764307,109.851285 Z M19.4311372,109.633656 L18.8220594,109.633656 L18.8220594,110.889025 L19.4140614,110.889025 C20.0783708,110.80765 19.9398797,109.700311 19.4311372,109.633656 Z M20.3580614,112.427382 L20.3580614,113.677217 L20.6129037,113.677217 L21.1263568,112.833081 L21.1263568,113.677217 L21.380728,113.677217 L21.380728,112.427382 L21.1263568,112.427382 L20.6244446,113.271989 L20.6244446,112.427382 L20.3580614,112.427382 Z M19.8056282,112.278293 L19.8056282,113.524476 L20.0728358,113.524476 L20.0728358,112.278293 L19.8056282,112.278293 Z M26.437652,107.643672 C26.437652,107.416387 26.519145,107.184979 26.7909454,107.184979 C27.0052768,107.184979 27.1249255,107.359742 27.1249255,107.588911 C27.1249255,107.724576 27.1037279,108.005209 26.7909454,108.005209 C26.6533965,108.005209 26.4685063,107.950919 26.437652,107.643672 L26.437652,107.643672 Z M26.1837518,107.551109 C26.1570193,107.901694 26.3755902,108.267353 26.7909454,108.247686 C27.1152688,108.247686 27.4128596,108.024522 27.3807099,107.574191 C27.369169,107.289907 27.2187838,106.962287 26.7776381,106.948037 C26.3341371,106.962287 26.1934085,107.32347 26.1837518,107.551109 L26.1837518,107.551109 Z M25.1550792,107.376347 L25.4086261,107.376347 C25.7499075,107.376347 25.7715762,108.191041 25.3953187,108.191041 L25.1550792,108.191041 L25.1550792,107.376347 Z M25.5080193,107.170259 L24.8948197,107.170259 L24.8948197,108.413734 L25.4890592,108.413734 C26.1492469,108.33177 26.0139355,107.231025 25.5080193,107.170259 Z M26.4509594,109.633656 L26.4509594,110.889025 L26.7154584,110.889025 L26.7154584,109.633656 L26.4509594,109.633656 Z M25.2682509,109.774856 L25.2682509,111.025161 L26.1492469,111.025161 L26.1492469,110.802115 L25.5309834,110.802115 L25.5309834,110.516418 L26.0807079,110.516418 L26.0807079,110.300203 L25.5309834,110.300203 L25.5309834,109.774856 L25.2682509,109.774856 L25.2682509,109.774856 Z M26.8838616,112.143099 L26.8838616,113.38834 L27.1382329,113.38834 L27.6558077,112.544205 L27.6558077,113.38834 L27.9115921,113.38834 L27.9115921,112.143099 L27.6558077,112.143099 L27.1483606,112.984879 L27.1483606,112.143099 L26.8838616,112.143099 Z M25.6717119,112.943544 C25.6717119,112.711195 25.7549714,112.482143 26.028656,112.482143 C26.2467558,112.482143 26.3631071,112.656905 26.3631071,112.885957 C26.3631071,113.023035 26.3382588,113.303197 26.028656,113.303197 C25.8915782,113.303197 25.7062169,113.252676 25.6717119,112.943544 Z M25.4182828,112.848273 C25.3953187,113.197444 25.609179,113.565458 26.028656,113.547087 C26.3512129,113.547087 26.6473906,113.322039 26.6188916,112.870766 C26.6055842,112.586482 26.4547279,112.25945 26.0139355,112.24838 C25.5659594,112.25945 25.4315902,112.620987 25.4182828,112.848273 Z M24.1964764,113.059895 C24.2061331,113.44946 24.4250573,113.677217 24.7792928,113.677217 C25.0898377,113.677217 25.2880353,113.500099 25.2986341,113.220879 L25.045676,113.220879 C25.045676,113.314738 24.9771371,113.44946 24.7898916,113.44946 C24.5989954,113.44946 24.4481391,113.271989 24.4481391,113.003251 C24.4481391,112.81471 24.5621351,112.601674 24.7618637,112.601674 C24.8948197,112.601674 25.0323686,112.649133 25.045676,112.845917 L25.2986341,112.845917 C25.3317259,112.626051 25.0898377,112.364732 24.7792928,112.364732 C24.4481391,112.364732 24.1831691,112.601674 24.1964764,113.059895 L24.1964764,113.059895"
                      id="path30" fill="#ED192E"></path>
                <polyline id="path32" fill="#231F20" fill-rule="nonzero"
                          points="69.7979404 46.7300008 80.2086726 46.7300008 80.2086726 44.6322624 72.363086 44.6322624 72.363086 39.6065459 79.169519 39.6065459 79.169519 37.5489651 72.363086 37.5489651 72.363086 30.8272048 69.7979404 30.8272048 69.7979404 46.7300008"></polyline>
                <path d="M85.3787683,32.3967696 C86.9690597,32.3967696 88.4746784,33.5628734 88.4746784,35.9586738 L86.2482234,35.4296758 C84.4887045,35.004075 83.9582933,34.4543504 83.9582933,33.6263485 C83.9582933,32.9064543 84.4675069,32.3967696 85.3787683,32.3967696 Z M85.5908621,36.9338813 L88.4746784,37.4652346 C88.4319299,39.3936278 87.6476186,40.2206876 86.2905008,40.2206876 C85.1460657,40.2206876 84.2766107,39.5007934 84.0428482,38.0999851 L81.6894431,38.7150689 C82.2621317,41.0266676 84.1702694,42.1712205 86.4603172,42.1712205 C89.0897622,42.1712205 90.9344249,40.5174541 90.9344249,37.7398613 L90.9344249,33.6686259 C90.9344249,33.0329333 91.2310736,32.7568934 91.7826823,32.7568934 L92.1005286,32.7568934 L92.1005286,30.8272048 L91.2310736,30.8272048 C89.7471235,30.8272048 88.835391,31.5493365 88.5598221,32.7361668 C87.8597124,31.4214443 86.4603172,30.5727158 84.8065508,30.5727158 C82.7070458,30.5727158 81.4985469,31.7609593 81.4985469,33.4147257 C81.4985469,35.0892187 82.6228442,36.4048833 85.5908621,36.9338813"
                      id="path34" fill="#231F20" fill-rule="nonzero"></path>
                <path d="M98.8605624,42.1712205 C101.150492,42.1712205 102.974429,40.9207974 103.589041,38.6943423 L101.256716,37.9527795 C100.93887,39.3729012 100.069415,40.2630828 98.7970874,40.2630828 C97.0365086,40.2630828 95.8920735,38.6313384 95.8920735,36.2139871 C95.8920735,34.0081409 97.0158998,32.6083924 98.7754187,32.6083924 C100.090141,32.6083924 101.06582,33.4571209 101.574562,34.9834662 L103.86461,34.0505361 C102.868205,31.7816858 101.023542,30.5727158 98.690746,30.5727158 C95.7007062,30.5727158 93.3471833,32.4809712 93.3471833,36.0009512 C93.3471833,39.9240389 95.8920735,42.1712205 98.8605624,42.1712205"
                      id="path36" fill="#231F20" fill-rule="nonzero"></path>
                <path d="M105.981544,41.9181447 L108.44082,41.9181447 L108.44082,35.4710111 C108.44082,33.4998694 109.310746,32.5025221 110.752889,32.5025221 C112.363907,32.5025221 113.530011,33.7759093 113.530011,35.7677775 L113.530011,41.9181447 L115.990229,41.9181447 L115.990229,30.8272048 L113.530011,30.8272048 L113.530011,32.7992886 C112.87265,31.3998934 111.621402,30.5727158 109.904632,30.5727158 C107.487163,30.5727158 105.981544,32.2899573 105.981544,35.0257436 L105.981544,41.9181447"
                      id="path38" fill="#231F20" fill-rule="nonzero"></path>
                <polyline id="path40" fill="#231F20" fill-rule="nonzero"
                          points="119.039857 46.7300008 121.498779 46.7300008 121.498779 30.8272048 119.039857 30.8272048 119.039857 46.7300008"></polyline>
                <path d="M125.038779,40.0297914 L123.490177,40.0297914 L123.490177,41.9181447 L125.038779,41.9181447 L125.038779,45.0347813 L127.498879,45.0347813 L127.498879,41.9181447 L130.169777,41.9181447 L130.169777,40.0297914 L127.498879,40.0297914 L127.498879,34.1990371 C127.498879,33.2868335 127.921653,32.8627636 128.813131,32.8627636 L130.254568,32.8627636 L130.254568,30.8272048 L128.346783,30.8272048 C126.225845,30.8272048 125.038779,32.0784523 125.038779,33.9231149 L125.038779,40.0297914"
                      id="path42" fill="#231F20" fill-rule="nonzero"></path>
                <path d="M132.181194,28.1981131 L133.36826,28.1981131 C134.386923,28.1981131 134.959258,28.5164304 135.362013,29.5975082 L135.637581,30.3612108 L131.121314,41.9181447 L133.772192,41.9181447 L136.80345,33.5628734 L139.835885,41.9181447 L142.274787,41.9181447 L137.269797,28.9189494 C136.527881,26.9905562 135.510396,26.1625542 133.622631,26.1625542 L132.181194,26.1625542 L132.181194,28.1981131"
                      id="path44" fill="#231F20" fill-rule="nonzero"></path>
                <path d="M153.317561,32.4602447 C155.099337,32.4602447 156.24283,34.0081409 156.24283,36.3611927 C156.24283,38.7372086 155.099337,40.3058313 153.317561,40.3058313 C151.493389,40.3058313 150.348719,38.7372086 150.348719,36.3611927 C150.348719,34.0081409 151.493389,32.4602447 153.317561,32.4602447 Z M153.317561,42.1712205 C156.285226,42.1712205 158.808918,40.1149351 158.808918,36.3611927 C158.808918,32.6304144 156.285226,30.5727158 153.317561,30.5727158 C150.306324,30.5727158 147.783809,32.6304144 147.783809,36.3611927 C147.783809,40.1149351 150.306324,42.1712205 153.317561,42.1712205"
                      id="path46" fill="#231F20" fill-rule="nonzero"></path>
                <path d="M161.645864,40.0297914 L160.098439,40.0297914 L160.098439,41.9181447 L161.645864,41.9181447 L161.645864,43.6349151 C161.645864,45.4795777 162.834108,46.7300008 164.953868,46.7300008 L166.86283,46.7300008 L166.86283,44.6943242 L165.420215,44.6943242 C164.529916,44.6943242 164.105964,44.2711965 164.105964,43.3810149 L164.105964,41.9181447 L166.840455,41.9181447 L166.840455,40.0297914 L164.105964,40.0297914 L164.105964,30.8272048 L161.645864,30.8272048 L161.645864,40.0297914"
                      id="path48" fill="#231F20" fill-rule="nonzero"></path>
                <polyline id="path50" fill="#231F20" fill-rule="nonzero"
                          points="69.7979404 20.8218178 80.5265189 20.8218178 80.5265189 18.7240794 72.363086 18.7240794 72.363086 14.2917781 79.31802 14.2917781 79.31802 12.2562193 72.363086 12.2562193 72.363086 7.01895072 80.7601636 7.01895072 80.7601636 4.91896295 69.7979404 4.91896295 69.7979404 20.8218178"></polyline>
                <path d="M83.448962,16.0099617 L85.9087084,16.0099617 L85.9087084,14.0364647 C86.5872673,15.4151333 87.8168461,16.2630375 89.5340876,16.2630375 C91.9520276,16.2630375 93.4571753,14.545796 93.4571753,11.8100097 L93.4571753,4.91896295 L90.9978999,4.91896295 L90.9978999,11.3661083 C90.9978999,13.3372971 90.1284449,14.3341733 88.6863012,14.3341733 C87.0748122,14.3341733 85.9087084,13.0612572 85.9087084,11.0694007 L85.9087084,4.91896295 L83.448962,4.91896295 L83.448962,16.0099617"
                      id="path52" fill="#231F20" fill-rule="nonzero"></path>
                <path d="M100.831704,9.85955923 C102.294574,9.85955923 103.270724,10.8347903 103.270724,12.2134708 C103.270724,13.613337 102.294574,14.5885445 100.831704,14.5885445 C99.3476362,14.5885445 98.3512311,13.613337 98.3512311,12.2134708 C98.3512311,10.8347903 99.3476362,9.85955923 100.831704,9.85955923 L100.831704,9.85955923 Z M100.195894,1.63214487 C103.270724,1.63214487 104.394079,2.60829455 104.394079,3.49842905 C104.394079,4.24043941 103.779466,4.70736375 102.422467,4.70736375 C100.789309,4.70736375 99.7930215,4.55876855 98.690275,4.55876855 C98.5840514,4.55876855 98.4571013,4.55876855 98.3512311,4.58084939 C97.7145964,4.13463982 97.4179477,3.54121289 97.4179477,3.07430032 C97.4179477,2.37507379 97.9906363,1.63214487 100.195894,1.63214487 Z M97.1423788,4.8554879 C96.3786762,5.19497931 95.9761573,5.83209686 95.9761573,6.61643177 C95.9761573,7.63306887 96.7181912,8.39670079 98.139255,8.77851675 C96.8245325,9.45704028 95.9550774,10.6438824 95.9550774,12.2134708 C95.9550774,14.7150236 98.1603349,16.2630375 100.831704,16.2630375 C102.273848,16.2630375 103.609768,15.7970435 104.499832,14.970337 C104.987965,15.7970435 105.793945,16.2630375 106.853355,16.2630375 L106.853355,14.3769218 C106.302688,14.3769218 105.751079,14.3125046 105.178391,14.1216084 C105.496237,13.5704707 105.687133,12.9347781 105.687133,12.2134708 C105.687133,9.71235365 103.482347,8.18508982 100.831704,8.18508982 C98.4993788,8.18508982 98.0324427,7.67677127 98.0324427,7.29495531 C98.0324427,6.93384234 98.3931552,6.74293436 99.2626103,6.74293436 C100.217091,6.74293436 101.489065,6.97616689 103.142832,6.97616689 C105.136584,6.97616689 106.705207,5.87350285 106.705207,3.92302884 C106.705207,1.1661438 103.694323,0 100.068001,0 C96.2306463,0 95.255321,1.25124747 95.255321,2.52319794 C95.255321,3.49842905 95.9122112,4.34625079 97.1423788,4.8554879"
                      id="path54" fill="#231F20" fill-rule="nonzero"></path>
                <path d="M108.651971,16.0099617 L111.112189,16.0099617 L111.112189,4.91896295 L108.651971,4.91896295 L108.651971,16.0099617 Z M109.903219,21.1621572 C110.730396,21.1621572 111.451233,20.4615763 111.451233,19.6348698 C111.451233,18.8078099 110.730396,18.129251 109.903219,18.129251 C109.033764,18.129251 108.312927,18.8078099 108.312927,19.6348698 C108.312927,20.4615763 109.033764,21.1621572 109.903219,21.1621572"
                      id="path56" fill="#231F20" fill-rule="nonzero"></path>
                <path d="M114.163937,16.0099617 L116.623684,16.0099617 L116.623684,14.0364647 C117.302125,15.4151333 118.531115,16.2630375 120.249298,16.2630375 C122.667003,16.2630375 124.172033,14.545796 124.172033,11.8100097 L124.172033,4.91896295 L121.713111,4.91896295 L121.713111,11.3661083 C121.713111,13.3372971 120.842831,14.3341733 119.401394,14.3341733 C117.789199,14.3341733 116.623684,13.0612572 116.623684,11.0694007 L116.623684,4.91896295 L114.163937,4.91896295 L114.163937,16.0099617"
                      id="path58" fill="#231F20" fill-rule="nonzero"></path>
                <path d="M129.023929,11.5349354 L134.430496,11.5349354 C134.239717,13.4647182 133.222232,14.4620655 131.865586,14.4620655 C130.380576,14.4620655 129.341893,13.3795745 129.023929,11.5349354 Z M131.907981,16.2630375 C134.664847,16.2630375 136.890595,14.4399258 136.954188,10.7506123 C136.954188,10.4529744 136.954188,10.1999692 136.932991,9.90326163 L128.939138,9.90326163 C129.087522,7.97347884 130.25339,6.67945931 132.013969,6.67945931 C133.285825,6.67945931 134.325685,7.40076668 134.896843,8.67270537 L136.975386,7.52726927 C135.809518,5.51330845 133.964148,4.66457992 131.759598,4.66457992 C128.790755,4.66457992 126.415446,6.72223137 126.415446,10.09278 C126.415446,13.9951294 128.83315,16.2630375 131.907981,16.2630375"
                      id="path60" fill="#231F20" fill-rule="nonzero"></path>
                <path d="M141.274967,11.5349354 L146.682711,11.5349354 C146.491932,13.4647182 145.474447,14.4620655 144.116623,14.4620655 C142.632791,14.4620655 141.592931,13.3795745 141.274967,11.5349354 Z M144.159018,16.2630375 C146.914707,16.2630375 149.141633,14.4399258 149.206403,10.7506123 C149.206403,10.4529744 149.206403,10.1999692 149.184028,9.90326163 L141.190176,9.90326163 C141.338559,7.97347884 142.504428,6.67945931 144.265006,6.67945931 C145.536863,6.67945931 146.575545,7.40076668 147.149058,8.67270537 L149.226423,7.52726927 C148.060555,5.51330845 146.216364,4.66457992 144.010635,4.66457992 C141.041793,4.66457992 138.667661,6.72223137 138.667661,10.09278 C138.667661,13.9951294 141.084188,16.2630375 144.159018,16.2630375"
                      id="path62" fill="#231F20" fill-rule="nonzero"></path>
                <path d="M151.619397,16.0099617 L154.07832,16.0099617 L154.07832,13.8455685 C154.651832,15.3521294 155.626922,16.2630375 157.025964,16.2630375 C157.513509,16.2630375 158.044627,16.1364407 158.489776,15.839792 L157.661892,13.5074667 C157.23794,13.8042332 156.79279,13.9307122 156.347641,13.9307122 C154.968619,13.9307122 154.07832,12.6794648 154.07832,10.7289907 L154.07832,4.91896295 L151.619397,4.91896295 L151.619397,16.0099617"
                      id="path64" fill="#231F20" fill-rule="nonzero"></path>
                <path d="M159.992451,16.0099617 L162.452551,16.0099617 L162.452551,4.91896295 L159.992451,4.91896295 L159.992451,16.0099617 Z M161.24311,21.1621572 C162.070994,21.1621572 162.791712,20.4615763 162.791712,19.6348698 C162.791712,18.8078099 162.070994,18.129251 161.24311,18.129251 C160.374008,18.129251 159.653289,18.8078099 159.653289,19.6348698 C159.653289,20.4615763 160.374008,21.1621572 161.24311,21.1621572"
                      id="path66" fill="#231F20" fill-rule="nonzero"></path>
                <path d="M165.503828,16.0099617 L167.96275,16.0099617 L167.96275,14.0364647 C168.642251,15.4151333 169.871712,16.2630375 171.589896,16.2630375 C174.005245,16.2630375 175.51263,14.545796 175.51263,11.8100097 L175.51263,4.91896295 L173.052531,4.91896295 L173.052531,11.3661083 C173.052531,13.3372971 172.182251,14.3341733 170.740814,14.3341733 C169.129796,14.3341733 167.96275,13.0612572 167.96275,11.0694007 L167.96275,4.91896295 L165.503828,4.91896295 L165.503828,16.0099617"
                      id="path68" fill="#231F20" fill-rule="nonzero"></path>
                <path d="M182.885864,9.85955923 C184.350854,9.85955923 185.325943,10.8347903 185.325943,12.2134708 C185.325943,13.613337 184.350854,14.5885445 182.885864,14.5885445 C181.403209,14.5885445 180.405744,13.613337 180.405744,12.2134708 C180.405744,10.8347903 181.403209,9.85955923 182.885864,9.85955923 L182.885864,9.85955923 Z M182.249936,1.63214487 C185.325943,1.63214487 186.449416,2.60829455 186.449416,3.49842905 C186.449416,4.24043941 185.833508,4.70736375 184.476862,4.70736375 C182.844646,4.70736375 181.848359,4.55876855 180.744906,4.55876855 C180.638918,4.55876855 180.51291,4.55876855 180.405744,4.58084939 C179.769816,4.13463982 179.473049,3.54121289 179.473049,3.07430032 C179.473049,2.37507379 180.045385,1.63214487 182.249936,1.63214487 L182.249936,1.63214487 Z M179.197481,4.8554879 C178.434367,5.19497931 178.030435,5.83209686 178.030435,6.61643177 C178.030435,7.63306887 178.773528,8.39670079 180.193768,8.77851675 C178.879516,9.45704028 178.010415,10.6438824 178.010415,12.2134708 C178.010415,14.7150236 180.214966,16.2630375 182.885864,16.2630375 C184.328478,16.2630375 185.665105,15.7970435 186.555405,14.970337 C187.042949,15.7970435 187.848458,16.2630375 188.909516,16.2630375 L188.909516,14.3769218 C188.357201,14.3769218 187.806063,14.3125046 187.233728,14.1216084 C187.551692,13.5704707 187.74247,12.9347781 187.74247,12.2134708 C187.74247,9.71235365 185.536742,8.18508982 182.885864,8.18508982 C180.554127,8.18508982 180.08778,7.67677127 180.08778,7.29495531 C180.08778,6.93384234 180.448139,6.74293436 181.317241,6.74293436 C182.272311,6.74293436 183.544167,6.97616689 185.19758,6.97616689 C187.191333,6.97616689 188.761133,5.87350285 188.761133,3.92302884 C188.761133,1.1661438 185.749896,0 182.123928,0 C178.285984,0 177.309716,1.25124747 177.309716,2.52319794 C177.309716,3.49842905 177.96802,4.34625079 179.197481,4.8554879"
                      id="path70" fill="#231F20" fill-rule="nonzero"></path>
                <polyline id="path72" fill="#231F20" fill-rule="nonzero"
                          points="212.171532 46.7322384 222.581911 46.7322384 222.581911 44.6322624 214.736442 44.6322624 214.736442 39.6065459 221.544406 39.6065459 221.544406 37.5502605 214.736442 37.5502605 214.736442 30.8294423 212.171532 30.8294423 212.171532 46.7322384"></polyline>
                <path d="M227.752948,32.3980651 C229.343946,32.3980651 230.848976,33.5642866 230.848976,35.9609113 L228.62205,35.4296758 C226.862649,35.0064303 226.332709,34.4543504 226.332709,33.6272906 C226.332709,32.9064543 226.841451,32.3980651 227.752948,32.3980651 L227.752948,32.3980651 Z M227.966102,36.9362366 L230.848976,37.4652346 C230.806581,39.3949232 230.02227,40.2230429 228.664445,40.2230429 C227.519775,40.2230429 226.650673,39.5007934 226.417499,38.1023404 L224.063388,38.7164821 C224.635723,41.0280808 226.544685,42.173458 228.835204,42.173458 C231.463707,42.173458 233.309076,40.5196916 233.309076,37.7411567 L233.309076,33.6700391 C233.309076,33.0338754 233.605842,32.7592487 234.155803,32.7592487 L234.474944,32.7592487 L234.474944,30.8294423 L233.605842,30.8294423 C232.120833,30.8294423 231.210513,31.5493365 230.933767,32.737109 C230.233068,31.4228575 228.835204,30.574129 227.180613,30.574129 C225.080873,30.574129 223.872609,31.7619014 223.872609,33.4156678 C223.872609,35.0914562 224.996082,36.4048833 227.966102,36.9362366"
                      id="path74" fill="#231F20" fill-rule="nonzero"></path>
                <path d="M241.234625,42.173458 C243.526321,42.173458 245.348138,40.9222106 245.964046,38.6957555 L243.631132,37.9527795 C243.313168,39.3743144 242.444066,40.2643782 241.17221,40.2643782 C239.411631,40.2643782 238.26696,38.6313384 238.26696,36.2139871 C238.26696,34.009083 239.390433,32.6096878 241.151012,32.6096878 C242.465263,32.6096878 243.440353,33.4584163 243.949096,34.9842905 L246.239615,34.0518315 C245.243327,31.7826279 243.397958,30.574129 241.066222,30.574129 C238.076182,30.574129 235.723248,32.4832088 235.723248,36.0023644 C235.723248,39.9248633 238.26696,42.173458 241.234625,42.173458"
                      id="path76" fill="#231F20" fill-rule="nonzero"></path>
                <path d="M248.355842,41.9181447 L250.815942,41.9181447 L250.815942,35.4733664 C250.815942,33.4998694 251.685044,32.5039353 253.126481,32.5039353 C254.738676,32.5039353 255.904545,33.7759093 255.904545,35.7700151 L255.904545,41.9181447 L258.363467,41.9181447 L258.363467,30.8294423 L255.904545,30.8294423 L255.904545,32.800584 C255.247419,31.402131 253.995582,30.574129 252.278577,30.574129 C249.860872,30.574129 248.355842,32.2923126 248.355842,35.0271568 L248.355842,41.9181447"
                      id="path78" fill="#231F20" fill-rule="nonzero"></path>
                <polyline id="path80" fill="#231F20" fill-rule="nonzero"
                          points="261.412389 46.7322384 263.872488 46.7322384 263.872488 30.8294423 261.412389 30.8294423 261.412389 46.7322384"></polyline>
                <path d="M267.411311,40.0321467 L265.862708,40.0321467 L265.862708,41.9181447 L267.411311,41.9181447 L267.411311,45.0347813 L269.87141,45.0347813 L269.87141,41.9181447 L272.542309,41.9181447 L272.542309,40.0321467 L269.87141,40.0321467 L269.87141,34.1999792 C269.87141,33.2882467 270.295363,32.8650012 271.185662,32.8650012 L272.627099,32.8650012 L272.627099,30.8294423 L270.718137,30.8294423 C268.599554,30.8294423 267.411311,32.0806898 267.411311,33.9253524 L267.411311,40.0321467"
                      id="path82" fill="#231F20" fill-rule="nonzero"></path>
                <path d="M280.93656,46.7322384 L283.417857,46.7322384 L280.49141,43.3810149 L278.667239,43.3810149 L280.93656,46.7322384 Z M276.780652,37.444508 L282.188396,37.444508 C281.99644,39.3743144 280.978955,40.3702485 279.622308,40.3702485 C278.137298,40.3702485 277.098616,39.2891707 276.780652,37.444508 Z M279.664704,42.173458 C282.42157,42.173458 284.647318,40.3495219 284.710911,36.6601967 C284.710911,36.3634302 284.710911,36.1081169 284.690891,35.8114682 L276.697039,35.8114682 C276.844245,33.8816618 278.01129,32.5889613 279.770692,32.5889613 C281.042548,32.5889613 282.082408,33.3089732 282.654743,34.5817716 L284.733286,33.4378075 C283.56624,31.4228575 281.720871,30.574129 279.51632,30.574129 C276.548656,30.574129 274.173346,32.6304144 274.173346,36.0023644 C274.173346,39.9042545 276.591051,42.173458 279.664704,42.173458"
                      id="path84" fill="#231F20" fill-rule="nonzero"></path>
                <path d="M216.433428,6.57502578 C218.214026,6.57502578 219.359875,8.14368383 219.359875,10.4552826 C219.359875,12.7875725 218.214026,14.3561952 216.433428,14.3561952 C214.674027,14.3561952 213.592949,12.7875725 213.592949,10.4552826 C213.592949,8.14368383 214.674027,6.57502578 216.433428,6.57502578 Z M215.606721,16.265275 C217.111751,16.265275 218.404805,15.5224168 219.210314,14.1445725 L219.210314,20.8240554 L221.670414,20.8240554 L221.670414,4.92127113 L219.210314,4.92127113 L219.210314,6.78663676 C218.404805,5.40888669 217.111751,4.66595777 215.606721,4.66595777 C213.125424,4.66595777 211.026861,6.72223137 211.026861,10.4552826 C211.026861,14.2076943 213.125424,16.265275 215.606721,16.265275"
                      id="path86" fill="#231F20" fill-rule="nonzero"></path>
                <path d="M226.628298,11.5363133 L232.036042,11.5363133 C231.845264,13.4661314 230.826601,14.4620655 229.469954,14.4620655 C227.984944,14.4620655 226.946262,13.3809877 226.628298,11.5363133 Z M229.51235,16.265275 C232.269216,16.265275 234.496142,14.441339 234.558557,10.7519902 C234.558557,10.4552826 234.558557,10.1999692 234.538537,9.90326163 L226.544685,9.90326163 C226.693068,7.97347884 227.858936,6.68083716 229.618338,6.68083716 C230.890194,6.68083716 231.930054,7.40076668 232.502389,8.67362393 L234.579755,7.52956568 C233.413886,5.51468629 231.568517,4.66595777 229.363966,4.66595777 C226.396302,4.66595777 224.020992,6.72223137 224.020992,10.0941578 C224.020992,13.9960715 226.437519,16.265275 229.51235,16.265275"
                      id="path88" fill="#231F20" fill-rule="nonzero"></path>
                <path d="M245.939315,9.86185564 C247.403128,9.86185564 248.379395,10.8370868 248.379395,12.2148839 C248.379395,13.6141613 247.403128,14.5894867 245.939315,14.5894867 C244.456661,14.5894867 243.459196,13.6141613 243.459196,12.2148839 C243.459196,10.8370868 244.456661,9.86185564 245.939315,9.86185564 Z M245.303387,1.63444128 C248.379395,1.63444128 249.502868,2.60968417 249.502868,3.49981867 C249.502868,4.24273582 248.88696,4.70828232 247.530313,4.70828232 C245.898098,4.70828232 244.900633,4.56015817 243.798357,4.56015817 C243.692369,4.56015817 243.566361,4.56015817 243.459196,4.58084939 C242.823267,4.13693622 242.526501,3.54213145 242.526501,3.07659673 C242.526501,2.37599236 243.098836,1.63444128 245.303387,1.63444128 L245.303387,1.63444128 Z M242.250932,4.85686575 C241.487818,5.19589787 241.083886,5.83209686 241.083886,6.61643177 C241.083886,7.63536528 241.82698,8.39761935 243.247219,8.77943531 C241.932968,9.45795885 241.063866,10.6461788 241.063866,12.2148839 C241.063866,14.7173789 243.268417,16.265275 245.939315,16.265275 C247.38193,16.265275 248.718557,15.7983389 249.608856,14.9712791 C250.096401,15.7983389 250.90191,16.265275 251.962968,16.265275 L251.962968,14.3769218 C251.410652,14.3769218 250.859515,14.3148599 250.287179,14.1239637 C250.605143,13.5718839 250.795922,12.9357202 250.795922,12.2148839 C250.795922,9.71235365 248.590193,8.18600838 245.939315,8.18600838 C243.607579,8.18600838 243.141231,7.67677127 243.141231,7.29495531 C243.141231,6.9347609 243.501591,6.74385293 244.370692,6.74385293 C245.325762,6.74385293 246.597619,6.97754474 248.251032,6.97754474 C250.244784,6.97754474 251.814585,5.87442141 251.814585,3.92394741 C251.814585,1.167524 248.803347,0.00138005825 245.177379,0.00138005825 C241.339435,0.00138005825 240.363168,1.25262532 240.363168,2.52457579 C240.363168,3.49981867 241.021471,4.3485472 242.250932,4.85686575"
                      id="path90" fill="#231F20" fill-rule="nonzero"></path>
                <path d="M259.823746,20.8240554 L262.305043,20.8240554 L259.378596,17.4728319 L257.555602,17.4728319 L259.823746,20.8240554 Z M255.667838,11.5363133 L261.075582,11.5363133 C260.884804,13.4661314 259.867319,14.4620655 258.509495,14.4620655 C257.024485,14.4620655 255.98698,13.3809877 255.667838,11.5363133 Z M258.55189,16.265275 C261.308756,16.265275 263.535682,14.441339 263.598097,10.7519902 C263.598097,10.4552826 263.598097,10.1999692 263.578077,9.90326163 L255.584225,9.90326163 C255.732608,7.97347884 256.898477,6.68083716 258.657878,6.68083716 C259.929734,6.68083716 260.969594,7.40076668 261.54193,8.67362393 L263.620472,7.52956568 C262.453427,5.51468629 260.608057,4.66595777 258.403507,4.66595777 C255.435842,4.66595777 253.060533,6.72223137 253.060533,10.0941578 C253.060533,13.9960715 255.478237,16.265275 258.55189,16.265275"
                      id="path92" fill="#231F20" fill-rule="nonzero"></path>
                <path d="M266.012269,16.0099617 L268.472369,16.0099617 L268.472369,14.03882 C269.150692,15.4165465 270.380153,16.265275 272.098337,16.265275 C274.516041,16.265275 276.021071,14.5470915 276.021071,11.812365 L276.021071,4.92127113 L273.560971,4.92127113 L273.560971,11.3661083 C273.560971,13.3382392 272.691869,14.3354687 271.250432,14.3354687 C269.638237,14.3354687 268.472369,13.0636124 268.472369,11.0694007 L268.472369,4.92127113 L266.012269,4.92127113 L266.012269,16.0099617"
                      id="path94" fill="#231F20" fill-rule="nonzero"></path>
                <path d="M278.964005,16.0099617 L281.424105,16.0099617 L281.424105,4.92127113 L278.964005,4.92127113 L278.964005,16.0099617 Z M280.215841,21.1621572 C281.042548,21.1621572 281.763266,20.4629895 281.763266,19.6358119 C281.763266,18.8092231 281.042548,18.1306642 280.215841,18.1306642 C279.34674,18.1306642 278.624843,18.8092231 278.624843,19.6358119 C278.624843,20.4629895 279.34674,21.1621572 280.215841,21.1621572"
                      id="path96" fill="#231F20" fill-rule="nonzero"></path>
                <path d="M286.383166,11.5363133 L291.790911,11.5363133 C291.600132,13.4661314 290.582647,14.4620655 289.224823,14.4620655 C287.739813,14.4620655 286.702308,13.3809877 286.383166,11.5363133 Z M289.267218,16.265275 C292.024085,16.265275 294.251011,14.441339 294.313426,10.7519902 C294.313426,10.4552826 294.313426,10.1999692 294.293406,9.90326163 L286.299554,9.90326163 C286.447937,7.97347884 287.613805,6.68083716 289.373206,6.68083716 C290.645063,6.68083716 291.684923,7.40076668 292.257258,8.67362393 L294.335801,7.52956568 C293.168755,5.51468629 291.323386,4.66595777 289.118835,4.66595777 C286.15117,4.66595777 283.775861,6.72223137 283.775861,10.0941578 C283.775861,13.9960715 286.193566,16.265275 289.267218,16.265275"
                      id="path98" fill="#231F20" fill-rule="nonzero"></path>
            </g>
        </g>
    </g>
</svg>
