<svg xmlns="http://www.w3.org/2000/svg" xmlns:xlink="http://www.w3.org/1999/xlink" width="400" zoomAndPan="magnify" viewBox="0 0 300 187.499995" height="250" preserveAspectRatio="xMidYMid meet" version="1.0"><defs><clipPath id="61baff05c2"><path d="M 0.398438 0 L 299.601562 0 L 299.601562 187 L 0.398438 187 Z M 0.398438 0 " clip-rule="nonzero"/></clipPath><clipPath id="1c677adb59"><path d="M 73.75 80.027344 L 88.816406 80.027344 L 88.816406 107 L 73.75 107 Z M 73.75 80.027344 " clip-rule="nonzero"/></clipPath><clipPath id="fce3c7b089"><path d="M 88.699219 93.511719 C 88.699219 87.6875 85.425781 82.621094 80.632812 80.035156 C 76.496094 83.082031 73.804688 87.972656 73.804688 93.511719 C 73.804688 99.050781 76.484375 103.9375 80.632812 106.984375 C 85.425781 104.398438 88.699219 99.332031 88.699219 93.511719 " clip-rule="nonzero"/></clipPath><clipPath id="e05f5098e4"><path d="M 81.902344 76.660156 L 107.253906 76.660156 L 107.253906 110.339844 L 81.902344 110.339844 Z M 81.902344 76.660156 " clip-rule="nonzero"/></clipPath><clipPath id="dfab88a839"><path d="M 90.515625 76.796875 C 87.386719 76.796875 84.457031 77.660156 81.953125 79.160156 C 86.84375 82.078125 90.113281 87.414062 90.113281 93.511719 C 90.113281 99.605469 86.84375 104.941406 81.953125 107.859375 C 84.457031 109.359375 87.386719 110.222656 90.515625 110.222656 C 99.742188 110.222656 107.226562 102.734375 107.226562 93.511719 C 107.226562 84.285156 99.753906 76.796875 90.515625 76.796875 " clip-rule="nonzero"/></clipPath><clipPath id="8f21bb9619"><path d="M 56.199219 76.660156 L 81.902344 76.660156 L 81.902344 110.339844 L 56.199219 110.339844 Z M 56.199219 76.660156 " clip-rule="nonzero"/></clipPath><clipPath id="c19caeae3a"><path d="M 80.75 107.082031 C 78.398438 108.414062 75.742188 109.125 73.035156 109.125 C 64.414062 109.125 57.410156 102.109375 57.410156 93.5 C 57.410156 84.886719 64.414062 77.871094 73.035156 77.871094 C 75.742188 77.871094 78.421875 78.582031 80.773438 79.929688 L 81.480469 79.433594 L 81.777344 79.160156 C 79.144531 77.566406 76.132812 76.714844 73.035156 76.714844 C 63.777344 76.714844 56.253906 84.238281 56.253906 93.5 C 56.253906 102.757812 63.777344 110.28125 73.035156 110.28125 C 76.121094 110.28125 79.144531 109.429688 81.777344 107.824219 L 81.824219 107.800781 L 81.101562 107.339844 " clip-rule="nonzero"/></clipPath><clipPath id="2de8c22e5c"><path d="M 121.703125 85.609375 L 139.59375 85.609375 L 139.59375 103.617188 L 121.703125 103.617188 Z M 121.703125 85.609375 " clip-rule="nonzero"/></clipPath><clipPath id="2be3ed2202"><path d="M 136.929688 85.6875 L 139.589844 85.6875 L 139.589844 103.542969 L 136.800781 103.542969 L 136.800781 90.480469 L 130.671875 99.054688 L 124.578125 90.480469 L 124.578125 103.542969 L 121.800781 103.542969 L 121.800781 85.6875 L 124.460938 85.6875 L 130.707031 94.664062 Z M 136.929688 85.6875 " clip-rule="nonzero"/></clipPath><clipPath id="ade21edb72"><path d="M 144.210938 85.253906 L 162.929688 85.253906 L 162.929688 103.972656 L 144.210938 103.972656 Z M 144.210938 85.253906 " clip-rule="nonzero"/></clipPath><clipPath id="665699293e"><path d="M 153.621094 101.324219 C 149.6875 101.324219 147.089844 98.3125 147.089844 94.566406 C 147.089844 90.917969 149.6875 87.90625 153.621094 87.90625 C 157.515625 87.90625 160.128906 90.917969 160.128906 94.566406 C 160.128906 98.3125 157.53125 101.324219 153.621094 101.324219 M 153.621094 85.355469 C 148.292969 85.355469 144.3125 89.335938 144.3125 94.589844 C 144.3125 99.871094 148.292969 103.875 153.621094 103.875 C 158.921875 103.875 162.902344 99.871094 162.902344 94.589844 C 162.902344 89.335938 158.921875 85.355469 153.621094 85.355469 " clip-rule="nonzero"/></clipPath><clipPath id="3df70fcf33"><path d="M 167.550781 85.253906 L 186.269531 85.253906 L 186.269531 103.972656 L 167.550781 103.972656 Z M 167.550781 85.253906 " clip-rule="nonzero"/></clipPath><clipPath id="c3b063f3b9"><path d="M 176.933594 101.324219 C 173 101.324219 170.402344 98.3125 170.402344 94.566406 C 170.402344 90.917969 173 87.90625 176.933594 87.90625 C 180.84375 87.90625 183.441406 90.917969 183.441406 94.566406 C 183.441406 98.3125 180.84375 101.324219 176.933594 101.324219 M 176.933594 85.355469 C 171.609375 85.355469 167.628906 89.335938 167.628906 94.589844 C 167.628906 99.871094 171.609375 103.875 176.933594 103.875 C 182.238281 103.875 186.21875 99.871094 186.21875 94.589844 C 186.230469 89.335938 182.25 85.355469 176.933594 85.355469 " clip-rule="nonzero"/></clipPath><clipPath id="bece6c386a"><path d="M 190.535156 85.609375 L 207.953125 85.609375 L 207.953125 103.617188 L 190.535156 103.617188 Z M 190.535156 85.609375 " clip-rule="nonzero"/></clipPath><clipPath id="1185257909"><path d="M 200.722656 103.542969 L 207.84375 85.6875 L 204.832031 85.6875 L 199.246094 100.09375 L 193.65625 85.6875 L 190.621094 85.6875 L 197.746094 103.542969 Z M 200.722656 103.542969 " clip-rule="nonzero"/></clipPath><clipPath id="ccc2ffa4a5"><path d="M 215.652344 85.609375 L 232.476562 85.609375 L 232.476562 103.617188 L 215.652344 103.617188 Z M 215.652344 85.609375 " clip-rule="nonzero"/></clipPath><clipPath id="6f91a6699c"><path d="M 219.84375 97.058594 L 224.035156 87.042969 L 228.203125 97.058594 Z M 224.777344 85.617188 L 223.265625 85.617188 L 215.695312 103.542969 L 217.125 103.542969 L 219.324219 98.265625 L 228.722656 98.265625 L 230.933594 103.542969 L 232.363281 103.542969 Z M 224.777344 85.617188 " clip-rule="nonzero"/></clipPath><clipPath id="ac4dd45807"><path d="M 238.632812 85.617188 L 239.933594 85.617188 L 239.933594 103.542969 L 238.632812 103.542969 Z M 238.632812 85.617188 " clip-rule="nonzero"/></clipPath></defs><g clip-path="url(#61baff05c2)"><path fill="#ffffff" d="M 0.398438 0 L 299.601562 0 L 299.601562 187 L 0.398438 187 Z M 0.398438 0 " fill-opacity="1" fill-rule="nonzero"/><path fill="#ffffff" d="M 0.398438 0 L 299.601562 0 L 299.601562 187 L 0.398438 187 Z M 0.398438 0 " fill-opacity="1" fill-rule="nonzero"/></g><g clip-path="url(#1c677adb59)"><g clip-path="url(#fce3c7b089)"><path fill="#231f20" d="M 50.347656 70.808594 L 113.101562 70.808594 L 113.101562 116.191406 L 50.347656 116.191406 Z M 50.347656 70.808594 " fill-opacity="1" fill-rule="nonzero"/></g></g><g clip-path="url(#e05f5098e4)"><g clip-path="url(#dfab88a839)"><path fill="#231f20" d="M 50.347656 70.808594 L 113.101562 70.808594 L 113.101562 116.191406 L 50.347656 116.191406 Z M 50.347656 70.808594 " fill-opacity="1" fill-rule="nonzero"/></g></g><g clip-path="url(#8f21bb9619)"><g clip-path="url(#c19caeae3a)"><path fill="#231f20" d="M 50.347656 70.808594 L 113.101562 70.808594 L 113.101562 116.191406 L 50.347656 116.191406 Z M 50.347656 70.808594 " fill-opacity="1" fill-rule="nonzero"/></g></g><g clip-path="url(#2de8c22e5c)"><g clip-path="url(#2be3ed2202)"><path fill="#231f20" d="M 115.898438 79.449219 L 245.863281 79.449219 L 245.863281 109.78125 L 115.898438 109.78125 Z M 115.898438 79.449219 " fill-opacity="1" fill-rule="nonzero"/></g></g><g clip-path="url(#ade21edb72)"><g clip-path="url(#665699293e)"><path fill="#231f20" d="M 115.898438 79.449219 L 245.863281 79.449219 L 245.863281 109.78125 L 115.898438 109.78125 Z M 115.898438 79.449219 " fill-opacity="1" fill-rule="nonzero"/></g></g><g clip-path="url(#3df70fcf33)"><g clip-path="url(#c3b063f3b9)"><path fill="#231f20" d="M 115.898438 79.449219 L 245.863281 79.449219 L 245.863281 109.78125 L 115.898438 109.78125 Z M 115.898438 79.449219 " fill-opacity="1" fill-rule="nonzero"/></g></g><g clip-path="url(#bece6c386a)"><g clip-path="url(#1185257909)"><path fill="#231f20" d="M 115.898438 79.449219 L 245.863281 79.449219 L 245.863281 109.78125 L 115.898438 109.78125 Z M 115.898438 79.449219 " fill-opacity="1" fill-rule="nonzero"/></g></g><g clip-path="url(#ccc2ffa4a5)"><g clip-path="url(#6f91a6699c)"><path fill="#231f20" d="M 115.898438 79.449219 L 245.863281 79.449219 L 245.863281 109.78125 L 115.898438 109.78125 Z M 115.898438 79.449219 " fill-opacity="1" fill-rule="nonzero"/></g></g><g clip-path="url(#ac4dd45807)"><path fill="#231f20" d="M 115.898438 79.449219 L 245.863281 79.449219 L 245.863281 109.78125 L 115.898438 109.78125 Z M 115.898438 79.449219 " fill-opacity="1" fill-rule="nonzero"/></g></svg>