<?xml version="1.0" encoding="UTF-8"?>
<svg xmlns="http://www.w3.org/2000/svg" xmlns:xlink="http://www.w3.org/1999/xlink" width="400px" height="250px"
     viewBox="0 0 400 250" version="1.1">
    <title>Background</title>
    <g id="Page-1" stroke="none" stroke-width="1" fill="none" fill-rule="evenodd">
        <g id="SADA_logo_rgb" transform="translate(90.000000, 106.000000)" fill="#101010" fill-rule="nonzero">
            <polygon id="Path"
                     points="72.497317 1 77.5341633 1 95 35 88.671031 35 74.9828289 7.89633333 61.2960578 35 55 35"></polygon>
            <polygon id="Path"
                     points="193.497317 1 198.534163 1 216 35 209.671031 35 195.982829 7.89633333 182.296058 35 176 35"></polygon>
            <path d="M135.165361,1 L119,1 L119,17.5756907 L124.602989,17.5756907 L124.602989,6.3424726 L135.165361,6.3424726 C144.686393,6.3424726 149.297216,10.1789658 149.297216,17.9992916 C149.297216,25.8196175 144.684946,29.6575274 135.165361,29.6575274 L121.778354,29.6575274 L119,35 L135.165361,35 C148.306496,35 155,29.2197592 155,17.9992916 C155,6.77882412 148.306496,1 135.165361,1 Z"
                  id="Path"></path>
            <path d="M0,10.820699 C0,3.97957175 6.2732388,0 17.2366419,0 C21.3246905,0 25.8333558,0.542025597 32,1.70391336 L29.3855503,6.74489294 C23.0633356,5.67782427 20.1492685,5.33817376 16.9888814,5.33817376 C10.0256583,5.33817376 5.67976592,7.18219296 5.67976592,10.820699 C5.67976592,13.3411888 7.72667117,15.3182378 13.9163628,18.1656412 L11.4085078,23 C3.35917173,19.4563131 0,15.8673394 0,10.820699 Z"
                  id="Path"></path>
            <path d="M23.8031352,12 L21.2760751,16.8828571 C26.7656451,19.0642857 29.2781902,21.4085714 29.2781902,24.2942857 C29.2781902,28.2614286 24.6000083,30.6128571 16.7865881,30.6128571 C12.6556214,30.6128571 8.22709742,29.9271429 2.60398955,28.4585714 L0,33.4857143 C5.36619251,35.0785714 11.2781487,36 16.4875793,36 C27.9341019,36 35,31.4942857 35,24.1957143 C35,18.8571429 31.1680421,14.6442857 23.8031352,12 Z"
                  id="Path"></path>
            <path d="M219.773462,0.394160584 C220.152763,0.656934307 220.452555,1.01668405 220.671533,1.47184567 C220.890511,1.92857143 221,2.43534932 221,2.99530761 C221,3.5552659 220.890511,4.0620438 220.671533,4.51876955 C220.452555,4.97549531 220.15146,5.33524505 219.769552,5.60114703 C219.387643,5.86704901 218.965328,6 218.50391,6 C218.042492,6 217.614964,5.86704901 217.234359,5.60114703 C216.853754,5.33524505 216.553962,4.97393118 216.332377,4.51876955 C216.110792,4.06360792 216,3.5552659 216,2.99530761 C216,2.43534932 216.109489,1.92857143 216.328467,1.47184567 C216.547445,1.01668405 216.84854,0.656934307 217.230448,0.394160584 C217.612357,0.131386861 218.037278,0 218.502607,0 C218.967935,0 219.391554,0.131386861 219.772158,0.394160584 L219.773462,0.394160584 Z M219.59098,5.23983316 C219.915537,5.01303441 220.169708,4.70333681 220.357404,4.3076121 C220.543796,3.91345151 220.637643,3.47549531 220.637643,2.99374348 C220.637643,2.51199166 220.543796,2.07559958 220.357404,1.67987487 C220.171011,1.28571429 219.915537,0.976016684 219.59098,0.752346194 C219.266423,0.528675704 218.904067,0.416058394 218.50391,0.416058394 C218.103754,0.416058394 217.73879,0.528675704 217.41293,0.752346194 C217.08707,0.976016684 216.830292,1.28571429 216.6439,1.67987487 C216.457508,2.07403545 216.36366,2.51199166 216.36366,2.99374348 C216.36366,3.47549531 216.456204,3.91345151 216.6439,4.3076121 C216.830292,4.70177268 217.08707,5.01303441 217.41293,5.23983316 C217.73879,5.46663191 218.10245,5.57924922 218.50391,5.57924922 C218.90537,5.57924922 219.267727,5.46663191 219.59098,5.23983316 Z M219.426747,3.725756 L219.929875,4.76590198 L219.22341,4.76590198 L218.691606,3.63347237 C218.644682,3.544317 218.596455,3.48175182 218.544317,3.44421272 C218.493483,3.40823775 218.425704,3.3894682 218.34098,3.3894682 L218.039885,3.3894682 L218.039885,4.76590198 L217.403806,4.76590198 L217.403806,1.22627737 L218.690302,1.22627737 C219.02659,1.22627737 219.284672,1.32168926 219.467153,1.51094891 C219.649635,1.70177268 219.739572,1.9645464 219.739572,2.29927007 C219.739572,2.56830031 219.675704,2.79353493 219.546663,2.97497393 C219.418926,3.15641293 219.237748,3.2721585 219.004432,3.32377477 C219.190824,3.38008342 219.330292,3.51459854 219.42414,3.72732013 L219.426747,3.725756 Z M219.000521,2.70594369 C219.083942,2.62460897 219.126955,2.49791449 219.126955,2.32429614 C219.126955,2.15067779 219.086548,2.02398332 219.004432,1.94264859 C218.922315,1.86131387 218.793274,1.82064651 218.616006,1.82064651 L218.035975,1.82064651 L218.035975,2.82794578 L218.616006,2.82794578 C218.78806,2.82794578 218.917101,2.78727842 219.000521,2.70594369 L219.000521,2.70594369 Z"
                  id="Shape"></path>
        </g>
    </g>
</svg>
