<?xml version="1.0" encoding="UTF-8"?>
<svg xmlns="http://www.w3.org/2000/svg" xmlns:xlink="http://www.w3.org/1999/xlink" width="400px" height="250px"
     viewBox="0 0 400 250" version="1.1">
    <title>Background</title>
    <g id="Page-1" stroke="none" stroke-width="1" fill="none" fill-rule="evenodd">
        <g id="Logo_SECloud_Bleu" transform="translate(117.000000, 50.000000)" fill="#050E2D" fill-rule="nonzero">
            <path d="M162.692628,2.81420526 L90.0973123,2.81420526 C90.0973123,2.81420526 86.6721397,2.69737749 86.6721397,6.01921493 C86.6721397,6.79772211 86.6721397,13.3835 86.6721397,23.0078339 C85.2408628,19.7097756 75.4651071,0 46.5582584,0 C15.0124607,0 4.2340383,22.5074389 4.2340383,38.3329495 C4.2340383,54.1584601 14.0232412,62.2154409 14.0232412,62.2154409 C14.0232412,62.2154409 18.4036288,68.1933008 33.5345654,73.7617467 C48.6655021,79.3301925 45.5690389,78.3335379 51.1189725,80.5026057 C56.6689061,82.6716735 55.8486783,87.3044633 55.8486783,87.3044633 C55.8486783,87.3044633 55.9063827,93.8695638 45.3918038,93.8695638 C34.8772248,93.8695638 32.6638462,85.9986803 31.4273218,81.1498109 C30.0434449,75.7095654 24.6264377,77.6439439 24.6264377,77.6439439 L3.75179379,83.2599479 C-0.9572991,84.3848029 0.101990221,89.7661175 0.101990221,89.7661175 C0.101990221,89.7661175 5.72405017,123 45.3608907,123 C79.751725,123 85.710639,99.2395058 86.6813106,92.9494158 C86.6813106,107.598378 86.6813106,118.165605 86.6813106,118.165605 C86.6813106,118.165605 86.2145227,121.330293 90.0889657,121.330293 L162.74312,121.330293 C162.74312,121.330293 165.9756,121.640456 165.9756,118.165605 L165.9756,97.0807767 C165.9756,97.0807767 166.004453,93.8271749 162.678202,93.8271749 L115.451214,93.8271749 C115.451214,93.8271749 112.043559,94.2179793 112.043559,90.5694377 L112.043559,78.3676557 C112.043559,78.3676557 111.693211,75.93495 115.340957,75.93495 L148.794094,75.93495 C148.794094,75.93495 152.065732,76.4622258 152.065732,72.3008826 L152.065732,51.5520635 C152.065732,51.5520635 152.444932,48.3274103 149.085708,48.3274103 L115.201848,48.3274103 C115.201848,48.3274103 112.04665,48.3274103 112.04665,45.1627217 L112.04665,33.2349164 C112.04665,33.2349164 111.840563,30.084702 115.609902,30.084702 L162.773002,30.084702 C162.773002,30.084702 165.986935,30.4796419 165.986935,27.1981256 L165.986935,6.03885854 C165.986935,6.03885854 166.391897,2.81420526 162.692628,2.81420526 Z M46.6953066,41.6061948 C37.6985613,38.2450702 38.5167282,34.7671178 38.5167282,34.7671178 C38.5167282,34.7671178 38.9835162,28.9484744 46.1502054,28.9484744 C53.3168946,28.9484744 55.3798294,33.0095318 58.2186833,39.1052534 C61.0575372,45.200975 65.8325822,42.0259477 65.8325822,42.0259477 L86.6721397,34.4466168 C86.6721397,44.4369421 86.6721397,55.9811801 86.6772919,67.2452383 C82.8162445,52.3946709 55.5333646,44.9073548 46.6953066,41.6061948 Z"
                  id="Shape"></path>
            <path d="M0,142.998495 C0,138.885274 2.86889715,136 6.95315985,136 C8.89120198,136 10.582404,136.711286 11.9097893,138.075672 L10.4228005,139.460122 C9.51078067,138.537155 8.3905824,138.055607 7.02255266,138.055607 C4.1913259,138.055607 2.23444857,140.075099 2.23444857,142.997492 C2.23444857,145.919885 4.1913259,147.938373 7.02255266,147.938373 C8.34710285,147.943389 9.62140273,147.425726 10.5754647,146.495736 L12,148.000573 C10.6696406,149.327839 8.97942999,150 6.96505576,150 C2.85006196,149.995987 0,147.112719 0,142.998495 Z"
                  id="Path"></path>
            <polygon id="Path"
                     points="14 136 16.1664161 136 16.1664161 147.819903 23 147.819903 23 150 14 150"></polygon>
            <path d="M26,143 C26,138.822 28.8156028,136 33.0091185,136 C37.1843972,136 40,138.817 40,143 C40,147.183 37.1854103,150 33.0091185,150 C28.8156028,149.995 26,147.177 26,143 Z M37.7082067,143 C37.7082067,140.067 35.8054711,138.074 33.0091185,138.074 C30.1935157,138.074 28.2907801,140.067 28.2907801,143 C28.2907801,145.933 30.1935157,147.925 33.0091185,147.925 C35.8054711,147.925 37.7082067,145.932 37.7082067,143 Z"
                  id="Shape"></path>
            <path d="M43,144.040333 L43,136 L45.3198539,136 L45.3198539,143.998393 C45.3198539,146.370598 46.7599791,147.885577 48.9994782,147.885577 C51.2389773,147.885577 52.6801461,146.375712 52.6801461,143.998393 L52.6801461,136 L55,136 L55,144.040333 C55,147.706561 52.6801461,150 48.9994782,150 C45.3188103,150 43,147.703493 43,144.040333 Z"
                  id="Path"></path>
            <path d="M70,143.000522 C70,147.2 67.2555873,150 63.1792976,150 L58,150 L58,136 L63.1792976,136 C67.2555873,136 70,138.8 70,143.000522 Z M67.7193749,143.000522 C67.7193749,140.120164 65.8642245,138.160268 63.1823223,138.160268 L60.2614687,138.160268 L60.2614687,147.839732 L63.1792976,147.839732 C65.8843892,147.839732 67.7193749,145.879836 67.7193749,143.000522 Z"
                  id="Shape"></path>
            <polygon id="Path"
                     points="87 147.858922 87 150 78 150 78 136 86.8963445 136 86.8963445 138.1202 80.0037056 138.1202 80.0037056 141.861606 86.6016024 141.861606 86.6016024 143.942137 80.0037056 143.942137 80.0037056 147.858922"></polygon>
            <polygon id="Path"
                     points="100 150 97.386886 150 95.4580208 146.979799 93.9898379 144.600373 92.5061699 146.979799 90.5773046 150 88 150 92.580692 142.880507 88.182918 136 90.7428018 136 92.5235906 138.817741 94.0072586 141.237868 95.5093153 138.817741 97.290104 136 99.8315993 136 95.4173724 142.880507"></polygon>
            <path d="M114,140.879911 C114,143.819754 112.100577,145.759821 109.193944,145.759821 L105.222603,145.759821 L105.222603,150 L103,150 L103,136 L109.193944,136 C112.100577,136 114,137.941111 114,140.879911 Z M111.796233,140.879911 C111.796233,139.21953 110.713681,138.14044 109.079939,138.14044 L105.207733,138.14044 L105.207733,143.640253 L109.083904,143.640253 C110.713681,143.640253 111.796233,142.560119 111.796233,140.879911 Z"
                  id="Shape"></path>
            <polygon id="Path"
                     points="126 147.858922 126 150 117 150 117 136 125.892728 136 125.892728 138.1202 119.0003 138.1202 119.0003 141.861606 125.59976 141.861606 125.59976 143.942137 119.0003 143.942137 119.0003 147.858922"></polygon>
            <path d="M134.112255,145.220276 L131.30999,145.220276 L131.30999,150 L129,150 L129,136 L135.473738,136 C138.434604,136 140.368692,137.839881 140.368692,140.620052 C140.368692,142.939993 139.007209,144.600373 136.796087,145.080432 L141,150 L138.116375,150 L134.112255,145.220276 Z M135.451081,138.160268 L131.286303,138.160268 L131.286303,143.079836 L135.451081,143.079836 C137.089598,143.079836 138.076217,142.160417 138.076217,140.620052 C138.0793,139.099515 137.092688,138.160268 135.454171,138.160268 L135.451081,138.160268 Z"
                  id="Shape"></path>
            <polygon id="Path"
                     points="154 138.160268 149.626942 138.160268 149.626942 150 147.373058 150 147.373058 138.160268 143 138.160268 143 136 154 136"></polygon>
            <path d="M155,148.116271 L156.154827,146.424229 C157.272115,147.366594 158.956444,147.943655 160.585451,147.943655 C162.515761,147.943655 163.765424,147.154838 163.765424,145.943512 C163.765424,144.827526 162.742973,144.231397 160.452088,143.923297 C156.855231,143.421505 155.322048,142.212186 155.322048,139.846738 C155.322048,137.595699 157.42326,136 160.452088,136 C162.213471,136 164.008442,136.615197 165.355905,137.672975 L164.238617,139.269677 C163.152941,138.438709 161.831163,137.987097 160.471846,137.981075 C158.729232,137.981075 157.499326,138.768889 157.499326,139.865806 C157.499326,140.942652 158.445712,141.557849 160.6793,141.885017 C164.433229,142.44301 166,143.597132 166,145.885304 C166,148.366164 163.841491,150 160.585451,150 C158.578087,150.001002 156.552941,149.328601 155,148.116271 Z"
                  id="Path"></path>
        </g>
    </g>
</svg>
