<svg xmlns="http://www.w3.org/2000/svg" xmlns:xlink="http://www.w3.org/1999/xlink" width="400" zoomAndPan="magnify" viewBox="0 0 300 187.499995" height="250" preserveAspectRatio="xMidYMid meet" version="1.0"><defs><g/><clipPath id="f1d9e1ba2e"><path d="M 0.398438 0 L 299.601562 0 L 299.601562 187 L 0.398438 187 Z M 0.398438 0 " clip-rule="nonzero"/></clipPath><clipPath id="feeaaaa438"><path d="M 56.585938 80 L 107 80 L 107 120 L 56.585938 120 Z M 56.585938 80 " clip-rule="nonzero"/></clipPath><clipPath id="da7cb688e0"><path d="M 156 81 L 243.589844 81 L 243.589844 149.789062 L 156 149.789062 Z M 156 81 " clip-rule="nonzero"/></clipPath><clipPath id="2e6a01e9ee"><path d="M 89 41.328125 L 188 41.328125 L 188 149.789062 L 89 149.789062 Z M 89 41.328125 " clip-rule="nonzero"/></clipPath></defs><g clip-path="url(#f1d9e1ba2e)"><path fill="#ffffff" d="M 0.398438 0 L 299.601562 0 L 299.601562 187 L 0.398438 187 Z M 0.398438 0 " fill-opacity="1" fill-rule="nonzero"/><path fill="#ffffff" d="M 0.398438 0 L 299.601562 0 L 299.601562 187 L 0.398438 187 Z M 0.398438 0 " fill-opacity="1" fill-rule="nonzero"/></g><g fill="#000000" fill-opacity="1"><g transform="translate(132.521175, 94.90865)"><g><path d="M 3.03125 -0.46875 C 2.90625 -0.289062 2.734375 -0.160156 2.515625 -0.078125 C 2.304688 0.00390625 2.0625 0.046875 1.78125 0.046875 C 1.488281 0.046875 1.226562 -0.0195312 1 -0.15625 C 0.78125 -0.289062 0.609375 -0.484375 0.484375 -0.734375 C 0.359375 -0.984375 0.296875 -1.269531 0.296875 -1.59375 L 0.296875 -1.90625 C 0.296875 -2.445312 0.421875 -2.863281 0.671875 -3.15625 C 0.921875 -3.445312 1.269531 -3.59375 1.71875 -3.59375 C 2.09375 -3.59375 2.390625 -3.5 2.609375 -3.3125 C 2.835938 -3.125 2.976562 -2.851562 3.03125 -2.5 L 2.5625 -2.5 C 2.46875 -2.96875 2.1875 -3.203125 1.71875 -3.203125 C 1.40625 -3.203125 1.164062 -3.09375 1 -2.875 C 0.84375 -2.65625 0.765625 -2.335938 0.765625 -1.921875 L 0.765625 -1.640625 C 0.765625 -1.234375 0.851562 -0.910156 1.03125 -0.671875 C 1.21875 -0.441406 1.46875 -0.328125 1.78125 -0.328125 C 1.957031 -0.328125 2.109375 -0.347656 2.234375 -0.390625 C 2.367188 -0.429688 2.476562 -0.5 2.5625 -0.59375 L 2.5625 -1.390625 L 1.75 -1.390625 L 1.75 -1.765625 L 3.03125 -1.765625 Z M 3.03125 -0.46875 "/></g></g></g><g fill="#000000" fill-opacity="1"><g transform="translate(135.912571, 94.90865)"><g><path d="M 0.21875 -1.34375 C 0.21875 -1.601562 0.269531 -1.832031 0.375 -2.03125 C 0.476562 -2.238281 0.617188 -2.398438 0.796875 -2.515625 C 0.972656 -2.628906 1.179688 -2.6875 1.421875 -2.6875 C 1.773438 -2.6875 2.0625 -2.5625 2.28125 -2.3125 C 2.507812 -2.0625 2.625 -1.726562 2.625 -1.3125 L 2.625 -1.28125 C 2.625 -1.03125 2.570312 -0.800781 2.46875 -0.59375 C 2.375 -0.394531 2.234375 -0.238281 2.046875 -0.125 C 1.867188 -0.0078125 1.660156 0.046875 1.421875 0.046875 C 1.066406 0.046875 0.773438 -0.078125 0.546875 -0.328125 C 0.328125 -0.578125 0.21875 -0.90625 0.21875 -1.3125 Z M 0.671875 -1.28125 C 0.671875 -0.988281 0.738281 -0.753906 0.875 -0.578125 C 1.007812 -0.398438 1.191406 -0.3125 1.421875 -0.3125 C 1.648438 -0.3125 1.832031 -0.398438 1.96875 -0.578125 C 2.101562 -0.765625 2.171875 -1.019531 2.171875 -1.34375 C 2.171875 -1.632812 2.097656 -1.867188 1.953125 -2.046875 C 1.816406 -2.222656 1.640625 -2.3125 1.421875 -2.3125 C 1.191406 -2.3125 1.007812 -2.222656 0.875 -2.046875 C 0.738281 -1.867188 0.671875 -1.613281 0.671875 -1.28125 Z M 0.671875 -1.28125 "/></g></g></g><g fill="#000000" fill-opacity="1"><g transform="translate(138.752105, 94.90865)"><g><path d="M 0.828125 0 L 0.375 0 L 0.375 -3.734375 L 0.828125 -3.734375 Z M 0.828125 0 "/></g></g></g><g fill="#000000" fill-opacity="1"><g transform="translate(139.960366, 94.90865)"><g><path d="M 0.234375 -1.34375 C 0.234375 -1.738281 0.328125 -2.0625 0.515625 -2.3125 C 0.710938 -2.5625 0.960938 -2.6875 1.265625 -2.6875 C 1.578125 -2.6875 1.820312 -2.578125 2 -2.359375 L 2 -3.734375 L 2.453125 -3.734375 L 2.453125 0 L 2.046875 0 L 2.015625 -0.28125 C 1.835938 -0.0625 1.585938 0.046875 1.265625 0.046875 C 0.960938 0.046875 0.710938 -0.078125 0.515625 -0.328125 C 0.328125 -0.578125 0.234375 -0.898438 0.234375 -1.296875 Z M 0.6875 -1.28125 C 0.6875 -0.988281 0.742188 -0.753906 0.859375 -0.578125 C 0.984375 -0.410156 1.15625 -0.328125 1.375 -0.328125 C 1.664062 -0.328125 1.875 -0.457031 2 -0.71875 L 2 -1.921875 C 1.863281 -2.171875 1.65625 -2.296875 1.375 -2.296875 C 1.15625 -2.296875 0.984375 -2.207031 0.859375 -2.03125 C 0.742188 -1.863281 0.6875 -1.613281 0.6875 -1.28125 Z M 0.6875 -1.28125 "/></g></g></g><g fill="#000000" fill-opacity="1"><g transform="translate(142.768297, 94.90865)"><g/></g></g><g fill="#000000" fill-opacity="1"><g transform="translate(144.000869, 94.90865)"><g><path d="M 0.765625 -2.640625 L 0.78125 -2.34375 C 0.96875 -2.570312 1.226562 -2.6875 1.5625 -2.6875 C 1.925781 -2.6875 2.175781 -2.546875 2.3125 -2.265625 C 2.394531 -2.390625 2.503906 -2.488281 2.640625 -2.5625 C 2.785156 -2.644531 2.957031 -2.6875 3.15625 -2.6875 C 3.726562 -2.6875 4.019531 -2.378906 4.03125 -1.765625 L 4.03125 0 L 3.578125 0 L 3.578125 -1.734375 C 3.578125 -1.921875 3.535156 -2.0625 3.453125 -2.15625 C 3.367188 -2.25 3.222656 -2.296875 3.015625 -2.296875 C 2.847656 -2.296875 2.707031 -2.242188 2.59375 -2.140625 C 2.488281 -2.046875 2.425781 -1.914062 2.40625 -1.75 L 2.40625 0 L 1.953125 0 L 1.953125 -1.71875 C 1.953125 -2.101562 1.765625 -2.296875 1.390625 -2.296875 C 1.097656 -2.296875 0.894531 -2.171875 0.78125 -1.921875 L 0.78125 0 L 0.34375 0 L 0.34375 -2.640625 Z M 0.765625 -2.640625 "/></g></g></g><g fill="#000000" fill-opacity="1"><g transform="translate(148.364708, 94.90865)"><g><path d="M 1.96875 0 C 1.9375 -0.0507812 1.914062 -0.144531 1.90625 -0.28125 C 1.695312 -0.0625 1.445312 0.046875 1.15625 0.046875 C 0.894531 0.046875 0.679688 -0.0234375 0.515625 -0.171875 C 0.347656 -0.316406 0.265625 -0.503906 0.265625 -0.734375 C 0.265625 -1.003906 0.367188 -1.210938 0.578125 -1.359375 C 0.785156 -1.515625 1.078125 -1.59375 1.453125 -1.59375 L 1.890625 -1.59375 L 1.890625 -1.796875 C 1.890625 -1.960938 1.84375 -2.085938 1.75 -2.171875 C 1.65625 -2.265625 1.519531 -2.3125 1.34375 -2.3125 C 1.175781 -2.3125 1.035156 -2.269531 0.921875 -2.1875 C 0.816406 -2.113281 0.765625 -2.019531 0.765625 -1.90625 L 0.3125 -1.90625 C 0.3125 -2.03125 0.359375 -2.15625 0.453125 -2.28125 C 0.546875 -2.40625 0.671875 -2.503906 0.828125 -2.578125 C 0.992188 -2.648438 1.171875 -2.6875 1.359375 -2.6875 C 1.671875 -2.6875 1.910156 -2.609375 2.078125 -2.453125 C 2.253906 -2.304688 2.34375 -2.097656 2.34375 -1.828125 L 2.34375 -0.609375 C 2.34375 -0.367188 2.375 -0.175781 2.4375 -0.03125 L 2.4375 0 Z M 1.21875 -0.34375 C 1.363281 -0.34375 1.5 -0.378906 1.625 -0.453125 C 1.75 -0.523438 1.835938 -0.617188 1.890625 -0.734375 L 1.890625 -1.28125 L 1.546875 -1.28125 C 0.992188 -1.28125 0.71875 -1.117188 0.71875 -0.796875 C 0.71875 -0.648438 0.765625 -0.535156 0.859375 -0.453125 C 0.953125 -0.378906 1.070312 -0.34375 1.21875 -0.34375 Z M 1.21875 -0.34375 "/></g></g></g><g fill="#000000" fill-opacity="1"><g transform="translate(151.072963, 94.90865)"><g><path d="M 1.21875 -1.671875 L 1.8125 -2.640625 L 2.328125 -2.640625 L 1.46875 -1.328125 L 2.359375 0 L 1.84375 0 L 1.234375 -0.984375 L 0.625 0 L 0.09375 0 L 0.984375 -1.328125 L 0.125 -2.640625 L 0.640625 -2.640625 Z M 1.21875 -1.671875 "/></g></g></g><g fill="#000000" fill-opacity="1"><g transform="translate(153.540538, 94.90865)"><g/></g></g><g fill="#000000" fill-opacity="1"><g transform="translate(154.77311, 94.90865)"><g><path d="M 1.875 -0.703125 C 1.875 -0.816406 1.828125 -0.90625 1.734375 -0.96875 C 1.640625 -1.039062 1.476562 -1.101562 1.25 -1.15625 C 1.03125 -1.207031 0.851562 -1.265625 0.71875 -1.328125 C 0.582031 -1.398438 0.484375 -1.484375 0.421875 -1.578125 C 0.359375 -1.671875 0.328125 -1.78125 0.328125 -1.90625 C 0.328125 -2.125 0.414062 -2.304688 0.59375 -2.453125 C 0.78125 -2.609375 1.015625 -2.6875 1.296875 -2.6875 C 1.597656 -2.6875 1.835938 -2.609375 2.015625 -2.453125 C 2.203125 -2.296875 2.296875 -2.097656 2.296875 -1.859375 L 1.84375 -1.859375 C 1.84375 -1.984375 1.789062 -2.085938 1.6875 -2.171875 C 1.582031 -2.265625 1.453125 -2.3125 1.296875 -2.3125 C 1.128906 -2.3125 1 -2.273438 0.90625 -2.203125 C 0.8125 -2.128906 0.765625 -2.035156 0.765625 -1.921875 C 0.765625 -1.816406 0.804688 -1.734375 0.890625 -1.671875 C 0.984375 -1.617188 1.140625 -1.566406 1.359375 -1.515625 C 1.585938 -1.472656 1.769531 -1.414062 1.90625 -1.34375 C 2.050781 -1.269531 2.15625 -1.179688 2.21875 -1.078125 C 2.289062 -0.984375 2.328125 -0.867188 2.328125 -0.734375 C 2.328125 -0.492188 2.234375 -0.300781 2.046875 -0.15625 C 1.859375 -0.0195312 1.613281 0.046875 1.3125 0.046875 C 1.101562 0.046875 0.914062 0.0078125 0.75 -0.0625 C 0.582031 -0.132812 0.453125 -0.238281 0.359375 -0.375 C 0.273438 -0.507812 0.234375 -0.65625 0.234375 -0.8125 L 0.6875 -0.8125 C 0.6875 -0.65625 0.742188 -0.53125 0.859375 -0.4375 C 0.972656 -0.351562 1.125 -0.3125 1.3125 -0.3125 C 1.476562 -0.3125 1.613281 -0.347656 1.71875 -0.421875 C 1.820312 -0.492188 1.875 -0.585938 1.875 -0.703125 Z M 1.875 -0.703125 "/></g></g></g><g fill="#000000" fill-opacity="1"><g transform="translate(157.340361, 94.90865)"><g><path d="M 0.828125 0 L 0.375 0 L 0.375 -2.640625 L 0.828125 -2.640625 Z M 0.34375 -3.328125 C 0.34375 -3.398438 0.363281 -3.460938 0.40625 -3.515625 C 0.457031 -3.566406 0.523438 -3.59375 0.609375 -3.59375 C 0.691406 -3.59375 0.753906 -3.566406 0.796875 -3.515625 C 0.847656 -3.460938 0.875 -3.398438 0.875 -3.328125 C 0.875 -3.253906 0.847656 -3.191406 0.796875 -3.140625 C 0.753906 -3.097656 0.691406 -3.078125 0.609375 -3.078125 C 0.523438 -3.078125 0.457031 -3.097656 0.40625 -3.140625 C 0.363281 -3.191406 0.34375 -3.253906 0.34375 -3.328125 Z M 0.34375 -3.328125 "/></g></g></g><g fill="#000000" fill-opacity="1"><g transform="translate(158.548621, 94.90865)"><g><path d="M 0.765625 -0.375 L 2.3125 -0.375 L 2.3125 0 L 0.21875 0 L 0.21875 -0.328125 L 1.671875 -2.265625 L 0.234375 -2.265625 L 0.234375 -2.640625 L 2.234375 -2.640625 L 2.234375 -2.3125 Z M 0.765625 -0.375 "/></g></g></g><g fill="#000000" fill-opacity="1"><g transform="translate(161.016196, 94.90865)"><g><path d="M 1.4375 0.046875 C 1.070312 0.046875 0.773438 -0.0664062 0.546875 -0.296875 C 0.328125 -0.535156 0.21875 -0.851562 0.21875 -1.25 L 0.21875 -1.328125 C 0.21875 -1.585938 0.269531 -1.816406 0.375 -2.015625 C 0.476562 -2.222656 0.617188 -2.382812 0.796875 -2.5 C 0.972656 -2.625 1.164062 -2.6875 1.375 -2.6875 C 1.71875 -2.6875 1.984375 -2.570312 2.171875 -2.34375 C 2.359375 -2.113281 2.453125 -1.789062 2.453125 -1.375 L 2.453125 -1.1875 L 0.671875 -1.1875 C 0.679688 -0.925781 0.757812 -0.710938 0.90625 -0.546875 C 1.050781 -0.390625 1.234375 -0.3125 1.453125 -0.3125 C 1.617188 -0.3125 1.753906 -0.34375 1.859375 -0.40625 C 1.972656 -0.476562 2.070312 -0.566406 2.15625 -0.671875 L 2.421875 -0.453125 C 2.203125 -0.117188 1.875 0.046875 1.4375 0.046875 Z M 1.375 -2.3125 C 1.195312 -2.3125 1.046875 -2.242188 0.921875 -2.109375 C 0.796875 -1.984375 0.71875 -1.800781 0.6875 -1.5625 L 2.015625 -1.5625 L 2.015625 -1.59375 C 1.992188 -1.820312 1.925781 -2 1.8125 -2.125 C 1.707031 -2.25 1.5625 -2.3125 1.375 -2.3125 Z M 1.375 -2.3125 "/></g></g></g><g clip-path="url(#feeaaaa438)"><path fill="#005fff" d="M 57.351562 87.1875 L 79.738281 118.097656 C 80.085938 118.582031 80.539062 118.972656 81.0625 119.246094 C 81.582031 119.515625 82.15625 119.65625 82.738281 119.65625 C 83.324219 119.65625 83.898438 119.515625 84.417969 119.246094 C 84.9375 118.972656 85.390625 118.582031 85.742188 118.097656 L 105.414062 90.933594 C 107.1875 88.484375 105.671875 84.976562 102.734375 84.714844 L 60.675781 80.96875 C 57.441406 80.683594 55.402344 84.5 57.351562 87.1875 Z M 57.351562 87.1875 " fill-opacity="1" fill-rule="evenodd"/><path fill="#005fff" d="M 57.351562 87.1875 L 79.738281 118.097656 C 80.085938 118.582031 80.539062 118.972656 81.0625 119.246094 C 81.582031 119.515625 82.15625 119.65625 82.738281 119.65625 C 83.324219 119.65625 83.898438 119.515625 84.417969 119.246094 C 84.9375 118.972656 85.390625 118.582031 85.742188 118.097656 L 105.414062 90.933594 C 107.1875 88.484375 105.671875 84.976562 102.734375 84.714844 L 60.675781 80.96875 C 57.441406 80.683594 55.402344 84.5 57.351562 87.1875 Z M 57.351562 87.1875 " fill-opacity="1" fill-rule="evenodd"/></g><g clip-path="url(#da7cb688e0)"><path fill="#005fff" d="M 197.488281 87.070312 L 156.785156 143.277344 C 154.925781 145.84375 156.691406 149.507812 159.789062 149.507812 L 195.296875 149.507812 C 196.046875 149.507812 196.785156 149.324219 197.457031 148.976562 C 198.125 148.632812 198.707031 148.125 199.15625 147.503906 L 242.75 87.316406 C 244.714844 84.605469 242.628906 80.765625 239.378906 81.101562 L 200.871094 85.097656 C 200.207031 85.164062 199.5625 85.375 198.980469 85.714844 C 198.398438 86.054688 197.890625 86.515625 197.488281 87.070312 Z M 197.488281 87.070312 " fill-opacity="1" fill-rule="evenodd"/><path fill="#005fff" d="M 197.488281 87.070312 L 156.785156 143.277344 C 154.925781 145.84375 156.691406 149.507812 159.789062 149.507812 L 195.296875 149.507812 C 196.046875 149.507812 196.785156 149.324219 197.457031 148.976562 C 198.125 148.632812 198.707031 148.125 199.15625 147.503906 L 242.75 87.316406 C 244.714844 84.605469 242.628906 80.765625 239.378906 81.101562 L 200.871094 85.097656 C 200.207031 85.164062 199.5625 85.375 198.980469 85.714844 C 198.398438 86.054688 197.890625 86.515625 197.488281 87.070312 Z M 197.488281 87.070312 " fill-opacity="1" fill-rule="evenodd"/></g><g clip-path="url(#2e6a01e9ee)"><path fill="#005fff" d="M 186.261719 87.535156 L 142.660156 147.742188 C 142.210938 148.367188 141.621094 148.875 140.945312 149.222656 C 140.273438 149.570312 139.527344 149.75 138.773438 149.746094 L 104.871094 149.523438 C 104.128906 149.515625 103.398438 149.335938 102.734375 148.988281 C 102.070312 148.644531 101.492188 148.144531 101.046875 147.53125 L 90.34375 132.8125 C 89.714844 131.945312 89.371094 130.890625 89.371094 129.800781 C 89.371094 128.714844 89.707031 127.65625 90.335938 126.789062 L 150.640625 43.523438 C 151.085938 42.90625 151.667969 42.402344 152.332031 42.058594 C 153 41.710938 153.734375 41.527344 154.480469 41.527344 C 155.226562 41.523438 155.960938 41.699219 156.628906 42.042969 C 157.300781 42.382812 157.882812 42.882812 158.335938 43.496094 L 186.238281 81.488281 C 186.878906 82.359375 187.226562 83.417969 187.230469 84.507812 C 187.234375 85.601562 186.890625 86.664062 186.261719 87.535156 Z M 186.261719 87.535156 " fill-opacity="1" fill-rule="evenodd"/><path fill="#005fff" d="M 186.261719 87.535156 L 142.660156 147.742188 C 142.210938 148.367188 141.621094 148.875 140.945312 149.222656 C 140.273438 149.570312 139.527344 149.75 138.773438 149.746094 L 104.871094 149.523438 C 104.128906 149.515625 103.398438 149.335938 102.734375 148.988281 C 102.070312 148.644531 101.492188 148.144531 101.046875 147.53125 L 90.34375 132.8125 C 89.714844 131.945312 89.371094 130.890625 89.371094 129.800781 C 89.371094 128.714844 89.707031 127.65625 90.335938 126.789062 L 150.640625 43.523438 C 151.085938 42.90625 151.667969 42.402344 152.332031 42.058594 C 153 41.710938 153.734375 41.527344 154.480469 41.527344 C 155.226562 41.523438 155.960938 41.699219 156.628906 42.042969 C 157.300781 42.382812 157.882812 42.882812 158.335938 43.496094 L 186.238281 81.488281 C 186.878906 82.359375 187.226562 83.417969 187.230469 84.507812 C 187.234375 85.601562 186.890625 86.664062 186.261719 87.535156 Z M 186.261719 87.535156 " fill-opacity="1" fill-rule="evenodd"/></g></svg>