<?xml version="1.0" encoding="UTF-8"?>
<svg width="400px" height="250px" viewBox="0 0 400 250" version="1.1" xmlns="http://www.w3.org/2000/svg" xmlns:xlink="http://www.w3.org/1999/xlink">
    <title>Rectangle</title>
    <defs>
        <linearGradient x1="-383.207704%" y1="-260.706126%" x2="-496.163144%" y2="-93.9728747%" id="linearGradient-1">
            <stop stop-color="#B38AF8" offset="17.7786%"></stop>
            <stop stop-color="#005FFF" offset="56.3822%"></stop>
            <stop stop-color="#00ECBB" offset="100%"></stop>
        </linearGradient>
        <linearGradient x1="-383.207165%" y1="-271.73722%" x2="-505.646841%" y2="-85.817816%" id="linearGradient-2">
            <stop stop-color="#B38AF8" offset="17.7786%"></stop>
            <stop stop-color="#005FFF" offset="56.3822%"></stop>
            <stop stop-color="#00ECBB" offset="100%"></stop>
        </linearGradient>
        <linearGradient x1="-303.59125%" y1="-470.350703%" x2="-466.303889%" y2="-234.333214%" id="linearGradient-3">
            <stop stop-color="#B38AF8" offset="17.7786%"></stop>
            <stop stop-color="#005FFF" offset="56.3822%"></stop>
            <stop stop-color="#00ECBB" offset="100%"></stop>
        </linearGradient>
    </defs>
    <g id="Page-1" stroke="none" stroke-width="1" fill="none" fill-rule="evenodd">
        <rect id="Rectangle" fill="#FFFFFF" x="0" y="0" width="400" height="250"></rect>
        <g id="Stream_BrandMark_GRDNT" transform="translate(75.000000, 52.000000)">
            <path d="M1.01405094,61.2142273 L30.8117161,101.947467 C31.2770567,102.58462 31.8804009,103.102046 32.5740758,103.457979 C33.2677037,103.814376 34.0326305,104 34.8081512,104 C35.583672,104 36.3485518,103.814376 37.0422267,103.457979 C37.7358546,103.102046 38.3392458,102.58462 38.8045864,101.947467 L64.9911157,66.1490303 C67.3489914,62.9238205 65.3351874,58.2994729 61.4228952,57.953749 L5.43867724,53.0203381 C1.13251661,52.6402738 -1.5807748,57.6692808 1.01405094,61.2142273 Z" id="Path" fill="#005FFF"></path>
            <path d="M1.01405094,61.2142273 L30.8117161,101.947467 C31.2770567,102.58462 31.8804009,103.102046 32.5740758,103.457979 C33.2677037,103.814376 34.0326305,104 34.8081512,104 C35.583672,104 36.3485518,103.814376 37.0422267,103.457979 C37.7358546,103.102046 38.3392458,102.58462 38.8045864,101.947467 L64.9911157,66.1490303 C67.3489914,62.9238205 65.3351874,58.2994729 61.4228952,57.953749 L5.43867724,53.0203381 C1.13251661,52.6402738 -1.5807748,57.6692808 1.01405094,61.2142273 Z" id="Path" fill="url(#linearGradient-1)"></path>
            <path d="M188.451251,60.0532316 L134.015231,135.623362 C131.530013,139.074488 133.890428,144 138.030103,144 L185.518628,144 C186.520345,144 187.508404,143.756636 188.404627,143.289321 C189.300379,142.822006 190.079806,142.143523 190.681212,141.307848 L248.980459,60.3822935 C251.607433,56.7370452 248.819864,51.5747979 244.469202,52.027909 L192.975224,57.3980098 C192.086065,57.4898631 191.224692,57.7729984 190.446207,58.2298973 C189.667251,58.6872696 188.988137,59.3079893 188.451251,60.0532316 Z" id="Path" fill="#005FFF"></path>
            <path d="M188.451251,60.0532316 L134.015231,135.623362 C131.530013,139.074488 133.890428,144 138.030103,144 L185.518628,144 C186.520345,144 187.508404,143.756636 188.404627,143.289321 C189.300379,142.822006 190.079806,142.143523 190.681212,141.307848 L248.980459,60.3822935 C251.607433,56.7370452 248.819864,51.5747979 244.469202,52.027909 L192.975224,57.3980098 C192.086065,57.4898631 191.224692,57.7729984 190.446207,58.2298973 C189.667251,58.6872696 188.988137,59.3079893 188.451251,60.0532316 Z" id="Path" fill="url(#linearGradient-2)"></path>
            <path d="M173.704019,61.6475873 L115.339239,142.317053 C114.733935,143.155025 113.948075,143.834462 113.044361,144.300159 C112.141118,144.766329 111.145005,145.006019 110.136163,145 L64.7505533,144.701688 C63.7567973,144.696026 62.7776554,144.451617 61.8899691,143.988751 C61.0018115,143.525884 60.2286806,142.856356 59.6304471,142.032066 L45.3037195,122.313766 C44.4591211,121.151645 44.0015597,119.735679 44,118.279608 C43.9984483,116.824009 44.4529927,115.407099 45.2950924,114.243092 L126.018817,2.67839743 C126.618464,1.84968713 127.394424,1.17656791 128.286824,0.711856566 C129.179225,0.247150413 130.162609,0.00350383795 131.16108,0 C132.159078,-0.00342881203 133.144349,0.233377658 134.039578,0.691879229 C134.934807,1.15038127 135.71548,1.81809802 136.320314,2.64262318 L173.675262,53.5476598 C174.529478,54.7097802 174.994771,56.1304642 175,57.5926693 C175.005142,59.0548744 174.549749,60.4788612 173.704019,61.6475873 Z" id="Path" fill="#005FFF"></path>
            <path d="M173.704019,61.6475873 L115.339239,142.317053 C114.733935,143.155025 113.948075,143.834462 113.044361,144.300159 C112.141118,144.766329 111.145005,145.006019 110.136163,145 L64.7505533,144.701688 C63.7567973,144.696026 62.7776554,144.451617 61.8899691,143.988751 C61.0018115,143.525884 60.2286806,142.856356 59.6304471,142.032066 L45.3037195,122.313766 C44.4591211,121.151645 44.0015597,119.735679 44,118.279608 C43.9984483,116.824009 44.4529927,115.407099 45.2950924,114.243092 L126.018817,2.67839743 C126.618464,1.84968713 127.394424,1.17656791 128.286824,0.711856566 C129.179225,0.247150413 130.162609,0.00350383795 131.16108,0 C132.159078,-0.00342881203 133.144349,0.233377658 134.039578,0.691879229 C134.934807,1.15038127 135.71548,1.81809802 136.320314,2.64262318 L173.675262,53.5476598 C174.529478,54.7097802 174.994771,56.1304642 175,57.5926693 C175.005142,59.0548744 174.549749,60.4788612 173.704019,61.6475873 Z" id="Path" fill="url(#linearGradient-3)"></path>
        </g>
    </g>
</svg>