<?xml version="1.0" encoding="UTF-8"?>
<svg width="400px" height="250px" viewBox="0 0 400 250" version="1.1" xmlns="http://www.w3.org/2000/svg" xmlns:xlink="http://www.w3.org/1999/xlink">
    <title>transit</title>
    <g id="Page-1" stroke="none" stroke-width="1" fill="none" fill-rule="evenodd">
        <g id="transit" fill-rule="nonzero">
            <rect id="WidthSize" fill="#FFFFFF" x="0" y="0" width="400" height="250"></rect>
            <rect id="silver" fill-opacity="0" fill="#D8D8D8" opacity="0.600000024" x="90" y="60" width="220" height="130"></rect>
            <rect id="Bronze" fill-opacity="0" fill="#000000" x="100" y="65" width="200" height="120"></rect>
            <rect id="Gold" fill-opacity="0" fill="#D8D8D8" x="75" y="50" width="250" height="150"></rect>
            <g id="Transit-Dark" transform="translate(90.000000, 102.000000)" fill="#1E212D">
                <g id="g12" transform="translate(110.000000, 23.474307) scale(-1, 1) rotate(-180.000000) translate(-110.000000, -23.474307) translate(0.000000, 0.474307)">
                    <path d="M31.4149298,36.6111692 L37.592881,36.6111692 C38.0761171,36.6111692 38.4679157,36.2193706 38.4679157,35.7361345 L38.4679157,33.6919679 C38.4679157,33.4820512 38.7253463,33.3780478 38.8681935,33.531895 C41.1285406,35.9615581 44.0939572,37.1156032 47.7652071,37.1156032 C48.4084016,37.1156032 49.0179849,37.0806935 49.5935751,37.0126692 C50.0320474,36.9607248 50.3593737,36.5856553 50.3593737,36.1441658 L50.3593737,29.5966833 C50.3593737,29.1123777 49.9159363,28.7551833 49.4415613,28.8524646 C48.5420821,29.0370201 47.5077766,29.1140201 46.3955544,29.1140201 C43.0829503,29.1140201 40.1839921,27.873159 38.5740963,24.9861938 C38.5030546,24.8587772 38.4679157,24.7131417 38.4679157,24.5673917 L38.4679157,1.45094198 C38.4679157,0.967392684 38.0761171,0.575899638 37.592881,0.575899638 L31.4149298,0.575899638 C30.9318464,0.575899638 30.5400478,0.967392684 30.5400478,1.45094198 L30.5400478,35.7361345 C30.5400478,36.2193706 30.9318464,36.6111692 31.4149298,36.6111692" id="path14"></path>
                    <path d="M82.1688521,12.7362045 L82.1688521,24.4483397 C82.1688521,24.6282737 82.1138521,24.8040063 82.0103452,24.9512841 C80.0280536,27.7761451 76.443505,29.6184541 72.5847204,29.6184541 C66.4587136,29.6184541 62.1343387,24.8635515 62.1343387,18.5923294 C62.1343387,12.3235136 66.4587136,7.56578453 72.5847204,7.56578453 C76.443505,7.56578453 80.0280536,9.41061435 82.0099632,12.2328018 C82.1134702,12.3802323 82.1688521,12.5561177 82.1688521,12.7362045 Z M82.1688521,2.59259681 C82.1688521,2.82683569 81.9030188,2.96006937 81.7139563,2.82176347 C79.2542341,1.01976109 76.10663,0 72.512151,0 C61.8463526,0 53.9912834,8.07037133 53.9912834,18.5923294 C53.9912834,29.1140201 61.8463526,37.1869123 72.512151,37.1869123 C76.1062481,37.1869123 79.2538522,36.1019609 81.7135743,34.2924991 C81.9022549,34.153586 82.1688521,34.2868082 82.1688521,34.5213602 L82.1688521,35.7361345 C82.1688521,36.2193706 82.5603452,36.6111692 83.0438868,36.6111692 L89.221838,36.6111692 C89.7049978,36.6111692 90.0964908,36.2193706 90.0964908,35.7361345 L90.0964908,1.45094198 C90.0964908,0.967392684 89.7049978,0.575899638 89.221838,0.575899638 L83.0438868,0.575899638 C82.5603452,0.575899638 82.1688521,0.967392684 82.1688521,1.45094198 L82.1688521,2.59259681" id="path16"></path>
                    <path d="M97.7693726,36.6111692 L103.947324,36.6111692 C104.430484,36.6111692 104.822358,36.2193706 104.822358,35.7361345 L104.822358,33.9183082 C104.822358,33.6675235 105.122567,33.5388846 105.30399,33.7119818 C107.816421,36.1079192 111.396004,37.1869123 114.912185,37.1869123 C123.848921,37.1869123 129.541802,30.989711 129.541802,21.6910064 L129.541802,1.45094198 C129.541802,0.967392684 129.149927,0.575899638 128.666768,0.575899638 L122.488816,0.575899638 C122.005657,0.575899638 121.614164,0.967392684 121.614164,1.45094198 L121.614164,21.5480828 C121.614164,25.4394473 118.732011,29.6184541 113.398539,29.6184541 C109.407983,29.6184541 106.333331,27.5750514 104.870483,23.4185793 C104.838018,23.3262251 104.822358,23.2284855 104.822358,23.1306314 L104.822358,1.45094198 C104.822358,0.967392684 104.430484,0.575899638 103.947324,0.575899638 L97.7693726,0.575899638 C97.2862128,0.575899638 96.8943379,0.967392684 96.8943379,1.45094198 L96.8943379,35.7361345 C96.8943379,36.2193706 97.2862128,36.6111692 97.7693726,36.6111692" id="path18"></path>
                    <path d="M135.23774,7.82554494 L139.865378,11.1314268 C140.26833,11.4192601 140.830552,11.3158678 141.10326,10.9024129 C142.732635,8.43306576 144.698885,7.06135052 147.975205,7.06135052 C150.71451,7.06135052 152.587566,8.43230187 152.587566,10.3766664 C152.587566,12.4661698 151.07392,13.6918295 147.759788,14.9177566 L145.237045,15.9266246 C139.111038,18.3042287 136.444302,22.1239786 136.444302,27.0245167 C136.444302,32.8625756 141.345795,37.1869123 148.047774,37.1869123 C152.398503,37.1869123 156.172114,35.5840824 158.824336,31.6509714 C159.093225,31.2518395 158.995065,30.711159 158.598989,30.437534 L154.210448,27.4052771 C153.811698,27.1300097 153.267427,27.2321799 152.991663,27.6303951 C151.806107,29.3409333 150.222184,30.1231937 148.191767,30.1231937 C146.102149,30.1231937 144.227948,29.0425583 144.227948,27.2410028 C144.227948,25.368291 145.453607,24.2137876 148.840309,22.8452043 L151.434475,21.9076453 C157.489059,19.5298884 160.87576,16.3600551 160.87576,10.7382914 C160.87576,4.3957985 155.614857,0 147.975205,0 C142.558851,0 137.990031,2.08771592 135.014302,6.63403108 C134.757254,7.02659357 134.856177,7.55264564 135.23774,7.82554494" id="path20"></path>
                    <path d="M167.8176,36.6111692 L173.995551,36.6111692 C174.478711,36.6111692 174.870204,36.2193706 174.870204,35.7361345 L174.870204,1.45094198 C174.870204,0.967392684 174.478711,0.575899638 173.995551,0.575899638 L167.8176,0.575899638 C167.33444,0.575899638 166.942565,0.967392684 166.942565,1.45094198 L166.942565,35.7361345 C166.942565,36.2193706 167.33444,36.6111692 167.8176,36.6111692" id="path22"></path>
                    <path d="M181.441558,36.6111692 L185.898468,36.6111692 C186.284613,36.6111692 186.597808,36.9241727 186.597808,37.3104331 L186.597808,44.3135753 C186.597808,44.796735 186.989683,45.18861 187.472843,45.18861 L193.650412,45.18861 C194.133572,45.18861 194.525447,44.796735 194.525447,44.3135753 L194.525447,37.3104331 C194.525447,36.9241727 194.838259,36.6111692 195.224787,36.6111692 L203.740238,36.6111692 C204.223398,36.6111692 204.615273,36.2193706 204.615273,35.7361345 L204.615273,30.4221798 C204.615273,29.9390583 204.223398,29.5472979 203.740238,29.5472979 L195.224787,29.5472979 C194.838259,29.5472979 194.525447,29.2342562 194.525447,28.8479958 L194.525447,13.1872427 C194.525447,9.5126699 195.534544,7.85357966 199.642356,7.85357966 L203.740238,7.85357966 C204.223398,7.85357966 204.615273,7.46193384 204.615273,6.97885052 L204.615273,1.45094198 C204.615273,0.967392684 204.223398,0.575899638 203.740238,0.575899638 L197.624162,0.575899638 C190.70562,0.575899638 186.597808,4.68374641 186.597808,11.5309789 L186.597808,28.8479958 C186.597808,29.2342562 186.284613,29.5472979 185.898468,29.5472979 L181.441558,29.5472979 C180.958398,29.5472979 180.566905,29.9390583 180.566905,30.4221798 L180.566905,35.7361345 C180.566905,36.2193706 180.958398,36.6111692 181.441558,36.6111692" id="path24"></path>
                    <path d="M0.874893381,36.6111692 L5.33171514,36.6111692 C5.71782277,36.6111692 6.03097902,36.9241727 6.03097902,37.3104331 L6.03097902,44.3135753 C6.03097902,44.796735 6.42262484,45.18861 6.90589913,45.18861 L13.0835448,45.18861 C13.5667809,45.18861 13.9584267,44.796735 13.9584267,44.3135753 L13.9584267,37.3104331 C13.9584267,36.9241727 14.271583,36.6111692 14.6578816,36.6111692 L23.1734473,36.6111692 C23.6566834,36.6111692 24.048482,36.2193706 24.048482,35.7361345 L24.048482,30.4221798 C24.048482,29.9390583 23.6566834,29.5472979 23.1734473,29.5472979 L14.6578816,29.5472979 C14.271583,29.5472979 13.9584267,29.2342562 13.9584267,28.8479958 L13.9584267,13.1872427 C13.9584267,9.5126699 14.9677531,7.85357966 19.0754509,7.85357966 L23.1734473,7.85357966 C23.6566834,7.85357966 24.048482,7.46193384 24.048482,6.97885052 L24.048482,1.45094198 C24.048482,0.967392684 23.6566834,0.575899638 23.1734473,0.575899638 L17.0571037,0.575899638 C10.1386768,0.575899638 6.03097902,4.68374641 6.03097902,11.5309789 L6.03097902,28.8479958 C6.03097902,29.2342562 5.71782277,29.5472979 5.33171514,29.5472979 L0.874893381,29.5472979 C0.391790962,29.5472979 0,29.9390583 0,30.4221798 L0,35.7361345 C0,36.2193706 0.391790962,36.6111692 0.874893381,36.6111692" id="path26"></path>
                    <path d="M210.311592,33.0792145 C210.311592,35.7544679 212.480654,37.9233393 215.155793,37.9233393 C217.831314,37.9233393 219.999994,35.7544679 219.999994,33.0792145 C219.999994,30.4038083 217.831314,28.2350896 215.155793,28.2350896 C212.480654,28.2350896 210.311592,30.4038083 210.311592,33.0792145" id="path28"></path>
                </g>
            </g>
        </g>
    </g>
</svg>