<?xml version="1.0" encoding="UTF-8"?>
<svg xmlns="http://www.w3.org/2000/svg" xmlns:xlink="http://www.w3.org/1999/xlink" width="400px" height="250px"
     viewBox="0 0 400 250" version="1.1">
    <title>Background</title>
    <defs>
        <path d="M37.3382088,0.0797912088 C42.7092637,0.0797912088 44.6574505,0.638912088 46.6207802,1.68901099 C48.5846923,2.73910989 50.1257692,4.28018681 51.1758681,6.2440989 C52.225967,8.20801099 52.7856703,10.1556154 52.7856703,15.5266703 L52.7856703,37.0499121 C52.7856703,42.420967 52.225967,44.3691538 51.1758681,46.3330659 C50.1257692,48.2963956 48.5846923,49.8380549 46.6207802,50.8875714 C46.4779926,50.9639846 46.3352851,51.0377978 46.1913352,51.108985 L45.9743131,51.2137931 C44.2280374,52.0364501 42.207633,52.479095 37.6278015,52.4968195 L15.8155495,52.4973736 C10.4439121,52.4973736 8.49630769,51.9382527 6.5323956,50.8875714 C4.56848352,49.8380549 3.02740659,48.2963956 1.97730769,46.3330659 C0.946301499,44.4048613 0.388581887,42.4918154 0.368642003,37.3395048 L0.368087912,15.5266703 C0.368087912,10.1556154 0.927208791,8.20801099 1.97730769,6.2440989 C3.02740659,4.28018681 4.56848352,2.73910989 6.5323956,1.68901099 C8.49630769,0.638912088 10.4439121,0.0797912088 15.8155495,0.0797912088"
              id="path-1"></path>
        <linearGradient x1="-0.000222222222%" y1="0.000111111111%" x2="100.001444%" y2="100.001778%"
                        id="linearGradient-3">
            <stop stop-color="#33CC5E" offset="0%"></stop>
            <stop stop-color="#24A659" offset="100%"></stop>
        </linearGradient>
    </defs>
    <g id="Page-1" stroke="none" stroke-width="1" fill="none" fill-rule="evenodd">
        <g id="transit-logotype_iOS-dark" transform="translate(90.000000, 100.000000)">
            <path d="M87.1609606,13 C87.4619865,13 87.7066406,13.2461813 87.7066406,13.5490863 L87.7066406,17.9446133 C87.7066406,18.1868239 87.9022511,18.3836554 88.1429591,18.3836554 L93.45432,18.3836554 C93.7559097,18.3836554 94,18.6292695 94,18.9327418 L94,22.268101 C94,22.571006 93.7559097,22.8171873 93.45432,22.8171873 L88.1429591,22.8171873 C87.9022511,22.8171873 87.7066406,23.0134516 87.7066406,23.2556623 L87.7066406,33.0847616 C87.7066406,35.3917183 88.3363148,36.4331672 90.8984178,36.4331672 L93.45432,36.4331672 C93.7559097,36.4331672 94,36.678214 94,36.9816863 L94,40.4509137 C94,40.7549532 93.7559097,41 93.45432,41 L89.6396332,41 C85.3238002,41 82.7616972,38.4219035 82.7616972,34.1245087 L82.7616972,23.2556623 C82.7616972,23.0134516 82.5666504,22.8171873 82.3259424,22.8171873 L79.54568,22.8171873 C79.2446541,22.8171873 79,22.571006 79,22.268101 L79,18.9327418 C79,18.6292695 79.2446541,18.3836554 79.54568,18.3836554 L82.3259424,18.3836554 C82.5666504,18.3836554 82.7616972,18.1868239 82.7616972,17.9446133 L82.7616972,13.5490863 C82.7616972,13.2461813 83.0063512,13 83.3073772,13 L87.1609606,13"
                  id="Fill-1" fill="#1E222D"></path>
            <path d="M217.499673,16 C219.433343,16 221,17.5665112 221,19.499347 C221,21.4321828 219.433343,23 217.499673,23 C215.566657,23 214,21.4321828 214,19.499347 C214,17.5665112 215.566657,16 217.499673,16"
                  id="Fill-2" fill="#1E222D"></path>
            <path d="M203.160397,13 C203.461987,13 203.706641,13.2461813 203.706641,13.5490863 L203.706641,17.9446133 C203.706641,18.1868239 203.901687,18.3836554 204.142395,18.3836554 L209.453756,18.3836554 C209.755346,18.3836554 210,18.6292695 210,18.9327418 L210,22.268101 C210,22.571006 209.755346,22.8171873 209.453756,22.8171873 L204.142395,22.8171873 C203.901687,22.8171873 203.706641,23.0134516 203.706641,23.2556623 L203.706641,33.0847616 C203.706641,35.3917183 204.335751,36.4331672 206.897854,36.4331672 L209.453756,36.4331672 C209.755346,36.4331672 210,36.678214 210,36.9816863 L210,40.4509137 C210,40.7549532 209.755346,41 209.453756,41 L205.639069,41 C201.323236,41 198.761133,38.4219035 198.761133,34.1245087 L198.761133,23.2556623 C198.761133,23.0134516 198.566087,22.8171873 198.325379,22.8171873 L195.545116,22.8171873 C195.24409,22.8171873 195,22.571006 195,22.268101 L195,18.9327418 C195,18.6292695 195.24409,18.3836554 195.545116,18.3836554 L198.325379,18.3836554 C198.566087,18.3836554 198.761133,18.1868239 198.761133,17.9446133 L198.761133,13.5490863 C198.761133,13.2461813 199.005788,13 199.307377,13 L203.160397,13"
                  id="Fill-3" fill="#1E222D"></path>
            <path d="M191.448814,17 C191.753192,17 192,17.2606406 192,17.5826791 L192,40.4173209 C192,40.7399614 191.753192,41 191.448814,41 L187.552326,41 C187.247378,41 187,40.7399614 187,40.4173209 L187,17.5826791 C187,17.2606406 187.247378,17 187.552326,17 L191.448814,17"
                  id="Fill-4" fill="#1E222D"></path>
            <path d="M152.589154,17 C158.338095,17 162,21.0630971 162,27.1583352 L162,40.4264978 C162,40.7440569 161.747695,41 161.437256,41 L157.463168,41 C157.152147,41 156.900424,40.7440569 156.900424,40.4264978 L156.900424,27.251944 C156.900424,24.7008072 155.046508,21.9618603 151.615397,21.9618603 C149.04875,21.9618603 147.071007,23.3014145 146.130388,26.0261423 C146.109459,26.0865734 146.098995,26.1511516 146.098995,26.2145449 L146.098995,40.4264978 C146.098995,40.7440569 145.84669,41 145.536251,41 L141.562163,41 C141.251723,41 141,40.7440569 141,40.4264978 L141,17.9514923 C141,17.6345257 141.251723,17.3779901 141.562163,17.3779901 L145.536251,17.3779901 C145.84669,17.3779901 146.098995,17.6345257 146.098995,17.9514923 L146.098995,19.1435237 C146.098995,19.3070429 146.292002,19.3917648 146.408853,19.2780123 C148.025579,17.7079908 150.327132,17 152.589154,17"
                  id="Fill-5" fill="#1E222D"></path>
            <path d="M109.429477,17 C109.819098,17 110.187925,17.0225581 110.536504,17.0670806 C110.801906,17.1009177 111,17.3472755 111,17.6375621 L111,21.9384353 C111,22.2566227 110.731862,22.4917015 110.444571,22.4269955 C109.900087,22.3058943 109.273519,22.2554355 108.600438,22.2554355 C106.594327,22.2554355 104.839391,23.070494 103.864244,24.9665587 C103.82156,25.050261 103.800219,25.1458359 103.800219,25.2414109 L103.800219,40.425363 C103.800219,40.7435504 103.562725,41 103.270509,41 L99.5297095,41 C99.2369465,41 99,40.7435504 99,40.425363 L99,17.9058844 C99,17.5882906 99.2369465,17.3312474 99.5297095,17.3312474 L103.270509,17.3312474 C103.562725,17.3312474 103.800219,17.5882906 103.800219,17.9058844 L103.800219,19.2486829 C103.800219,19.3864058 103.956177,19.4546736 104.042638,19.353756 C105.411236,17.7574761 107.206667,17 109.429477,17"
                  id="Fill-6" fill="#1E222D"></path>
            <path d="M174.613841,17 C177.458068,17 179.92476,18.0347291 181.658829,20.5725569 C181.834895,20.8309476 181.769904,21.1791625 181.511714,21.3558947 L178.642671,23.3133643 C178.382118,23.4906798 178.026441,23.4247697 177.845649,23.1681289 C177.070488,22.0639901 176.035364,21.5588743 174.707782,21.5588743 C173.342387,21.5588743 172.117017,22.2564707 172.117017,23.418937 C172.117017,24.6280652 172.918175,25.3729069 175.131993,26.2565679 L176.827659,26.8614237 C180.785591,28.3960192 183,30.4409799 183,34.0695312 C183,38.1629523 179.560812,41 174.566575,41 C171.025765,41 168.038557,39.6520524 166.093564,36.7181812 C165.925179,36.4656233 165.99017,36.1261574 166.239498,35.9500085 L169.264518,33.81639 C169.528616,33.6297421 169.896109,33.6968187 170.074538,33.9633752 C171.139203,35.5574647 172.424837,36.4422923 174.566575,36.4422923 C176.356772,36.4422923 177.582142,35.558048 177.582142,34.3034243 C177.582142,32.9543102 176.592511,32.1639731 174.425958,31.3724694 L172.776377,30.7209517 C168.77177,29.1869395 167.028248,26.7214378 167.028248,23.5589229 C167.028248,19.7915522 170.232288,17 174.613841,17"
                  id="Fill-7" fill="#1E222D"></path>
            <path d="M131.730682,32.7799111 C131.730682,32.896566 131.693434,33.0103045 131.624947,33.1053783 C130.307467,34.9263616 127.924829,36.116825 125.359558,36.116825 C121.287567,36.116825 118.413502,33.0464675 118.413502,29.0008749 C118.413502,24.9535325 121.287567,21.8849248 125.359558,21.8849248 C127.924829,21.8849248 130.307467,23.0742217 131.625548,24.8969548 C131.694035,24.9920286 131.730682,25.1051839 131.730682,25.2212555 L131.730682,32.7799111 Z M136.418459,17.3721292 L132.312223,17.3721292 C131.990813,17.3721292 131.730682,17.6246871 131.730682,17.936739 L131.730682,18.7206601 C131.730682,18.8717282 131.553456,18.9580528 131.427896,18.8682285 C129.792611,17.7005128 127.700743,17 125.311497,17 C118.221257,17 113,22.210392 113,29.0008749 C113,35.7913578 118.221257,41 125.311497,41 C127.701344,41 129.793211,40.341483 131.428496,39.1790167 C131.554056,39.0897757 131.730682,39.175517 131.730682,39.3265852 L131.730682,40.063261 C131.730682,40.3758962 131.990813,40.6278708 132.312223,40.6278708 L136.418459,40.6278708 C136.739868,40.6278708 137,40.3758962 137,40.063261 L137,17.936739 C137,17.6246871 136.739868,17.3721292 136.418459,17.3721292 L136.418459,17.3721292 Z"
                  id="Fill-8" fill="#1E222D"></path>
            <g id="Group-11">
                <mask id="mask-2" fill="white">
                    <use xlink:href="#path-1"></use>
                </mask>
                <g id="Clip-10"></g>
                <path d="M15.8155495,0.0797912088 L37.3382088,0.0797912088 C42.7092637,0.0797912088 44.6574505,0.638912088 46.6207802,1.68901099 C48.5846923,2.73910989 50.1257692,4.28018681 51.1758681,6.2440989 C52.225967,8.20801099 52.7856703,10.1556154 52.7856703,15.5266703 L52.7856703,37.0499121 C52.7856703,42.420967 52.225967,44.3691538 51.1758681,46.3330659 C50.1257692,48.2963956 48.5846923,49.8380549 46.6207802,50.8875714 C44.6574505,51.9382527 42.7092637,52.4973736 37.3382088,52.4973736 L15.8155495,52.4973736 C10.4439121,52.4973736 8.49630769,51.9382527 6.5323956,50.8875714 C4.56848352,49.8380549 3.02740659,48.2963956 1.97730769,46.3330659 C0.927208791,44.3691538 0.368087912,42.420967 0.368087912,37.0499121 L0.368087912,15.5266703 C0.368087912,10.1556154 0.927208791,8.20801099 1.97730769,6.2440989 C3.02740659,4.28018681 4.56848352,2.73910989 6.5323956,1.68901099 C8.49630769,0.638912088 10.4439121,0.0797912088 15.8155495,0.0797912088"
                      id="Fill-9" fill="url(#linearGradient-3)" mask="url(#mask-2)"></path>
            </g>
            <path d="M33.5859557,11 C38.79826,11 43.0233899,15.2292535 43.0251506,20.4475071 C43.0280851,21.8290515 43.0298459,22.8644753 43.0316066,23.5549536 C43.0316066,23.6407492 42.9500268,23.691874 42.8790112,23.654265 C42.0544096,23.21706 41.1159483,22.9690754 40.1199703,22.9690754 C39.1239923,22.9690754 38.1849442,23.21706 37.3609294,23.654265 C37.2793496,23.6971628 37.1954221,23.6413369 37.1954221,23.5584795 C37.1942483,22.9120742 37.1924876,21.9630337 37.19014,20.7107704 L37.1895531,20.451033 C37.1895531,18.4583418 35.5761509,16.8429162 33.5859557,16.8429162 C31.5963474,16.8429162 29.9835321,18.4583418 29.9835321,20.451033 L29.9829452,20.4751263 C29.9829452,20.4833532 29.9829452,20.4933431 29.9829452,20.505096 L29.9823583,20.5985309 C29.9794238,21.2913598 29.9647512,24.3018456 29.9506654,27.2453402 L29.9477309,27.7348453 C29.9354059,30.339271 29.9236678,32.7856212 29.9201464,33.4014691 L29.9201464,33.494904 C29.9201464,33.5072445 29.9195595,33.5166468 29.9195595,33.5248737 L29.9195595,33.5495547 C29.9195595,38.7689836 25.6938427,43 20.4809515,43 C15.2686472,43 11.0441042,38.7707465 11.0423435,33.5524929 C11.039409,32.1715361 11.0376482,31.1355247 11.0358875,30.445634 C11.0358875,30.3592508 11.1174673,30.308126 11.1884829,30.3463227 C12.0124976,30.78294 12.9515458,31.0309246 13.9475238,31.0309246 C14.9435018,31.0309246 15.8825499,30.78294 16.7065647,30.345735 C16.7875576,30.3028372 16.871485,30.3586631 16.8720719,30.4415205 C16.8732458,31.0873382 16.8750065,32.0369663 16.8773541,33.2892296 L16.877941,33.5495547 C16.877941,35.5422459 18.4913431,37.1570838 20.4809515,37.1570838 C22.4711467,37.1570838 24.083962,35.5422459 24.083962,33.5495547 L24.083962,33.5248737 C24.083962,33.5166468 24.0845489,33.5072445 24.0845489,33.494904 L24.0845489,33.4014691 C24.0874834,32.7474245 24.1009822,30.0242953 24.114481,27.2429896 L24.1168286,26.7523092 C24.1315013,23.8076393 24.145587,20.9293729 24.1473477,20.5045083 L24.1473477,20.451033 C24.1473477,15.2310164 28.3736514,11 33.5859557,11 Z M42.985828,34.210651 L42.9864149,34.3887063 C42.9864149,34.4198513 42.9864149,34.4527592 42.9864149,34.4868423 L42.9870018,34.7025067 C42.9887625,35.6168763 42.991697,37.1412175 42.9963994,39.2755303 C42.9999137,40.8886053 41.6958105,42.1996327 40.0841691,42.2031617 C38.4731146,42.2055091 37.1637293,40.9009457 37.1607947,39.2872831 C37.1560995,37.1470939 37.153165,35.6186392 37.1508174,34.7025067 L37.1508174,34.4862547 C37.1502275,34.4521715 37.1502275,34.4192636 37.1502275,34.3881186 L37.1502275,34.2094757 C37.1496435,34.1330824 37.2359186,34.079607 37.3116294,34.1195666 C38.1315358,34.5514829 39.064128,34.8024057 40.0530631,34.8024057 C41.0549102,34.8024057 41.9986536,34.5602975 42.8261898,34.118979 C42.8954446,34.0819576 42.985828,34.1248554 42.985828,34.210651 Z M40.0665619,24.9417868 C42.2351763,24.9417868 44,26.7082362 44,28.8801579 C44,31.0509044 42.2351763,32.8173538 40.0665619,32.8173538 C37.8985345,32.8173538 36.1337108,31.0509044 36.1337108,28.8801579 C36.1337108,26.7082362 37.8985345,24.9417868 40.0665619,24.9417868 Z M13.9322642,21.1820586 C16.1008786,21.1820586 17.8651154,22.9485079 17.8651154,25.1198421 C17.8651154,27.2911762 16.1008786,29.0576256 13.9322642,29.0576256 C11.7636499,29.0576256 10,27.2911762 10,25.1198421 C10,22.9485079 11.7636499,21.1820586 13.9322642,21.1820586 Z M13.9310904,11.7915455 C15.5427319,11.7880268 16.8515303,13.0937655 16.8550517,14.7068405 C16.8597469,16.9357635 16.8626815,18.5012396 16.8644422,19.4032688 L16.8650291,19.606005 C16.8650291,19.6700578 16.8650291,19.7294096 16.865616,19.7846479 C16.865616,19.8610412 16.7793409,19.9145166 16.7036302,19.874557 C15.8837237,19.4426407 14.9511315,19.1917179 13.9621964,19.1917179 C12.9609363,19.1917179 12.016606,19.4338261 11.1890698,19.8751446 C11.119815,19.912166 11.0294316,19.8692682 11.0294316,19.7834726 C11.0294316,19.7282343 11.0294316,19.6694702 11.0294316,19.606005 L11.0288447,19.4032688 C11.0270839,18.5030025 11.0235625,16.9422275 11.0188602,14.7185933 C11.0153458,13.1055183 12.319449,11.7944909 13.9310904,11.7915455 L13.9310904,11.7915455 Z"
                  id="Fill-12" fill="#FFFFFF"></path>
        </g>
    </g>
</svg>
