<?xml version="1.0" encoding="UTF-8"?>
<svg width="400px" height="250px" viewBox="0 0 400 250" version="1.1" xmlns="http://www.w3.org/2000/svg" xmlns:xlink="http://www.w3.org/1999/xlink">
    <title>Rectangle</title>
    <g id="Page-1" stroke="none" stroke-width="1" fill="none" fill-rule="evenodd">
        <rect id="Rectangle" fill="#FFFFFF" x="0" y="0" width="400" height="250"></rect>
        <g id="GDG-Montreal" transform="translate(100.000000, 83.000000)">
            <g id="Layer_1" transform="translate(111.594442, 55.457684)">
                <rect id="Rectangle" x="0.0837524211" y="5.85927411" width="114.060611" height="19.2302349"></rect>
                <text id="Montreal" fill="#6D6F75" fill-rule="nonzero" font-family="Helvetica" font-size="22.6357895" font-weight="normal">
                    <tspan x="0.0840014147" y="21.1089687">Montreal</tspan>
                </text>
            </g>
            <g id="Layer_15" transform="translate(0.000000, 58.173979)" fill-rule="nonzero">
                <g id="Group">
                    <path d="M11.0564514,11.2352741 L18.5421069,6.91297011 C20.3043032,5.89549137 20.9075469,3.64323032 19.8900682,1.88103411 C18.8725895,0.118837895 16.6203284,-0.484405895 14.8581322,0.533072842 L1.92404211,8.00061979 L11.0564514,11.2352741 Z" id="Path" fill="#E43729"></path>
                    <path d="M16.6984219,22.3437878 C17.9716851,22.3437878 19.2098627,21.6828227 19.8923318,20.5012345 C20.9098105,18.7390383 20.3054349,16.4867773 18.5443705,15.4692985 L5.60914863,8.00061979 C3.84695242,6.98314105 1.59469137,7.58751663 0.577212632,9.34858105 C-0.440266105,11.1107773 0.164109474,13.3630383 1.92517389,14.3805171 L14.8603958,21.8491958 C15.439872,22.1842055 16.0736741,22.3437878 16.6984219,22.3437878" id="Path" fill="#597DBE"></path>
                    <path d="M29.5657364,22.3437878 C30.1904842,22.3437878 30.8242863,22.1842055 31.4037625,21.8491958 L44.3389844,14.3805171 L35.3220177,11.0802189 L27.7197878,15.4692985 C25.9575916,16.4867773 25.3543478,18.7390383 26.3718265,20.5012345 C27.0542956,21.6828227 28.2924733,22.3437878 29.5657364,22.3437878" id="Path" fill="#FABE00"></path>
                    <path d="M42.4941676,14.8751091 C43.7674307,14.8751091 45.0056084,14.2152758 45.6880775,13.0325558 C46.7055562,11.2714914 46.1011806,9.01809853 44.3401162,8.00061979 L31.4048943,0.531941053 C29.6426981,-0.485537684 27.3904371,0.117706105 26.3729583,1.87990232 C25.3554796,3.64096674 25.9598552,5.89435958 27.7209196,6.91183832 L40.6561415,14.3805171 C41.2356177,14.7155267 41.8694198,14.8751091 42.4941676,14.8751091" id="Path" fill="#00964D"></path>
                    <path d="M60.8099166,18.5919057 C59.523072,17.8505836 58.4999343,16.8274459 57.7438989,15.5247562 C56.9867318,14.2231983 56.6087141,12.7835621 56.6087141,11.2092429 C56.6087141,9.63492379 56.9867318,8.19641937 57.7438989,6.89372968 C58.5010661,5.59104 59.523072,4.56903411 60.8099166,3.82658021 C62.0967613,3.08412632 63.5058392,2.71403116 65.0348867,2.71403116 C66.2311882,2.71403116 67.3550552,2.92680758 68.4076194,3.35009684 C69.4601836,3.77451789 70.3271343,4.37210274 71.0084716,5.14511495 L69.6231613,6.53042526 C69.1081971,5.89435958 68.4494956,5.40655832 67.6470568,5.06588968 C66.8446181,4.72522105 65.9810627,4.55545263 65.0575225,4.55545263 C63.9064926,4.55545263 62.834688,4.83160926 61.8432404,5.38505432 C60.8517928,5.93849937 60.0561448,6.71830232 59.45856,7.72446316 C58.8598434,8.73175579 58.5610509,9.89410358 58.5610509,11.2115065 C58.5610509,12.5289095 58.8598434,13.6912573 59.45856,14.6985499 C60.0561448,15.7058425 60.8551882,16.4856455 61.8545583,17.0379587 C62.8539284,17.5914038 63.9212059,17.8675604 65.0575225,17.8675604 C66.1474358,17.8675604 67.0596581,17.6966602 67.7953213,17.3571234 C68.5298526,17.0164547 69.1613912,16.5660025 69.6922004,16.0057667 C70.0860632,15.5824775 70.404096,15.0709086 70.6462989,14.472192 C70.8885019,13.8734754 71.0401617,13.2113785 71.1001465,12.4847697 L65.0801583,12.4847697 L65.0801583,10.6908834 L72.8940328,10.6908834 C72.9698627,11.1153044 73.0072118,11.5091672 73.0072118,11.8724716 C73.0072118,12.8718417 72.8476295,13.8451806 72.5307284,14.7913566 C72.2126956,15.7375326 71.7056539,16.5671343 71.0084716,17.2790299 C69.5088505,18.8997524 67.5180328,19.7089819 65.0337549,19.7089819 C63.5047074,19.7044547 62.0967613,19.3343596 60.8099166,18.5919057" id="Path" fill="#6D6F75"></path>
                    <path d="M75.4156598,3.07733558 L80.3219672,3.07733558 C81.9879613,3.07733558 83.4411789,3.42253137 84.682752,4.11065937 C85.9243251,4.79991916 86.8784236,5.75741305 87.5450476,6.98427284 C88.2116716,8.21113263 88.5444177,9.61907874 88.5444177,11.2092429 C88.5444177,12.7994072 88.2105398,14.2073533 87.5450476,15.4342131 C86.8784236,16.6610728 85.9243251,17.6185667 84.682752,18.3078265 C83.4411789,18.9970863 81.9868295,19.3411503 80.3219672,19.3411503 L75.4156598,19.3411503 L75.4156598,3.07733558 Z M80.3219672,17.5008606 C82.2448775,17.5008606 83.7705297,16.9485474 84.8989238,15.8427891 C86.0273179,14.7381625 86.5909491,13.1932699 86.5909491,11.2092429 C86.5909491,9.225216 86.0261861,7.68032337 84.8989238,6.57569684 C83.7705297,5.46993853 82.2448775,4.91762526 80.3219672,4.91762526 L77.3238568,4.91762526 L77.3238568,17.5019924 L80.3219672,17.5019924 L80.3219672,17.5008606 Z" id="Shape" fill="#6D6F75"></path>
                    <path d="M94.3369162,18.5919057 C93.0500716,17.8505836 92.0269339,16.8274459 91.2708985,15.5247562 C90.5137314,14.2231983 90.1345819,12.7835621 90.1345819,11.2092429 C90.1345819,9.63492379 90.5125996,8.19641937 91.2708985,6.89372968 C92.0280657,5.59104 93.0500716,4.56903411 94.3369162,3.82658021 C95.6237608,3.08412632 97.0328387,2.71403116 98.5618863,2.71403116 C99.7581878,2.71403116 100.882055,2.92680758 101.935751,3.35009684 C102.988315,3.77451789 103.855266,4.37210274 104.536603,5.14511495 L103.151293,6.53042526 C102.636328,5.89435958 101.977627,5.40655832 101.175188,5.06588968 C100.372749,4.72522105 99.5091941,4.55545263 98.5856539,4.55545263 C97.434624,4.55545263 96.3628194,4.83160926 95.3713718,5.38505432 C94.3799242,5.93849937 93.5842762,6.71830232 92.9866914,7.72446316 C92.3879747,8.73175579 92.0891823,9.89410358 92.0891823,11.2115065 C92.0891823,12.5289095 92.3879747,13.6912573 92.9866914,14.6985499 C93.5842762,15.7058425 94.3833196,16.4856455 95.3826897,17.0379587 C96.3820598,17.5914038 97.4504691,17.8675604 98.5856539,17.8675604 C99.6755672,17.8675604 100.587789,17.6966602 101.322321,17.3571234 C102.056852,17.0164547 102.688391,16.5660025 103.2192,16.0057667 C103.613063,15.5824775 103.931096,15.0709086 104.173299,14.472192 C104.415501,13.8734754 104.567161,13.2113785 104.627146,12.4847697 L98.6071579,12.4847697 L98.6071579,10.6908834 L106.421032,10.6908834 C106.496862,11.1153044 106.534211,11.5091672 106.534211,11.8724716 C106.534211,12.8718417 106.375761,13.8451806 106.057728,14.7913566 C105.739695,15.7375326 105.231522,16.5671343 104.535471,17.2790299 C103.03585,18.8997524 101.045032,19.7089819 98.5607545,19.7089819 C97.0317069,19.7044547 95.6237608,19.3343596 94.3369162,18.5919057" id="Path" fill="#6D6F75"></path>
                </g>
            </g>
            <g id="Group" transform="translate(32.029642, 0.000000)">
                <g transform="translate(19.014063, 18.334989)" fill="#00964D" fill-rule="nonzero" id="Path">
                    <g>
                        <path d="M26.6955183,14.5751848 L0.585135158,14.5751848 C0.318032842,14.5751848 0.101861053,14.3590131 0.101861053,14.0919107 C0.101861053,14.0251352 0.115442526,13.9594914 0.142605474,13.8983747 L2.14474105,9.31915453 C2.21151663,9.17315368 2.34733137,9.06902905 2.50578189,9.04299789 C3.76772716,8.76457768 4.96516042,8.24961347 6.03470147,7.52526821 C8.38090105,5.95208084 9.85449095,3.64323032 10.4045406,0.659833263 C10.4169903,0.567026526 10.4339672,0.475351579 10.4554712,0.383676632 C10.5222467,0.125628632 10.7859537,-0.0294265263 11.0451335,0.0384808421 C11.2839411,0.100729263 11.4367326,0.332746105 11.4016472,0.576080842 C11.3880657,0.667755789 11.3722206,0.754903579 11.3563756,0.836392421 C11.2771503,1.44189979 11.2069794,3.15769263 12.5651267,4.87009011 C14.0828564,6.78620968 17.7690947,9.06789726 26.6943865,9.06789726 C26.9614888,9.06789726 27.1776606,9.28406905 27.1776606,9.55117137 C27.1776606,9.81827368 26.9614888,10.0344455 26.6943865,10.0344455 C19.2008084,10.0344455 14.1858493,8.49181642 11.7898509,5.44730274 C11.2805457,4.80784168 10.8923419,4.07896926 10.6456118,3.30029811 C9.82280084,5.36355032 8.38882358,7.12687832 6.537216,8.35373811 C5.43711663,9.08940126 4.21591579,9.62700126 2.93133474,9.94390232 L1.32419368,13.6154274 L26.6955183,13.6154274 C26.9626206,13.6154274 27.1787924,13.8315992 27.1787924,14.0987015 C27.1787924,14.3658038 26.9626206,14.5819756 26.6955183,14.5819756 L26.6955183,14.5751848 Z"></path>
                        <path d="M10.7486046,14.5751848 C10.4815023,14.5751848 10.2653305,14.3590131 10.2653305,14.0919107 L10.2653305,0.487801263 C10.2653305,0.220698947 10.4815023,0.00452715789 10.7486046,0.00452715789 C11.0157069,0.00452715789 11.2318832,0.220698947 11.2318832,0.487801263 L11.2318832,14.0896472 C11.2330105,14.3567495 11.0179705,14.5740531 10.752,14.5751848 C10.7497364,14.5751848 10.7486046,14.5751848 10.7486046,14.5751848 Z"></path>
                        <path d="M22.2192909,14.5751848 C21.9521886,14.5751848 21.7360168,14.3590131 21.7360168,14.0919107 L21.7360168,9.53758989 C21.7360168,9.27048758 21.9521886,9.05431579 22.2192909,9.05431579 C22.4863933,9.05431579 22.7025651,9.27048758 22.7025651,9.53758989 L22.7025651,14.0919107 C22.7025651,14.3590131 22.4863933,14.5751848 22.2192909,14.5751848 Z"></path>
                        <path d="M4.60638316,14.5751848 C4.33928084,14.5751848 4.12310905,14.3590131 4.12310905,14.0919107 L4.12310905,9.25237895 C4.12310905,8.98527663 4.33928084,8.76910484 4.60638316,8.76910484 C4.87348547,8.76910484 5.08965726,8.98527663 5.08965726,9.25237895 L5.08965726,14.0919107 C5.08965726,14.3590131 4.87348547,14.5751848 4.60638316,14.5751848 C4.60638316,14.5751848 4.60638316,14.5751848 4.60638316,14.5751848 Z"></path>
                        <path d="M10.8549928,8.59367747 C10.5878905,8.59367747 10.3717187,8.37750568 10.3717187,8.11040337 C10.3717187,7.84330105 10.5878905,7.62712926 10.8549928,7.62712926 L15.4093137,7.62712926 C15.676416,7.62712926 15.8925878,7.84330105 15.8925878,8.11040337 C15.8925878,8.37750568 15.676416,8.59367747 15.4093137,8.59367747 L15.4093137,8.59367747 L10.8549928,8.59367747 Z"></path>
                        <path d="M6.58814653,8.59707284 C6.32104421,8.59707284 6.10487242,8.38090105 6.10487242,8.11379874 C6.10487242,7.84669642 6.32104421,7.63052463 6.58814653,7.63052463 L11.1424674,7.63052463 L11.1424674,7.63052463 C11.4095697,7.63052463 11.6257415,7.84669642 11.6257415,8.11379874 C11.6257415,8.38090105 11.4095697,8.59707284 11.1424674,8.59707284 L6.58814653,8.59707284 Z"></path>
                        <path d="M16.6044834,14.5751848 C16.3373811,14.5751848 16.1212093,14.3590131 16.1212093,14.0919107 L16.1212093,8.10927158 C16.1212093,7.84216926 16.3373811,7.62599747 16.6044834,7.62599747 C16.8715857,7.62599747 17.0877575,7.84216926 17.0877575,8.10927158 L17.0877575,14.0919107 C17.0866257,14.3590131 16.8704539,14.5751848 16.6044834,14.5751848 L16.6044834,14.5751848 Z"></path>
                        <path d="M21.7529937,13.8961112 C21.6251015,13.8972429 21.5017364,13.8474442 21.4111933,13.7580328 L16.7436935,9.08940126 C16.5546846,8.89926063 16.5569482,8.59141389 16.7470888,8.40240505 C16.9372295,8.21339621 17.2450762,8.21565979 17.4340851,8.40580042 L22.1015848,13.074432 C22.2917255,13.2611773 22.2951208,13.5667604 22.1083756,13.7580328 C22.0167006,13.8519714 21.891072,13.9040337 21.7609162,13.90292 L21.7529937,13.8961112 Z"></path>
                        <path d="M26.2065853,13.89613 C26.0786931,13.8972429 25.955328,13.8474442 25.8647848,13.7580328 L22.1298796,10.0231276 C21.9397389,9.83298695 21.9397389,9.52400842 22.1298796,9.332736 C22.3200202,9.14259537 22.6289987,9.14259537 22.8202712,9.332736 L26.5551764,13.0676413 C26.7453171,13.2543865 26.7487124,13.5599697 26.5619672,13.7512421 C26.4702922,13.8451806 26.3446636,13.8972429 26.2145078,13.89613 L26.2065853,13.89613 Z"></path>
                        <path d="M15.9718131,13.8961112 C15.8439208,13.8972429 15.7216876,13.8474442 15.6311444,13.7580328 L10.5652547,8.68648421 C10.3762459,8.49634358 10.3785095,8.18849684 10.5686501,7.999488 C10.7587907,7.81047916 11.0666375,7.81274274 11.2556463,8.00288337 L16.321536,13.0721684 C16.5116766,13.2589137 16.515072,13.5644968 16.3283267,13.7557693 C16.2366518,13.8497078 16.1098914,13.9017701 15.9786038,13.9006564 L15.9718131,13.8961112 Z"></path>
                        <path d="M11.2613053,13.896129 C10.9942029,13.8983747 10.7768994,13.6844665 10.7734859,13.4173642 C10.7723722,13.2860766 10.8244345,13.160448 10.9183731,13.0676413 L15.9842627,7.99835621 C16.1732716,7.80821558 16.4799865,7.805952 16.6712589,7.99496084 C16.8625314,8.18396968 16.8636632,8.49068463 16.6746543,8.68195705 L11.6031057,13.7546375 C11.5125625,13.8463124 11.3903293,13.896129 11.2613053,13.896129 Z"></path>
                        <path d="M4.60638316,14.3873259 C4.33928084,14.3873259 4.12197726,14.171136 4.12084547,13.9040337 C4.12084547,13.7750097 4.171776,13.6505128 4.26345095,13.5599697 L9.82280084,8.00061979 C10.0118097,7.81161095 10.3173928,7.81161095 10.5064017,8.00061979 C10.6954105,8.18962863 10.6954105,8.49521179 10.5064017,8.68422063 L4.94705179,14.2458341 C4.85764042,14.3363773 4.73540716,14.3884396 4.60638316,14.3873259 Z"></path>
                        <path d="M17.1466105,13.8961112 C16.8795082,13.8983747 16.6622046,13.6844665 16.6587912,13.4173642 C16.6576775,13.2860766 16.7097398,13.160448 16.8036783,13.0676413 L20.9641364,8.90491958 C21.1542771,8.71477895 21.4632556,8.71477895 21.654528,8.90491958 C21.8446686,9.09506021 21.8446686,9.40403874 21.654528,9.59531116 L17.4940699,13.7557693 C17.4012632,13.848576 17.2767663,13.8983747 17.1466105,13.8961112 Z"></path>
                        <path d="M22.8553566,13.8961156 C22.5882543,13.8972429 22.3709507,13.6822029 22.3698012,13.4162324 C22.3686872,13.2849448 22.4218813,13.160448 22.514688,13.0687731 L26.1466004,9.43459705 C26.3356093,9.24558821 26.6411924,9.24558821 26.8302013,9.43459705 C27.0192101,9.62360589 27.0192101,9.92918905 26.8302013,10.1181979 L26.8302013,10.1181979 L23.1982888,13.7523739 C23.1077457,13.8429171 22.9843806,13.8949794 22.8553566,13.8961156 Z"></path>
                        <path d="M10.0072825,13.8961112 C9.87939032,13.8972429 9.75715705,13.8474442 9.66661389,13.7580328 L4.91309811,9.00225347 C4.72408926,8.81324463 4.72408926,8.50766147 4.91309811,8.31865263 C5.10210695,8.12964379 5.40769011,8.12964379 5.59669895,8.31865263 L10.3513465,13.0721684 C10.5414872,13.2589137 10.5448825,13.5644968 10.3581373,13.7557693 C10.2664623,13.8497078 10.1397019,13.9017701 10.0084143,13.9006564 L10.0072825,13.8961112 Z"></path>
                        <path d="M26.3933305,14.5751848 C26.1262282,14.5751848 25.9100564,14.3590131 25.9100564,14.0919107 C25.9100564,13.8248084 26.1262282,13.6086366 26.3933305,13.6086366 L26.3933305,13.6086366 L51.7635234,13.6086366 L50.1586459,9.93937516 C48.8729331,9.62360589 47.652864,9.08713768 46.5516328,8.35373811 C44.6988935,7.12574653 43.2649162,5.36128674 42.4421053,3.29577095 C42.1953752,4.07557389 41.8071714,4.80331453 41.2978661,5.44277558 C38.9029996,8.48728926 33.8880404,10.0299183 26.3933305,10.0299183 C26.1262282,10.0299183 25.9100564,9.81374653 25.9100564,9.54664421 C25.9100564,9.27954189 26.1262282,9.06337011 26.3933305,9.06337011 C31.3188783,9.06337011 37.7689465,8.33449768 40.5225903,4.86556295 C41.8818695,3.15203368 41.8105667,1.43624084 41.7313415,0.830733474 C41.7143646,0.744717474 41.6996514,0.658701474 41.6860699,0.571553684 C41.6475891,0.307846737 41.8298072,0.0622484211 42.0935141,0.0237675789 C42.3368488,-0.0124496842 42.5688657,0.141473684 42.6311141,0.380281263 C42.6526181,0.470824421 42.6695949,0.563631158 42.6820446,0.656437895 C44.0141608,7.86027789 50.5140278,9.03054821 50.5808034,9.04186611 C50.7415175,9.07016084 50.8773322,9.17541726 50.9441078,9.32481347 L52.9451116,13.8983747 C53.0514998,14.1428413 52.9405844,14.4280522 52.6961179,14.5344404 C52.6350013,14.5616034 52.5693575,14.5751848 52.5025819,14.5751848 L26.3933305,14.5751848 Z"></path>
                        <path d="M42.3379806,14.5751848 C42.0708783,14.5751848 41.8547065,14.3590131 41.8547065,14.0919107 L41.8547065,0.487801263 C41.8547065,0.220698947 42.0708783,0.00452715789 42.3379806,0.00452715789 C42.6050829,0.00452715789 42.8212592,0.220698947 42.8212592,0.487801263 L42.8212592,14.0896472 C42.8223865,14.3567495 42.6073465,14.5740531 42.341376,14.5751848 C42.3402442,14.5751848 42.3391124,14.5751848 42.3379806,14.5751848 Z"></path>
                        <path d="M30.8718215,14.5751848 C30.6047192,14.5751848 30.3885474,14.3590131 30.3885474,14.0919107 L30.3885474,9.53758989 C30.3885474,9.27048758 30.6047192,9.05431579 30.8718215,9.05431579 C31.1389238,9.05431579 31.3550956,9.27048758 31.3550956,9.53758989 L31.3550956,14.0919107 C31.3539638,14.3590131 31.137792,14.5751848 30.8718215,14.5751848 Z"></path>
                        <path d="M26.4895326,14.5751848 C26.2224303,14.5751848 26.0062585,14.3590131 26.0062585,14.0919107 L26.0062585,9.53758989 C26.0062585,9.27048758 26.2224303,9.05431579 26.4895326,9.05431579 C26.7566349,9.05431579 26.9728067,9.27048758 26.9728067,9.53758989 L26.9728067,14.0919107 C26.9728067,14.3590131 26.7566349,14.5751848 26.4895326,14.5751848 Z"></path>
                        <path d="M48.4802021,14.5751848 C48.2130998,14.5751848 47.996928,14.3590131 47.996928,14.0919107 L47.996928,9.25237895 C47.996928,8.98527663 48.2130998,8.76910484 48.4802021,8.76910484 C48.7473044,8.76910484 48.9634762,8.98527663 48.9634762,9.25237895 L48.9634762,14.0919107 C48.9623444,14.3590131 48.7461726,14.5751848 48.4802021,14.5751848 C48.4802021,14.5751848 48.4802021,14.5751848 48.4802021,14.5751848 Z"></path>
                        <path d="M42.2304606,8.59367747 L37.6761398,8.59367747 C37.4090375,8.59367747 37.1928657,8.37750568 37.1928657,8.11040337 C37.1928657,7.84330105 37.4090375,7.62712926 37.6761398,7.62712926 L42.2304606,7.62712926 C42.4975629,7.62712926 42.7137347,7.84330105 42.7137347,8.11040337 C42.7137347,8.37750568 42.4975629,8.59367747 42.2304606,8.59367747 Z"></path>
                        <path d="M46.4950434,8.59707284 L46.4950434,8.59707284 L41.9407225,8.59707284 C41.6736202,8.59707284 41.4574484,8.38090105 41.4574484,8.11379874 C41.4574484,7.84669642 41.6736202,7.63052463 41.9407225,7.63052463 L41.9407225,7.63052463 L46.4950434,7.63052463 C46.7621457,7.63052463 46.9783175,7.84669642 46.9783175,8.11379874 C46.9783175,8.38090105 46.7621457,8.59707284 46.4950434,8.59707284 Z"></path>
                        <path d="M36.4832337,14.5751848 C36.2161314,14.5751848 35.9999596,14.3590131 35.9999596,14.0919107 L35.9999596,8.10927158 C35.9999596,7.84216926 36.2161314,7.62599747 36.4832337,7.62599747 C36.750336,7.62599747 36.9665078,7.84216926 36.9665078,8.10927158 L36.9665078,14.0919107 C36.965376,14.3590131 36.7492042,14.5751848 36.4832337,14.5751848 C36.4832337,14.5751848 36.4832337,14.5751848 36.4832337,14.5751848 Z"></path>
                        <path d="M31.3279326,13.896129 C31.0608303,13.8983747 30.8435267,13.6844665 30.8401133,13.4173642 C30.8389996,13.2860766 30.8910619,13.160448 30.9850004,13.0676413 L35.653632,8.39900968 C35.8426408,8.21000084 36.148224,8.21000084 36.3372328,8.39900968 C36.5262417,8.58801853 36.5262417,8.89360168 36.3372328,9.08261053 L31.6686013,13.7512421 C31.5791899,13.8440488 31.4569566,13.896129 31.3279326,13.896129 Z"></path>
                        <path d="M26.88,13.89613 C26.6128977,13.8972429 26.3955941,13.6822029 26.3944446,13.4162324 C26.3933305,13.2849448 26.4465246,13.160448 26.5393314,13.0687731 L30.2651823,9.33386779 C30.4553229,9.14372716 30.7643015,9.14372716 30.9555739,9.33386779 C31.1457145,9.52400842 31.1457145,9.83298695 30.9555739,10.0242594 L27.2229322,13.7591646 C27.1312573,13.8474442 27.0078922,13.8972429 26.88,13.89613 Z"></path>
                        <path d="M37.1136404,13.8961296 C36.8465381,13.8972429 36.6292345,13.6822029 36.628085,13.4162324 C36.6269709,13.2849448 36.6801651,13.160448 36.7729718,13.0687731 L41.8388615,7.999488 C42.0278703,7.81047916 42.3334535,7.81047916 42.5224623,7.999488 C42.7114712,8.18849684 42.7114712,8.49408 42.5224623,8.68308884 L37.4565726,13.7557693 C37.3648977,13.8463124 37.2415326,13.8972429 37.1136404,13.8961296 Z"></path>
                        <path d="M41.82528,13.8961112 C41.6973878,13.8972429 41.5740227,13.8474442 41.4834796,13.7580328 L36.4175899,8.68874779 C36.2285811,8.49973895 36.2285811,8.19415579 36.4175899,8.00514695 C36.6065987,7.81613811 36.9121819,7.81613811 37.1011907,8.00514695 L42.1670804,13.074432 C42.3572211,13.2611773 42.3606164,13.5667604 42.1738712,13.7580328 C42.0821962,13.8519714 41.9565676,13.9040337 41.8264118,13.90292 L41.8264118,13.8961112 L41.82528,13.8961112 Z"></path>
                        <path d="M48.4802021,14.3873078 C48.3523099,14.3884396 48.2289448,14.3386408 48.1384017,14.2492295 L42.5790518,8.68987958 C42.3900429,8.49973895 42.3923065,8.19189221 42.5824472,8.00288337 C42.7725878,7.81387453 43.0804345,7.81613811 43.2694434,8.00627874 L48.8287933,13.5656286 C49.0178021,13.7535057 49.0178021,14.0579571 48.8310568,14.2469659 C48.8299251,14.2480977 48.8299251,14.2480977 48.8287933,14.2492295 C48.7348547,14.3409044 48.6092261,14.3907032 48.4802021,14.3873078 Z"></path>
                        <path d="M35.9377112,13.89613 C35.8098189,13.8972429 35.6875857,13.8474442 35.5970425,13.7580328 L31.4377162,9.59531116 C31.2475756,9.40517053 31.2475756,9.096192 31.4377162,8.90491958 C31.6278568,8.71477895 31.9368354,8.71477895 32.1281078,8.90491958 L36.2874341,13.0653777 C36.4775747,13.2521229 36.4809701,13.5577061 36.2942248,13.7489785 C36.2025499,13.8429171 36.0757895,13.8949794 35.9445019,13.8938476 L35.9377112,13.89613 Z"></path>
                        <path d="M30.2312286,13.8961112 C30.1033364,13.8972429 29.9799714,13.8474442 29.8894282,13.7580328 L26.2575158,10.1238568 C26.0685069,9.934848 26.0685069,9.62926484 26.2575158,9.440256 C26.4465246,9.25124716 26.7521078,9.25124716 26.9411166,9.440256 L30.5730291,13.074432 C30.7631697,13.2611773 30.7665651,13.5667604 30.5798198,13.7580328 C30.4881448,13.8519714 30.3625162,13.9040337 30.2323604,13.90292 L30.2323604,13.8961112 L30.2312286,13.8961112 Z"></path>
                        <path d="M43.0781709,13.8961156 C42.8110686,13.8972429 42.5937651,13.6822029 42.5926156,13.4162324 C42.5915015,13.2849448 42.6446956,13.160448 42.7375023,13.0687731 L47.4910181,8.31525726 C47.6800269,8.12624842 47.9856101,8.12624842 48.1746189,8.31525726 C48.3636278,8.50426611 48.3636278,8.80984926 48.1746189,8.99885811 L43.4211032,13.7523739 C43.33056,13.8440488 43.2071949,13.8961156 43.0781709,13.8961156 Z"></path>
                    </g>
                    <path d="M9.32934063,22.1400657 C9.33386779,22.1219571 9.33952674,22.1038484 9.34292211,22.0857398 L10.4815023,14.1609499 C10.5199832,13.8972429 10.3366333,13.6516446 10.0717945,13.6142956 C9.80808758,13.5758147 9.56248926,13.7591646 9.52514021,14.0240034 L8.38203284,21.9487933 C8.38090105,21.9533204 8.38090105,21.9567158 8.37976926,21.9612429 C8.37184674,22.0234914 8.37637389,22.084608 8.39108716,22.1411975 L9.32934063,22.1411975 L9.32934063,22.1400657 Z"></path>
                    <path d="M12.6590653,22.1174299 L13.5973187,22.1174299 C13.6086366,22.063104 13.612032,22.0053827 13.6041095,21.9476615 L12.4632657,14.0228716 C12.4281802,13.7851958 12.2244581,13.6086366 11.9845187,13.6086366 L10.7429457,13.6086366 C10.4758434,13.6086366 10.2596716,13.8248084 10.2596716,14.0919107 C10.2596716,14.3590131 10.4758434,14.5751848 10.7429457,14.5751848 L11.5714156,14.5751848 L12.6534063,22.0857398 C12.6534063,22.0970577 12.6568017,22.1072438 12.6590653,22.1174299 Z"></path>
                    <path d="M42.3357171,13.6097684 L41.094144,13.6097684 C40.8542046,13.6097684 40.6504825,13.7863276 40.6165288,14.0240034 L39.4756851,21.9487933 C39.4756851,21.9521886 39.4745533,21.955584 39.4745533,21.9589794 C39.4666307,22.0178324 39.4711579,22.0755537 39.4836076,22.1310114 L40.42752,22.1310114 C40.4309154,22.1162981 40.4354425,22.1027166 40.4377061,22.0880034 L41.5151697,14.5774484 L42.3368488,14.5774484 C42.6039512,14.5774484 42.8201229,14.3612766 42.8201229,14.0941743 C42.8201229,13.827072 42.6028194,13.6097684 42.3357171,13.6097684 Z"></path>
                    <path d="M43.7527175,22.1174299 L44.6954981,22.1174299 C44.706816,22.063104 44.7102114,22.0053827 44.7022888,21.9476615 L43.5580497,14.0228716 C43.5195688,13.7591646 43.2751023,13.5758147 43.0113954,13.6131638 C42.7476884,13.6516446 42.5643385,13.8961112 42.6016876,14.1598181 L43.7459267,22.084608 C43.7459267,22.0970577 43.7504539,22.1072438 43.7527175,22.1174299 Z"></path>
                </g>
                <g transform="translate(68.812800, 0.000000)" fill="#597DBE" fill-rule="nonzero">
                    <polygon id="Path" points="9.27501474 40.4976909 15.48288 40.4976909 15.48288 6.68321684 9.27501474 3.02753684"></polygon>
                    <rect id="Rectangle" x="6.63681347" y="4.58148379" width="2.20246232" height="35.9173389"></rect>
                    <polygon id="Path" points="6.25540042 40.4524194 0.0486669474 40.4524194 0.0486669474 4.00087579 6.25540042 0.0588530526"></polygon>
                </g>
                <path d="M116.780301,23.3918248 C114.701204,20.3586291 112.979752,17.246208 111.625,14.1654771 L101.971968,14.0805928 C104.160849,15.9254097 106.236551,18.0995773 108.114189,20.5781962 C110.776158,24.0935343 112.760185,27.8510754 114.056084,31.5927714 L120.311485,40.5203267 L134.27324,39.3568472 C128.245329,36.4572025 121.919757,30.8899301 116.780301,23.3918248 Z" id="Path" fill="#6B6F74" fill-rule="nonzero"></path>
                <polygon id="Path" stroke="#6B6F74" stroke-width="0.53164557" fill="#FFFFFF" fill-rule="nonzero" points="106.889593 19.1849634 79.3678686 38.3031512 101.210274 38.8656505"></polygon>
                <polygon id="Path" stroke="#6B6F74" stroke-width="0.53164557" points="106.889593 19.1849634 86.5660497 38.6268429 94.3855832 38.6268429"></polygon>
                <path d="M116.555075,31.5158097 L116.555075,31.4705381 L89.4645625,31.4705381 L89.4645625,31.4965693 C84.7099149,31.7048185 80.7362021,33.1851992 79.0713398,35.2111023 L128.432074,35.2111023 C126.512559,33.2361297 121.993324,31.7795166 116.555075,31.5158097 Z" id="Path" fill="#1D71B8" fill-rule="nonzero"></path>
                <path d="M86.0646669,40.2170072 L121.257661,40.2170072 C127.0694,39.0954038 130.753374,37.4282779 130.753374,35.5664842 C130.753374,32.1880926 118.623987,29.4491621 103.660598,29.4491621 C88.6972093,29.4491621 76.5678215,32.1880926 76.5678215,35.5664842 C76.5678215,37.4282779 80.252928,39.0954038 86.0646669,40.2170072 Z" id="Path" stroke="#6B6F74" stroke-width="0.53164557" fill="#FFFFFF" fill-rule="nonzero"></path>
                <path d="M114.669514,31.5214686 L92.6052783,31.5214686 C89.0005288,32.3793651 86.0476901,33.6435739 84.1259116,35.1613036 L123.150013,35.1613036 C121.227102,33.6435739 118.274264,32.3793651 114.669514,31.5214686 Z" id="Path" stroke="#6B6F74" stroke-width="0.53164557" fill="#FFFFFF" fill-rule="nonzero"></path>
                <polygon id="Path" stroke="#6B6F74" stroke-width="0.53164557" points="108.334888 31.5214686 97.5557255 31.5214686 92.166144 35.2326063 94.5123436 38.943744 112.106011 38.943744 113.72447 35.2326063"></polygon>
                <path d="M84.2753078,35.7215394 C84.2753078,35.5562981 84.2877575,35.3933204 84.3092615,35.2326063 L76.5689533,35.2326063 C76.6425196,36.5715133 77.4562762,37.7576286 78.6967175,38.5487495 L85.5406484,38.5487495 C84.7495276,37.7746055 84.2753078,36.7910804 84.2753078,35.7215394 Z" id="Path" stroke="#6B6F74" stroke-width="0.53164557" fill="#FFFFFF" fill-rule="nonzero"></path>
                <path d="M123.045888,35.7215394 C123.045888,35.5562981 123.033438,35.3933204 123.011934,35.2326063 L130.752243,35.2326063 C130.678676,36.5715133 129.86492,37.7576286 128.624478,38.5487495 L121.780547,38.5487495 C122.571668,37.7746055 123.045888,36.7910804 123.045888,35.7215394 Z" id="Path" stroke="#6B6F74" stroke-width="0.53164557" fill="#FFFFFF" fill-rule="nonzero"></path>
                <rect id="Rectangle" fill="#6B6F74" fill-rule="nonzero" x="78.6955857" y="38.5487495" width="55.5765221" height="1.97157726"></rect>
                <path d="M110.133302,20.7162745 L112.873364,20.7162745 C112.05508,19.4882829 111.374875,18.2319966 110.836143,16.9870282 L106.889593,16.9519427 C107.784839,17.719296 108.633681,18.622464 109.401034,19.6535242 C109.661346,20.0021154 109.90468,20.3563655 110.133302,20.7162745 Z" id="Path" fill="#FABE00" fill-rule="nonzero"></path>
                <g transform="translate(0.000000, 22.069895)" fill-rule="nonzero">
                    <path d="M21.4949457,18.4787267 C23.00928,16.5399714 23.912448,14.0987015 23.912448,11.4480505 C23.912448,5.13492884 18.794496,0.0169768421 12.4813743,0.0169768421 C6.16825263,0.0169768421 1.05030063,5.13492884 1.05030063,11.4480505 C1.05030063,14.0998333 1.95346863,16.5399714 3.46780295,18.4787267 L21.4949457,18.4787267 Z" id="Path" fill="#E43729"></path>
                    <ellipse id="Oval" stroke="#FFFFFF" stroke-width="0.53164557" fill="#E43729" cx="12.4813743" cy="15.5145701" rx="12.4768472" ry="1"></ellipse>
                    <rect id="Rectangle" stroke="#FFFFFF" stroke-width="0.53164557" fill="#6B6F74" x="4.62449179" y="16.1110232" width="1.71805642" height="1.71805642"></rect>
                    <rect id="Rectangle" stroke="#FFFFFF" stroke-width="0.53164557" fill="#6B6F74" x="6.46364968" y="16.1110232" width="1.71805642" height="1.71805642"></rect>
                    <rect id="Rectangle" stroke="#FFFFFF" stroke-width="0.53164557" fill="#6B6F74" x="8.18170611" y="16.1110232" width="1.71805642" height="1.71805642"></rect>
                    <rect id="Rectangle" stroke="#FFFFFF" stroke-width="0.53164557" fill="#6B6F74" x="9.89976253" y="16.1110232" width="1.71805642" height="1.71805642"></rect>
                    <rect id="Rectangle" stroke="#FFFFFF" stroke-width="0.53164557" fill="#6B6F74" x="11.6178189" y="16.1110232" width="1.71805642" height="1.71805642"></rect>
                    <rect id="Rectangle" stroke="#FFFFFF" stroke-width="0.53164557" fill="#6B6F74" x="13.3358754" y="16.1110232" width="1.71805642" height="1.71805642"></rect>
                    <rect id="Rectangle" stroke="#FFFFFF" stroke-width="0.53164557" fill="#6B6F74" x="15.1886147" y="16.1110232" width="1.71805642" height="1.71805642"></rect>
                    <rect id="Rectangle" stroke="#FFFFFF" stroke-width="0.53164557" fill="#6B6F74" x="16.9066712" y="16.1110232" width="1.71805642" height="1.71805642"></rect>
                    <rect id="Rectangle" stroke="#FFFFFF" stroke-width="0.53164557" fill="#6B6F74" x="18.6247276" y="16.1110232" width="1.71805642" height="1.71805642"></rect>
                </g>
                <g transform="translate(69.718232, 7.696168)" fill="#FFFFFF" fill-rule="nonzero" id="Rectangle">
                    <rect x="0.0203722105" y="0.0158450526" width="4.451328" height="1"></rect>
                    <rect x="0.0203722105" y="1.30268968" width="4.451328" height="1"></rect>
                    <rect x="0.0203722105" y="2.58953432" width="4.451328" height="1"></rect>
                    <rect x="0.0203722105" y="3.87637895" width="4.451328" height="1"></rect>
                    <rect x="0.0203722105" y="5.16322358" width="4.451328" height="1"></rect>
                    <rect x="0.0203722105" y="6.45006821" width="4.451328" height="1"></rect>
                    <rect x="0.0203722105" y="7.73804463" width="4.451328" height="1"></rect>
                    <rect x="0.0203722105" y="9.02488926" width="4.451328" height="1"></rect>
                    <rect x="0.0203722105" y="10.3117339" width="4.451328" height="1"></rect>
                    <rect x="0.0203722105" y="11.5985785" width="4.451328" height="1"></rect>
                    <rect x="0.0203722105" y="12.8854232" width="4.451328" height="1"></rect>
                    <rect x="0.0203722105" y="14.1722678" width="4.451328" height="1"></rect>
                    <rect x="0.0203722105" y="15.4591124" width="4.451328" height="1"></rect>
                    <rect x="0.0203722105" y="16.7459571" width="4.451328" height="1"></rect>
                    <rect x="0.0203722105" y="18.0328017" width="4.451328" height="1"></rect>
                </g>
                <g transform="translate(78.772547, 7.696168)" fill="#FFFFFF" fill-rule="nonzero" id="Rectangle">
                    <rect x="0.0565894737" y="0.00905431579" width="4.451328" height="1"></rect>
                    <rect x="0.0565894737" y="1.29589895" width="4.451328" height="1"></rect>
                    <rect x="0.0565894737" y="2.58387537" width="4.451328" height="1"></rect>
                    <rect x="0.0565894737" y="3.87072" width="4.451328" height="1"></rect>
                    <rect x="0.0565894737" y="5.15756463" width="4.451328" height="1"></rect>
                    <rect x="0.0565894737" y="6.44440926" width="4.451328" height="1"></rect>
                    <rect x="0.0565894737" y="7.73125389" width="4.451328" height="1"></rect>
                    <rect x="0.0565894737" y="9.01809853" width="4.451328" height="1"></rect>
                    <rect x="0.0565894737" y="10.3049432" width="4.451328" height="1"></rect>
                    <rect x="0.0565894737" y="11.5917878" width="4.451328" height="1"></rect>
                    <rect x="0.0565894737" y="12.8786324" width="4.451328" height="1"></rect>
                    <rect x="0.0565894737" y="14.1666088" width="4.451328" height="1"></rect>
                    <rect x="0.0565894737" y="15.4534535" width="4.451328" height="1"></rect>
                    <rect x="0.0565894737" y="16.7402981" width="4.451328" height="1"></rect>
                    <rect x="0.0565894737" y="18.0271427" width="4.451328" height="1"></rect>
                </g>
                <path d="M123.760047,31.6176707 C118.801677,30.3760977 111.623869,29.5962947 103.63683,29.5962947 C95.649792,29.5962947 88.4731149,30.3760977 83.5136135,31.6176707 L123.760047,31.6176707 Z" id="Path" stroke="#6B6F74" stroke-width="0.53164557" fill="#00964D" fill-rule="nonzero"></path>
            </g>
        </g>
    </g>
</svg>